ISO-10303-21;
HEADER;
/* Generated by software containing ST-Developer
 * from STEP Tools, Inc. (www.steptools.com) 
 */

FILE_DESCRIPTION(
/* description */ (''),
/* implementation_level */ '2;1');

FILE_NAME(
/* name */ 'bottom.step',
/* time_stamp */ '2026-05-25T21:49:58+02:00',
/* author */ (''),
/* organization */ (''),
/* preprocessor_version */ 'ST-DEVELOPER v20.1',
/* originating_system */ 'Autodesk Translation Framework v15.8.0.0',
/* authorisation */ '');

FILE_SCHEMA (('AUTOMOTIVE_DESIGN { 1 0 10303 214 3 1 1 }'));
ENDSEC;

DATA;
#10=MECHANICAL_DESIGN_GEOMETRIC_PRESENTATION_REPRESENTATION('',(#13),#1421);
#11=SHAPE_REPRESENTATION_RELATIONSHIP('SRR','None',#1428,#12);
#12=ADVANCED_BREP_SHAPE_REPRESENTATION('',(#14),#1420);
#13=STYLED_ITEM('',(#1437),#14);
#14=MANIFOLD_SOLID_BREP('Body559',#841);
#15=CYLINDRICAL_SURFACE('',#876,15.);
#16=CYLINDRICAL_SURFACE('',#877,11.0113579368547);
#17=CYLINDRICAL_SURFACE('',#884,10.);
#18=CYLINDRICAL_SURFACE('',#886,10.);
#19=CYLINDRICAL_SURFACE('',#902,11.0113579368547);
#20=CYLINDRICAL_SURFACE('',#911,15.);
#21=CYLINDRICAL_SURFACE('',#912,10.9088058427888);
#22=CYLINDRICAL_SURFACE('',#913,10.9088058427888);
#23=CYLINDRICAL_SURFACE('',#922,15.);
#24=CYLINDRICAL_SURFACE('',#923,11.045361181776);
#25=CYLINDRICAL_SURFACE('',#924,11.045361181776);
#26=CYLINDRICAL_SURFACE('',#933,15.);
#27=CYLINDRICAL_SURFACE('',#934,11.0113579368547);
#28=CYLINDRICAL_SURFACE('',#935,11.0113579368547);
#29=FACE_BOUND('',#141,.T.);
#30=FACE_BOUND('',#143,.T.);
#31=FACE_BOUND('',#159,.T.);
#32=FACE_BOUND('',#163,.T.);
#33=FACE_BOUND('',#164,.T.);
#34=FACE_BOUND('',#165,.T.);
#35=FACE_BOUND('',#166,.T.);
#36=FACE_BOUND('',#170,.T.);
#37=FACE_BOUND('',#172,.T.);
#38=FACE_BOUND('',#178,.T.);
#39=FACE_BOUND('',#180,.T.);
#40=FACE_BOUND('',#186,.T.);
#41=FACE_BOUND('',#188,.T.);
#42=CIRCLE('',#871,15.);
#43=CIRCLE('',#872,11.0113579368547);
#44=CIRCLE('',#874,15.);
#45=CIRCLE('',#875,11.0113579368547);
#46=CIRCLE('',#878,11.0113579368547);
#47=CIRCLE('',#880,10.);
#48=CIRCLE('',#883,10.);
#49=CIRCLE('',#887,10.);
#50=CIRCLE('',#888,10.);
#51=CIRCLE('',#899,11.0113579368547);
#52=CIRCLE('',#900,10.9088058427888);
#53=CIRCLE('',#901,11.045361181776);
#54=CIRCLE('',#903,11.0113579368547);
#55=CIRCLE('',#906,15.);
#56=CIRCLE('',#907,10.9088058427888);
#57=CIRCLE('',#909,15.);
#58=CIRCLE('',#910,10.9088058427888);
#59=CIRCLE('',#914,10.9088058427888);
#60=CIRCLE('',#917,15.);
#61=CIRCLE('',#918,11.045361181776);
#62=CIRCLE('',#920,15.);
#63=CIRCLE('',#921,11.045361181776);
#64=CIRCLE('',#925,11.045361181776);
#65=CIRCLE('',#928,15.);
#66=CIRCLE('',#929,11.0113579368547);
#67=CIRCLE('',#931,15.);
#68=CIRCLE('',#932,11.0113579368547);
#69=CIRCLE('',#936,11.0113579368547);
#70=FACE_OUTER_BOUND('',#125,.T.);
#71=FACE_OUTER_BOUND('',#126,.T.);
#72=FACE_OUTER_BOUND('',#127,.T.);
#73=FACE_OUTER_BOUND('',#128,.T.);
#74=FACE_OUTER_BOUND('',#129,.T.);
#75=FACE_OUTER_BOUND('',#130,.T.);
#76=FACE_OUTER_BOUND('',#131,.T.);
#77=FACE_OUTER_BOUND('',#132,.T.);
#78=FACE_OUTER_BOUND('',#133,.T.);
#79=FACE_OUTER_BOUND('',#134,.T.);
#80=FACE_OUTER_BOUND('',#135,.T.);
#81=FACE_OUTER_BOUND('',#136,.T.);
#82=FACE_OUTER_BOUND('',#137,.T.);
#83=FACE_OUTER_BOUND('',#138,.T.);
#84=FACE_OUTER_BOUND('',#139,.T.);
#85=FACE_OUTER_BOUND('',#140,.T.);
#86=FACE_OUTER_BOUND('',#142,.T.);
#87=FACE_OUTER_BOUND('',#144,.T.);
#88=FACE_OUTER_BOUND('',#145,.T.);
#89=FACE_OUTER_BOUND('',#146,.T.);
#90=FACE_OUTER_BOUND('',#147,.T.);
#91=FACE_OUTER_BOUND('',#148,.T.);
#92=FACE_OUTER_BOUND('',#149,.T.);
#93=FACE_OUTER_BOUND('',#150,.T.);
#94=FACE_OUTER_BOUND('',#151,.T.);
#95=FACE_OUTER_BOUND('',#152,.T.);
#96=FACE_OUTER_BOUND('',#153,.T.);
#97=FACE_OUTER_BOUND('',#154,.T.);
#98=FACE_OUTER_BOUND('',#155,.T.);
#99=FACE_OUTER_BOUND('',#156,.T.);
#100=FACE_OUTER_BOUND('',#157,.T.);
#101=FACE_OUTER_BOUND('',#158,.T.);
#102=FACE_OUTER_BOUND('',#160,.T.);
#103=FACE_OUTER_BOUND('',#161,.T.);
#104=FACE_OUTER_BOUND('',#162,.T.);
#105=FACE_OUTER_BOUND('',#167,.T.);
#106=FACE_OUTER_BOUND('',#168,.T.);
#107=FACE_OUTER_BOUND('',#169,.T.);
#108=FACE_OUTER_BOUND('',#171,.T.);
#109=FACE_OUTER_BOUND('',#173,.T.);
#110=FACE_OUTER_BOUND('',#174,.T.);
#111=FACE_OUTER_BOUND('',#175,.T.);
#112=FACE_OUTER_BOUND('',#176,.T.);
#113=FACE_OUTER_BOUND('',#177,.T.);
#114=FACE_OUTER_BOUND('',#179,.T.);
#115=FACE_OUTER_BOUND('',#181,.T.);
#116=FACE_OUTER_BOUND('',#182,.T.);
#117=FACE_OUTER_BOUND('',#183,.T.);
#118=FACE_OUTER_BOUND('',#184,.T.);
#119=FACE_OUTER_BOUND('',#185,.T.);
#120=FACE_OUTER_BOUND('',#187,.T.);
#121=FACE_OUTER_BOUND('',#189,.T.);
#122=FACE_OUTER_BOUND('',#190,.T.);
#123=FACE_OUTER_BOUND('',#191,.T.);
#124=FACE_OUTER_BOUND('',#192,.T.);
#125=EDGE_LOOP('',(#529,#530,#531));
#126=EDGE_LOOP('',(#532,#533,#534));
#127=EDGE_LOOP('',(#535,#536,#537));
#128=EDGE_LOOP('',(#538,#539,#540));
#129=EDGE_LOOP('',(#541,#542,#543,#544));
#130=EDGE_LOOP('',(#545,#546,#547,#548));
#131=EDGE_LOOP('',(#549,#550,#551,#552));
#132=EDGE_LOOP('',(#553,#554,#555,#556));
#133=EDGE_LOOP('',(#557,#558,#559,#560));
#134=EDGE_LOOP('',(#561,#562,#563,#564));
#135=EDGE_LOOP('',(#565,#566,#567,#568));
#136=EDGE_LOOP('',(#569,#570,#571,#572));
#137=EDGE_LOOP('',(#573,#574,#575,#576));
#138=EDGE_LOOP('',(#577,#578,#579,#580));
#139=EDGE_LOOP('',(#581,#582,#583,#584));
#140=EDGE_LOOP('',(#585));
#141=EDGE_LOOP('',(#586));
#142=EDGE_LOOP('',(#587));
#143=EDGE_LOOP('',(#588));
#144=EDGE_LOOP('',(#589,#590,#591,#592));
#145=EDGE_LOOP('',(#593,#594,#595,#596));
#146=EDGE_LOOP('',(#597,#598,#599,#600,#601,#602,#603,#604));
#147=EDGE_LOOP('',(#605,#606,#607,#608,#609,#610,#611,#612));
#148=EDGE_LOOP('',(#613,#614,#615,#616));
#149=EDGE_LOOP('',(#617,#618,#619,#620));
#150=EDGE_LOOP('',(#621,#622,#623,#624));
#151=EDGE_LOOP('',(#625,#626,#627,#628));
#152=EDGE_LOOP('',(#629,#630,#631,#632));
#153=EDGE_LOOP('',(#633,#634,#635,#636));
#154=EDGE_LOOP('',(#637,#638,#639,#640,#641,#642,#643,#644));
#155=EDGE_LOOP('',(#645,#646,#647,#648));
#156=EDGE_LOOP('',(#649,#650,#651,#652));
#157=EDGE_LOOP('',(#653,#654,#655,#656,#657,#658,#659,#660));
#158=EDGE_LOOP('',(#661,#662,#663,#664,#665,#666,#667,#668));
#159=EDGE_LOOP('',(#669,#670,#671,#672));
#160=EDGE_LOOP('',(#673,#674,#675,#676));
#161=EDGE_LOOP('',(#677,#678,#679,#680));
#162=EDGE_LOOP('',(#681,#682,#683,#684));
#163=EDGE_LOOP('',(#685));
#164=EDGE_LOOP('',(#686));
#165=EDGE_LOOP('',(#687));
#166=EDGE_LOOP('',(#688));
#167=EDGE_LOOP('',(#689,#690,#691,#692));
#168=EDGE_LOOP('',(#693));
#169=EDGE_LOOP('',(#694));
#170=EDGE_LOOP('',(#695));
#171=EDGE_LOOP('',(#696));
#172=EDGE_LOOP('',(#697));
#173=EDGE_LOOP('',(#698,#699,#700,#701));
#174=EDGE_LOOP('',(#702,#703,#704,#705));
#175=EDGE_LOOP('',(#706,#707,#708,#709));
#176=EDGE_LOOP('',(#710));
#177=EDGE_LOOP('',(#711));
#178=EDGE_LOOP('',(#712));
#179=EDGE_LOOP('',(#713));
#180=EDGE_LOOP('',(#714));
#181=EDGE_LOOP('',(#715,#716,#717,#718));
#182=EDGE_LOOP('',(#719,#720,#721,#722));
#183=EDGE_LOOP('',(#723,#724,#725,#726));
#184=EDGE_LOOP('',(#727));
#185=EDGE_LOOP('',(#728));
#186=EDGE_LOOP('',(#729));
#187=EDGE_LOOP('',(#730));
#188=EDGE_LOOP('',(#731));
#189=EDGE_LOOP('',(#732,#733,#734,#735));
#190=EDGE_LOOP('',(#736,#737,#738,#739));
#191=EDGE_LOOP('',(#740,#741,#742,#743));
#192=EDGE_LOOP('',(#744));
#193=LINE('',#1190,#273);
#194=LINE('',#1192,#274);
#195=LINE('',#1193,#275);
#196=LINE('',#1197,#276);
#197=LINE('',#1199,#277);
#198=LINE('',#1200,#278);
#199=LINE('',#1204,#279);
#200=LINE('',#1206,#280);
#201=LINE('',#1207,#281);
#202=LINE('',#1211,#282);
#203=LINE('',#1213,#283);
#204=LINE('',#1214,#284);
#205=LINE('',#1216,#285);
#206=LINE('',#1217,#286);
#207=LINE('',#1221,#287);
#208=LINE('',#1222,#288);
#209=LINE('',#1223,#289);
#210=LINE('',#1225,#290);
#211=LINE('',#1226,#291);
#212=LINE('',#1228,#292);
#213=LINE('',#1229,#293);
#214=LINE('',#1233,#294);
#215=LINE('',#1234,#295);
#216=LINE('',#1235,#296);
#217=LINE('',#1239,#297);
#218=LINE('',#1240,#298);
#219=LINE('',#1241,#299);
#220=LINE('',#1243,#300);
#221=LINE('',#1244,#301);
#222=LINE('',#1248,#302);
#223=LINE('',#1249,#303);
#224=LINE('',#1250,#304);
#225=LINE('',#1252,#305);
#226=LINE('',#1254,#306);
#227=LINE('',#1267,#307);
#228=LINE('',#1270,#308);
#229=LINE('',#1275,#309);
#230=LINE('',#1277,#310);
#231=LINE('',#1279,#311);
#232=LINE('',#1283,#312);
#233=LINE('',#1285,#313);
#234=LINE('',#1287,#314);
#235=LINE('',#1288,#315);
#236=LINE('',#1291,#316);
#237=LINE('',#1293,#317);
#238=LINE('',#1294,#318);
#239=LINE('',#1296,#319);
#240=LINE('',#1298,#320);
#241=LINE('',#1299,#321);
#242=LINE('',#1304,#322);
#243=LINE('',#1305,#323);
#244=LINE('',#1307,#324);
#245=LINE('',#1308,#325);
#246=LINE('',#1312,#326);
#247=LINE('',#1314,#327);
#248=LINE('',#1316,#328);
#249=LINE('',#1317,#329);
#250=LINE('',#1322,#330);
#251=LINE('',#1326,#331);
#252=LINE('',#1328,#332);
#253=LINE('',#1329,#333);
#254=LINE('',#1331,#334);
#255=LINE('',#1334,#335);
#256=LINE('',#1336,#336);
#257=LINE('',#1337,#337);
#258=LINE('',#1338,#338);
#259=LINE('',#1342,#339);
#260=LINE('',#1343,#340);
#261=LINE('',#1345,#341);
#262=LINE('',#1346,#342);
#263=LINE('',#1359,#343);
#264=LINE('',#1372,#344);
#265=LINE('',#1374,#345);
#266=LINE('',#1378,#346);
#267=LINE('',#1391,#347);
#268=LINE('',#1393,#348);
#269=LINE('',#1397,#349);
#270=LINE('',#1410,#350);
#271=LINE('',#1412,#351);
#272=LINE('',#1416,#352);
#273=VECTOR('',#942,10.);
#274=VECTOR('',#943,10.);
#275=VECTOR('',#944,10.);
#276=VECTOR('',#947,10.);
#277=VECTOR('',#948,10.);
#278=VECTOR('',#949,10.);
#279=VECTOR('',#952,10.);
#280=VECTOR('',#953,10.);
#281=VECTOR('',#954,10.);
#282=VECTOR('',#957,10.);
#283=VECTOR('',#958,10.);
#284=VECTOR('',#959,10.);
#285=VECTOR('',#962,10.);
#286=VECTOR('',#963,10.);
#287=VECTOR('',#966,10.);
#288=VECTOR('',#967,10.);
#289=VECTOR('',#968,10.);
#290=VECTOR('',#971,10.);
#291=VECTOR('',#972,10.);
#292=VECTOR('',#975,10.);
#293=VECTOR('',#976,10.);
#294=VECTOR('',#979,10.);
#295=VECTOR('',#980,10.);
#296=VECTOR('',#981,10.);
#297=VECTOR('',#984,10.);
#298=VECTOR('',#985,10.);
#299=VECTOR('',#986,10.);
#300=VECTOR('',#989,10.);
#301=VECTOR('',#990,10.);
#302=VECTOR('',#993,10.);
#303=VECTOR('',#994,10.);
#304=VECTOR('',#995,10.);
#305=VECTOR('',#998,10.);
#306=VECTOR('',#1001,10.);
#307=VECTOR('',#1018,15.);
#308=VECTOR('',#1021,11.0113579368547);
#309=VECTOR('',#1026,10.);
#310=VECTOR('',#1027,10.);
#311=VECTOR('',#1028,10.);
#312=VECTOR('',#1031,10.);
#313=VECTOR('',#1032,10.);
#314=VECTOR('',#1033,10.);
#315=VECTOR('',#1034,10.);
#316=VECTOR('',#1037,10.);
#317=VECTOR('',#1038,10.);
#318=VECTOR('',#1039,10.);
#319=VECTOR('',#1040,10.);
#320=VECTOR('',#1041,10.);
#321=VECTOR('',#1042,10.);
#322=VECTOR('',#1047,10.);
#323=VECTOR('',#1048,10.);
#324=VECTOR('',#1051,10.);
#325=VECTOR('',#1052,10.);
#326=VECTOR('',#1055,10.);
#327=VECTOR('',#1056,10.);
#328=VECTOR('',#1057,10.);
#329=VECTOR('',#1058,10.);
#330=VECTOR('',#1063,10.);
#331=VECTOR('',#1068,10.);
#332=VECTOR('',#1069,10.);
#333=VECTOR('',#1070,10.);
#334=VECTOR('',#1073,10.);
#335=VECTOR('',#1076,10.);
#336=VECTOR('',#1077,10.);
#337=VECTOR('',#1078,10.);
#338=VECTOR('',#1079,10.);
#339=VECTOR('',#1086,10.);
#340=VECTOR('',#1087,10.);
#341=VECTOR('',#1090,10.);
#342=VECTOR('',#1091,10.);
#343=VECTOR('',#1108,11.0113579368547);
#344=VECTOR('',#1125,15.);
#345=VECTOR('',#1128,10.9088058427888);
#346=VECTOR('',#1133,10.9088058427888);
#347=VECTOR('',#1150,15.);
#348=VECTOR('',#1153,11.045361181776);
#349=VECTOR('',#1158,11.045361181776);
#350=VECTOR('',#1175,15.);
#351=VECTOR('',#1178,11.0113579368547);
#352=VECTOR('',#1183,11.0113579368547);
#353=VERTEX_POINT('',#1188);
#354=VERTEX_POINT('',#1189);
#355=VERTEX_POINT('',#1191);
#356=VERTEX_POINT('',#1195);
#357=VERTEX_POINT('',#1196);
#358=VERTEX_POINT('',#1198);
#359=VERTEX_POINT('',#1202);
#360=VERTEX_POINT('',#1203);
#361=VERTEX_POINT('',#1205);
#362=VERTEX_POINT('',#1209);
#363=VERTEX_POINT('',#1210);
#364=VERTEX_POINT('',#1212);
#365=VERTEX_POINT('',#1219);
#366=VERTEX_POINT('',#1220);
#367=VERTEX_POINT('',#1231);
#368=VERTEX_POINT('',#1232);
#369=VERTEX_POINT('',#1237);
#370=VERTEX_POINT('',#1238);
#371=VERTEX_POINT('',#1246);
#372=VERTEX_POINT('',#1247);
#373=VERTEX_POINT('',#1257);
#374=VERTEX_POINT('',#1259);
#375=VERTEX_POINT('',#1262);
#376=VERTEX_POINT('',#1264);
#377=VERTEX_POINT('',#1269);
#378=VERTEX_POINT('',#1273);
#379=VERTEX_POINT('',#1274);
#380=VERTEX_POINT('',#1276);
#381=VERTEX_POINT('',#1278);
#382=VERTEX_POINT('',#1280);
#383=VERTEX_POINT('',#1282);
#384=VERTEX_POINT('',#1284);
#385=VERTEX_POINT('',#1286);
#386=VERTEX_POINT('',#1290);
#387=VERTEX_POINT('',#1292);
#388=VERTEX_POINT('',#1295);
#389=VERTEX_POINT('',#1297);
#390=VERTEX_POINT('',#1301);
#391=VERTEX_POINT('',#1302);
#392=VERTEX_POINT('',#1310);
#393=VERTEX_POINT('',#1311);
#394=VERTEX_POINT('',#1313);
#395=VERTEX_POINT('',#1315);
#396=VERTEX_POINT('',#1319);
#397=VERTEX_POINT('',#1321);
#398=VERTEX_POINT('',#1325);
#399=VERTEX_POINT('',#1327);
#400=VERTEX_POINT('',#1333);
#401=VERTEX_POINT('',#1335);
#402=VERTEX_POINT('',#1350);
#403=VERTEX_POINT('',#1352);
#404=VERTEX_POINT('',#1354);
#405=VERTEX_POINT('',#1357);
#406=VERTEX_POINT('',#1362);
#407=VERTEX_POINT('',#1364);
#408=VERTEX_POINT('',#1367);
#409=VERTEX_POINT('',#1369);
#410=VERTEX_POINT('',#1376);
#411=VERTEX_POINT('',#1381);
#412=VERTEX_POINT('',#1383);
#413=VERTEX_POINT('',#1386);
#414=VERTEX_POINT('',#1388);
#415=VERTEX_POINT('',#1395);
#416=VERTEX_POINT('',#1400);
#417=VERTEX_POINT('',#1402);
#418=VERTEX_POINT('',#1405);
#419=VERTEX_POINT('',#1407);
#420=VERTEX_POINT('',#1414);
#421=EDGE_CURVE('',#353,#354,#193,.T.);
#422=EDGE_CURVE('',#355,#353,#194,.T.);
#423=EDGE_CURVE('',#354,#355,#195,.T.);
#424=EDGE_CURVE('',#356,#357,#196,.T.);
#425=EDGE_CURVE('',#358,#356,#197,.T.);
#426=EDGE_CURVE('',#357,#358,#198,.T.);
#427=EDGE_CURVE('',#359,#360,#199,.T.);
#428=EDGE_CURVE('',#361,#359,#200,.T.);
#429=EDGE_CURVE('',#360,#361,#201,.T.);
#430=EDGE_CURVE('',#362,#363,#202,.T.);
#431=EDGE_CURVE('',#364,#362,#203,.T.);
#432=EDGE_CURVE('',#363,#364,#204,.T.);
#433=EDGE_CURVE('',#359,#364,#205,.T.);
#434=EDGE_CURVE('',#362,#361,#206,.T.);
#435=EDGE_CURVE('',#365,#366,#207,.T.);
#436=EDGE_CURVE('',#366,#363,#208,.T.);
#437=EDGE_CURVE('',#364,#365,#209,.T.);
#438=EDGE_CURVE('',#363,#358,#210,.T.);
#439=EDGE_CURVE('',#356,#362,#211,.T.);
#440=EDGE_CURVE('',#361,#353,#212,.T.);
#441=EDGE_CURVE('',#354,#360,#213,.T.);
#442=EDGE_CURVE('',#367,#368,#214,.T.);
#443=EDGE_CURVE('',#368,#359,#215,.T.);
#444=EDGE_CURVE('',#360,#367,#216,.T.);
#445=EDGE_CURVE('',#369,#370,#217,.T.);
#446=EDGE_CURVE('',#370,#357,#218,.T.);
#447=EDGE_CURVE('',#358,#369,#219,.T.);
#448=EDGE_CURVE('',#357,#355,#220,.T.);
#449=EDGE_CURVE('',#353,#356,#221,.T.);
#450=EDGE_CURVE('',#371,#372,#222,.T.);
#451=EDGE_CURVE('',#372,#354,#223,.T.);
#452=EDGE_CURVE('',#355,#371,#224,.T.);
#453=EDGE_CURVE('',#365,#368,#225,.T.);
#454=EDGE_CURVE('',#367,#372,#226,.T.);
#455=EDGE_CURVE('',#373,#373,#42,.T.);
#456=EDGE_CURVE('',#374,#374,#43,.T.);
#457=EDGE_CURVE('',#375,#375,#44,.T.);
#458=EDGE_CURVE('',#376,#376,#45,.T.);
#459=EDGE_CURVE('',#373,#375,#227,.T.);
#460=EDGE_CURVE('',#376,#377,#228,.T.);
#461=EDGE_CURVE('',#377,#377,#46,.T.);
#462=EDGE_CURVE('',#378,#379,#229,.T.);
#463=EDGE_CURVE('',#378,#380,#230,.T.);
#464=EDGE_CURVE('',#380,#381,#231,.T.);
#465=EDGE_CURVE('',#382,#381,#47,.F.);
#466=EDGE_CURVE('',#382,#383,#232,.T.);
#467=EDGE_CURVE('',#383,#384,#233,.T.);
#468=EDGE_CURVE('',#385,#384,#234,.T.);
#469=EDGE_CURVE('',#379,#385,#235,.T.);
#470=EDGE_CURVE('',#386,#378,#236,.T.);
#471=EDGE_CURVE('',#386,#387,#237,.T.);
#472=EDGE_CURVE('',#384,#387,#238,.T.);
#473=EDGE_CURVE('',#383,#388,#239,.T.);
#474=EDGE_CURVE('',#388,#389,#240,.T.);
#475=EDGE_CURVE('',#389,#380,#241,.T.);
#476=EDGE_CURVE('',#390,#391,#48,.T.);
#477=EDGE_CURVE('',#389,#390,#242,.T.);
#478=EDGE_CURVE('',#388,#391,#243,.T.);
#479=EDGE_CURVE('',#391,#382,#244,.T.);
#480=EDGE_CURVE('',#381,#390,#245,.T.);
#481=EDGE_CURVE('',#392,#393,#246,.T.);
#482=EDGE_CURVE('',#394,#392,#247,.T.);
#483=EDGE_CURVE('',#395,#394,#248,.T.);
#484=EDGE_CURVE('',#395,#393,#249,.T.);
#485=EDGE_CURVE('',#393,#396,#49,.T.);
#486=EDGE_CURVE('',#396,#397,#250,.T.);
#487=EDGE_CURVE('',#397,#392,#50,.F.);
#488=EDGE_CURVE('',#398,#396,#251,.T.);
#489=EDGE_CURVE('',#399,#398,#252,.T.);
#490=EDGE_CURVE('',#397,#399,#253,.T.);
#491=EDGE_CURVE('',#398,#395,#254,.T.);
#492=EDGE_CURVE('',#379,#400,#255,.T.);
#493=EDGE_CURVE('',#401,#385,#256,.T.);
#494=EDGE_CURVE('',#399,#401,#257,.T.);
#495=EDGE_CURVE('',#400,#394,#258,.T.);
#496=EDGE_CURVE('',#400,#386,#259,.T.);
#497=EDGE_CURVE('',#387,#401,#260,.T.);
#498=EDGE_CURVE('',#371,#370,#261,.T.);
#499=EDGE_CURVE('',#369,#366,#262,.T.);
#500=EDGE_CURVE('',#402,#402,#51,.T.);
#501=EDGE_CURVE('',#403,#403,#52,.T.);
#502=EDGE_CURVE('',#404,#404,#53,.T.);
#503=EDGE_CURVE('',#405,#405,#54,.T.);
#504=EDGE_CURVE('',#405,#374,#263,.T.);
#505=EDGE_CURVE('',#406,#406,#55,.T.);
#506=EDGE_CURVE('',#407,#407,#56,.T.);
#507=EDGE_CURVE('',#408,#408,#57,.T.);
#508=EDGE_CURVE('',#409,#409,#58,.T.);
#509=EDGE_CURVE('',#406,#408,#264,.T.);
#510=EDGE_CURVE('',#409,#403,#265,.T.);
#511=EDGE_CURVE('',#410,#410,#59,.T.);
#512=EDGE_CURVE('',#410,#407,#266,.T.);
#513=EDGE_CURVE('',#411,#411,#60,.T.);
#514=EDGE_CURVE('',#412,#412,#61,.T.);
#515=EDGE_CURVE('',#413,#413,#62,.T.);
#516=EDGE_CURVE('',#414,#414,#63,.T.);
#517=EDGE_CURVE('',#411,#413,#267,.T.);
#518=EDGE_CURVE('',#414,#404,#268,.T.);
#519=EDGE_CURVE('',#415,#415,#64,.T.);
#520=EDGE_CURVE('',#415,#412,#269,.T.);
#521=EDGE_CURVE('',#416,#416,#65,.T.);
#522=EDGE_CURVE('',#417,#417,#66,.T.);
#523=EDGE_CURVE('',#418,#418,#67,.T.);
#524=EDGE_CURVE('',#419,#419,#68,.T.);
#525=EDGE_CURVE('',#416,#418,#270,.T.);
#526=EDGE_CURVE('',#419,#402,#271,.T.);
#527=EDGE_CURVE('',#420,#420,#69,.T.);
#528=EDGE_CURVE('',#420,#417,#272,.T.);
#529=ORIENTED_EDGE('',*,*,#421,.F.);
#530=ORIENTED_EDGE('',*,*,#422,.F.);
#531=ORIENTED_EDGE('',*,*,#423,.F.);
#532=ORIENTED_EDGE('',*,*,#424,.F.);
#533=ORIENTED_EDGE('',*,*,#425,.F.);
#534=ORIENTED_EDGE('',*,*,#426,.F.);
#535=ORIENTED_EDGE('',*,*,#427,.F.);
#536=ORIENTED_EDGE('',*,*,#428,.F.);
#537=ORIENTED_EDGE('',*,*,#429,.F.);
#538=ORIENTED_EDGE('',*,*,#430,.F.);
#539=ORIENTED_EDGE('',*,*,#431,.F.);
#540=ORIENTED_EDGE('',*,*,#432,.F.);
#541=ORIENTED_EDGE('',*,*,#428,.T.);
#542=ORIENTED_EDGE('',*,*,#433,.T.);
#543=ORIENTED_EDGE('',*,*,#431,.T.);
#544=ORIENTED_EDGE('',*,*,#434,.T.);
#545=ORIENTED_EDGE('',*,*,#435,.T.);
#546=ORIENTED_EDGE('',*,*,#436,.T.);
#547=ORIENTED_EDGE('',*,*,#432,.T.);
#548=ORIENTED_EDGE('',*,*,#437,.T.);
#549=ORIENTED_EDGE('',*,*,#430,.T.);
#550=ORIENTED_EDGE('',*,*,#438,.T.);
#551=ORIENTED_EDGE('',*,*,#425,.T.);
#552=ORIENTED_EDGE('',*,*,#439,.T.);
#553=ORIENTED_EDGE('',*,*,#429,.T.);
#554=ORIENTED_EDGE('',*,*,#440,.T.);
#555=ORIENTED_EDGE('',*,*,#421,.T.);
#556=ORIENTED_EDGE('',*,*,#441,.T.);
#557=ORIENTED_EDGE('',*,*,#442,.T.);
#558=ORIENTED_EDGE('',*,*,#443,.T.);
#559=ORIENTED_EDGE('',*,*,#427,.T.);
#560=ORIENTED_EDGE('',*,*,#444,.T.);
#561=ORIENTED_EDGE('',*,*,#445,.T.);
#562=ORIENTED_EDGE('',*,*,#446,.T.);
#563=ORIENTED_EDGE('',*,*,#426,.T.);
#564=ORIENTED_EDGE('',*,*,#447,.T.);
#565=ORIENTED_EDGE('',*,*,#424,.T.);
#566=ORIENTED_EDGE('',*,*,#448,.T.);
#567=ORIENTED_EDGE('',*,*,#422,.T.);
#568=ORIENTED_EDGE('',*,*,#449,.T.);
#569=ORIENTED_EDGE('',*,*,#450,.T.);
#570=ORIENTED_EDGE('',*,*,#451,.T.);
#571=ORIENTED_EDGE('',*,*,#423,.T.);
#572=ORIENTED_EDGE('',*,*,#452,.T.);
#573=ORIENTED_EDGE('',*,*,#437,.F.);
#574=ORIENTED_EDGE('',*,*,#433,.F.);
#575=ORIENTED_EDGE('',*,*,#443,.F.);
#576=ORIENTED_EDGE('',*,*,#453,.F.);
#577=ORIENTED_EDGE('',*,*,#444,.F.);
#578=ORIENTED_EDGE('',*,*,#441,.F.);
#579=ORIENTED_EDGE('',*,*,#451,.F.);
#580=ORIENTED_EDGE('',*,*,#454,.F.);
#581=ORIENTED_EDGE('',*,*,#434,.F.);
#582=ORIENTED_EDGE('',*,*,#439,.F.);
#583=ORIENTED_EDGE('',*,*,#449,.F.);
#584=ORIENTED_EDGE('',*,*,#440,.F.);
#585=ORIENTED_EDGE('',*,*,#455,.T.);
#586=ORIENTED_EDGE('',*,*,#456,.F.);
#587=ORIENTED_EDGE('',*,*,#457,.F.);
#588=ORIENTED_EDGE('',*,*,#458,.F.);
#589=ORIENTED_EDGE('',*,*,#455,.F.);
#590=ORIENTED_EDGE('',*,*,#459,.T.);
#591=ORIENTED_EDGE('',*,*,#457,.T.);
#592=ORIENTED_EDGE('',*,*,#459,.F.);
#593=ORIENTED_EDGE('',*,*,#458,.T.);
#594=ORIENTED_EDGE('',*,*,#460,.T.);
#595=ORIENTED_EDGE('',*,*,#461,.T.);
#596=ORIENTED_EDGE('',*,*,#460,.F.);
#597=ORIENTED_EDGE('',*,*,#462,.F.);
#598=ORIENTED_EDGE('',*,*,#463,.T.);
#599=ORIENTED_EDGE('',*,*,#464,.T.);
#600=ORIENTED_EDGE('',*,*,#465,.F.);
#601=ORIENTED_EDGE('',*,*,#466,.T.);
#602=ORIENTED_EDGE('',*,*,#467,.T.);
#603=ORIENTED_EDGE('',*,*,#468,.F.);
#604=ORIENTED_EDGE('',*,*,#469,.F.);
#605=ORIENTED_EDGE('',*,*,#470,.F.);
#606=ORIENTED_EDGE('',*,*,#471,.T.);
#607=ORIENTED_EDGE('',*,*,#472,.F.);
#608=ORIENTED_EDGE('',*,*,#467,.F.);
#609=ORIENTED_EDGE('',*,*,#473,.T.);
#610=ORIENTED_EDGE('',*,*,#474,.T.);
#611=ORIENTED_EDGE('',*,*,#475,.T.);
#612=ORIENTED_EDGE('',*,*,#463,.F.);
#613=ORIENTED_EDGE('',*,*,#476,.F.);
#614=ORIENTED_EDGE('',*,*,#477,.F.);
#615=ORIENTED_EDGE('',*,*,#474,.F.);
#616=ORIENTED_EDGE('',*,*,#478,.T.);
#617=ORIENTED_EDGE('',*,*,#476,.T.);
#618=ORIENTED_EDGE('',*,*,#479,.T.);
#619=ORIENTED_EDGE('',*,*,#465,.T.);
#620=ORIENTED_EDGE('',*,*,#480,.T.);
#621=ORIENTED_EDGE('',*,*,#481,.F.);
#622=ORIENTED_EDGE('',*,*,#482,.F.);
#623=ORIENTED_EDGE('',*,*,#483,.F.);
#624=ORIENTED_EDGE('',*,*,#484,.T.);
#625=ORIENTED_EDGE('',*,*,#485,.T.);
#626=ORIENTED_EDGE('',*,*,#486,.T.);
#627=ORIENTED_EDGE('',*,*,#487,.T.);
#628=ORIENTED_EDGE('',*,*,#481,.T.);
#629=ORIENTED_EDGE('',*,*,#486,.F.);
#630=ORIENTED_EDGE('',*,*,#488,.F.);
#631=ORIENTED_EDGE('',*,*,#489,.F.);
#632=ORIENTED_EDGE('',*,*,#490,.F.);
#633=ORIENTED_EDGE('',*,*,#485,.F.);
#634=ORIENTED_EDGE('',*,*,#484,.F.);
#635=ORIENTED_EDGE('',*,*,#491,.F.);
#636=ORIENTED_EDGE('',*,*,#488,.T.);
#637=ORIENTED_EDGE('',*,*,#492,.F.);
#638=ORIENTED_EDGE('',*,*,#469,.T.);
#639=ORIENTED_EDGE('',*,*,#493,.F.);
#640=ORIENTED_EDGE('',*,*,#494,.F.);
#641=ORIENTED_EDGE('',*,*,#489,.T.);
#642=ORIENTED_EDGE('',*,*,#491,.T.);
#643=ORIENTED_EDGE('',*,*,#483,.T.);
#644=ORIENTED_EDGE('',*,*,#495,.F.);
#645=ORIENTED_EDGE('',*,*,#479,.F.);
#646=ORIENTED_EDGE('',*,*,#478,.F.);
#647=ORIENTED_EDGE('',*,*,#473,.F.);
#648=ORIENTED_EDGE('',*,*,#466,.F.);
#649=ORIENTED_EDGE('',*,*,#480,.F.);
#650=ORIENTED_EDGE('',*,*,#464,.F.);
#651=ORIENTED_EDGE('',*,*,#475,.F.);
#652=ORIENTED_EDGE('',*,*,#477,.T.);
#653=ORIENTED_EDGE('',*,*,#496,.F.);
#654=ORIENTED_EDGE('',*,*,#495,.T.);
#655=ORIENTED_EDGE('',*,*,#482,.T.);
#656=ORIENTED_EDGE('',*,*,#487,.F.);
#657=ORIENTED_EDGE('',*,*,#490,.T.);
#658=ORIENTED_EDGE('',*,*,#494,.T.);
#659=ORIENTED_EDGE('',*,*,#497,.F.);
#660=ORIENTED_EDGE('',*,*,#471,.F.);
#661=ORIENTED_EDGE('',*,*,#435,.F.);
#662=ORIENTED_EDGE('',*,*,#453,.T.);
#663=ORIENTED_EDGE('',*,*,#442,.F.);
#664=ORIENTED_EDGE('',*,*,#454,.T.);
#665=ORIENTED_EDGE('',*,*,#450,.F.);
#666=ORIENTED_EDGE('',*,*,#498,.T.);
#667=ORIENTED_EDGE('',*,*,#445,.F.);
#668=ORIENTED_EDGE('',*,*,#499,.T.);
#669=ORIENTED_EDGE('',*,*,#493,.T.);
#670=ORIENTED_EDGE('',*,*,#468,.T.);
#671=ORIENTED_EDGE('',*,*,#472,.T.);
#672=ORIENTED_EDGE('',*,*,#497,.T.);
#673=ORIENTED_EDGE('',*,*,#436,.F.);
#674=ORIENTED_EDGE('',*,*,#499,.F.);
#675=ORIENTED_EDGE('',*,*,#447,.F.);
#676=ORIENTED_EDGE('',*,*,#438,.F.);
#677=ORIENTED_EDGE('',*,*,#446,.F.);
#678=ORIENTED_EDGE('',*,*,#498,.F.);
#679=ORIENTED_EDGE('',*,*,#452,.F.);
#680=ORIENTED_EDGE('',*,*,#448,.F.);
#681=ORIENTED_EDGE('',*,*,#470,.T.);
#682=ORIENTED_EDGE('',*,*,#462,.T.);
#683=ORIENTED_EDGE('',*,*,#492,.T.);
#684=ORIENTED_EDGE('',*,*,#496,.T.);
#685=ORIENTED_EDGE('',*,*,#500,.F.);
#686=ORIENTED_EDGE('',*,*,#501,.F.);
#687=ORIENTED_EDGE('',*,*,#502,.F.);
#688=ORIENTED_EDGE('',*,*,#461,.F.);
#689=ORIENTED_EDGE('',*,*,#503,.F.);
#690=ORIENTED_EDGE('',*,*,#504,.T.);
#691=ORIENTED_EDGE('',*,*,#456,.T.);
#692=ORIENTED_EDGE('',*,*,#504,.F.);
#693=ORIENTED_EDGE('',*,*,#503,.T.);
#694=ORIENTED_EDGE('',*,*,#505,.T.);
#695=ORIENTED_EDGE('',*,*,#506,.F.);
#696=ORIENTED_EDGE('',*,*,#507,.F.);
#697=ORIENTED_EDGE('',*,*,#508,.F.);
#698=ORIENTED_EDGE('',*,*,#505,.F.);
#699=ORIENTED_EDGE('',*,*,#509,.T.);
#700=ORIENTED_EDGE('',*,*,#507,.T.);
#701=ORIENTED_EDGE('',*,*,#509,.F.);
#702=ORIENTED_EDGE('',*,*,#508,.T.);
#703=ORIENTED_EDGE('',*,*,#510,.T.);
#704=ORIENTED_EDGE('',*,*,#501,.T.);
#705=ORIENTED_EDGE('',*,*,#510,.F.);
#706=ORIENTED_EDGE('',*,*,#511,.F.);
#707=ORIENTED_EDGE('',*,*,#512,.T.);
#708=ORIENTED_EDGE('',*,*,#506,.T.);
#709=ORIENTED_EDGE('',*,*,#512,.F.);
#710=ORIENTED_EDGE('',*,*,#511,.T.);
#711=ORIENTED_EDGE('',*,*,#513,.T.);
#712=ORIENTED_EDGE('',*,*,#514,.F.);
#713=ORIENTED_EDGE('',*,*,#515,.F.);
#714=ORIENTED_EDGE('',*,*,#516,.F.);
#715=ORIENTED_EDGE('',*,*,#513,.F.);
#716=ORIENTED_EDGE('',*,*,#517,.T.);
#717=ORIENTED_EDGE('',*,*,#515,.T.);
#718=ORIENTED_EDGE('',*,*,#517,.F.);
#719=ORIENTED_EDGE('',*,*,#516,.T.);
#720=ORIENTED_EDGE('',*,*,#518,.T.);
#721=ORIENTED_EDGE('',*,*,#502,.T.);
#722=ORIENTED_EDGE('',*,*,#518,.F.);
#723=ORIENTED_EDGE('',*,*,#519,.F.);
#724=ORIENTED_EDGE('',*,*,#520,.T.);
#725=ORIENTED_EDGE('',*,*,#514,.T.);
#726=ORIENTED_EDGE('',*,*,#520,.F.);
#727=ORIENTED_EDGE('',*,*,#519,.T.);
#728=ORIENTED_EDGE('',*,*,#521,.T.);
#729=ORIENTED_EDGE('',*,*,#522,.F.);
#730=ORIENTED_EDGE('',*,*,#523,.F.);
#731=ORIENTED_EDGE('',*,*,#524,.F.);
#732=ORIENTED_EDGE('',*,*,#521,.F.);
#733=ORIENTED_EDGE('',*,*,#525,.T.);
#734=ORIENTED_EDGE('',*,*,#523,.T.);
#735=ORIENTED_EDGE('',*,*,#525,.F.);
#736=ORIENTED_EDGE('',*,*,#524,.T.);
#737=ORIENTED_EDGE('',*,*,#526,.T.);
#738=ORIENTED_EDGE('',*,*,#500,.T.);
#739=ORIENTED_EDGE('',*,*,#526,.F.);
#740=ORIENTED_EDGE('',*,*,#527,.F.);
#741=ORIENTED_EDGE('',*,*,#528,.T.);
#742=ORIENTED_EDGE('',*,*,#522,.T.);
#743=ORIENTED_EDGE('',*,*,#528,.F.);
#744=ORIENTED_EDGE('',*,*,#527,.T.);
#745=PLANE('',#855);
#746=PLANE('',#856);
#747=PLANE('',#857);
#748=PLANE('',#858);
#749=PLANE('',#859);
#750=PLANE('',#860);
#751=PLANE('',#861);
#752=PLANE('',#862);
#753=PLANE('',#863);
#754=PLANE('',#864);
#755=PLANE('',#865);
#756=PLANE('',#866);
#757=PLANE('',#867);
#758=PLANE('',#868);
#759=PLANE('',#869);
#760=PLANE('',#870);
#761=PLANE('',#873);
#762=PLANE('',#879);
#763=PLANE('',#881);
#764=PLANE('',#882);
#765=PLANE('',#885);
#766=PLANE('',#889);
#767=PLANE('',#890);
#768=PLANE('',#891);
#769=PLANE('',#892);
#770=PLANE('',#893);
#771=PLANE('',#894);
#772=PLANE('',#895);
#773=PLANE('',#896);
#774=PLANE('',#897);
#775=PLANE('',#898);
#776=PLANE('',#904);
#777=PLANE('',#905);
#778=PLANE('',#908);
#779=PLANE('',#915);
#780=PLANE('',#916);
#781=PLANE('',#919);
#782=PLANE('',#926);
#783=PLANE('',#927);
#784=PLANE('',#930);
#785=PLANE('',#937);
#786=ADVANCED_FACE('',(#70),#745,.T.);
#787=ADVANCED_FACE('',(#71),#746,.T.);
#788=ADVANCED_FACE('',(#72),#747,.T.);
#789=ADVANCED_FACE('',(#73),#748,.T.);
#790=ADVANCED_FACE('',(#74),#749,.T.);
#791=ADVANCED_FACE('',(#75),#750,.T.);
#792=ADVANCED_FACE('',(#76),#751,.T.);
#793=ADVANCED_FACE('',(#77),#752,.T.);
#794=ADVANCED_FACE('',(#78),#753,.T.);
#795=ADVANCED_FACE('',(#79),#754,.T.);
#796=ADVANCED_FACE('',(#80),#755,.T.);
#797=ADVANCED_FACE('',(#81),#756,.T.);
#798=ADVANCED_FACE('',(#82),#757,.T.);
#799=ADVANCED_FACE('',(#83),#758,.T.);
#800=ADVANCED_FACE('',(#84),#759,.T.);
#801=ADVANCED_FACE('',(#85,#29),#760,.T.);
#802=ADVANCED_FACE('',(#86,#30),#761,.F.);
#803=ADVANCED_FACE('',(#87),#15,.T.);
#804=ADVANCED_FACE('',(#88),#16,.T.);
#805=ADVANCED_FACE('',(#89),#762,.T.);
#806=ADVANCED_FACE('',(#90),#763,.T.);
#807=ADVANCED_FACE('',(#91),#764,.T.);
#808=ADVANCED_FACE('',(#92),#17,.T.);
#809=ADVANCED_FACE('',(#93),#765,.T.);
#810=ADVANCED_FACE('',(#94),#18,.T.);
#811=ADVANCED_FACE('',(#95),#766,.T.);
#812=ADVANCED_FACE('',(#96),#767,.T.);
#813=ADVANCED_FACE('',(#97),#768,.T.);
#814=ADVANCED_FACE('',(#98),#769,.T.);
#815=ADVANCED_FACE('',(#99),#770,.T.);
#816=ADVANCED_FACE('',(#100),#771,.T.);
#817=ADVANCED_FACE('',(#101,#31),#772,.T.);
#818=ADVANCED_FACE('',(#102),#773,.T.);
#819=ADVANCED_FACE('',(#103),#774,.T.);
#820=ADVANCED_FACE('',(#104,#32,#33,#34,#35),#775,.T.);
#821=ADVANCED_FACE('',(#105),#19,.T.);
#822=ADVANCED_FACE('',(#106),#776,.T.);
#823=ADVANCED_FACE('',(#107,#36),#777,.T.);
#824=ADVANCED_FACE('',(#108,#37),#778,.F.);
#825=ADVANCED_FACE('',(#109),#20,.T.);
#826=ADVANCED_FACE('',(#110),#21,.T.);
#827=ADVANCED_FACE('',(#111),#22,.T.);
#828=ADVANCED_FACE('',(#112),#779,.T.);
#829=ADVANCED_FACE('',(#113,#38),#780,.T.);
#830=ADVANCED_FACE('',(#114,#39),#781,.F.);
#831=ADVANCED_FACE('',(#115),#23,.T.);
#832=ADVANCED_FACE('',(#116),#24,.T.);
#833=ADVANCED_FACE('',(#117),#25,.T.);
#834=ADVANCED_FACE('',(#118),#782,.T.);
#835=ADVANCED_FACE('',(#119,#40),#783,.T.);
#836=ADVANCED_FACE('',(#120,#41),#784,.F.);
#837=ADVANCED_FACE('',(#121),#26,.T.);
#838=ADVANCED_FACE('',(#122),#27,.T.);
#839=ADVANCED_FACE('',(#123),#28,.T.);
#840=ADVANCED_FACE('',(#124),#785,.T.);
#841=CLOSED_SHELL('',(#786,#787,#788,#789,#790,#791,#792,#793,#794,#795,
#796,#797,#798,#799,#800,#801,#802,#803,#804,#805,#806,#807,#808,#809,#810,
#811,#812,#813,#814,#815,#816,#817,#818,#819,#820,#821,#822,#823,#824,#825,
#826,#827,#828,#829,#830,#831,#832,#833,#834,#835,#836,#837,#838,#839,#840));
#842=DERIVED_UNIT_ELEMENT(#844,1.);
#843=DERIVED_UNIT_ELEMENT(#1423,-3.);
#844=(
MASS_UNIT()
NAMED_UNIT(*)
SI_UNIT(.KILO.,.GRAM.)
);
#845=DERIVED_UNIT((#842,#843));
#846=MEASURE_REPRESENTATION_ITEM('density measure',
POSITIVE_RATIO_MEASURE(7850.),#845);
#847=PROPERTY_DEFINITION_REPRESENTATION(#852,#849);
#848=PROPERTY_DEFINITION_REPRESENTATION(#853,#850);
#849=REPRESENTATION('material name',(#851),#1420);
#850=REPRESENTATION('density',(#846),#1420);
#851=DESCRIPTIVE_REPRESENTATION_ITEM('Steel','Steel');
#852=PROPERTY_DEFINITION('material property','material name',#1430);
#853=PROPERTY_DEFINITION('material property','density of part',#1430);
#854=AXIS2_PLACEMENT_3D('',#1186,#938,#939);
#855=AXIS2_PLACEMENT_3D('',#1187,#940,#941);
#856=AXIS2_PLACEMENT_3D('',#1194,#945,#946);
#857=AXIS2_PLACEMENT_3D('',#1201,#950,#951);
#858=AXIS2_PLACEMENT_3D('',#1208,#955,#956);
#859=AXIS2_PLACEMENT_3D('',#1215,#960,#961);
#860=AXIS2_PLACEMENT_3D('',#1218,#964,#965);
#861=AXIS2_PLACEMENT_3D('',#1224,#969,#970);
#862=AXIS2_PLACEMENT_3D('',#1227,#973,#974);
#863=AXIS2_PLACEMENT_3D('',#1230,#977,#978);
#864=AXIS2_PLACEMENT_3D('',#1236,#982,#983);
#865=AXIS2_PLACEMENT_3D('',#1242,#987,#988);
#866=AXIS2_PLACEMENT_3D('',#1245,#991,#992);
#867=AXIS2_PLACEMENT_3D('',#1251,#996,#997);
#868=AXIS2_PLACEMENT_3D('',#1253,#999,#1000);
#869=AXIS2_PLACEMENT_3D('',#1255,#1002,#1003);
#870=AXIS2_PLACEMENT_3D('',#1256,#1004,#1005);
#871=AXIS2_PLACEMENT_3D('',#1258,#1006,#1007);
#872=AXIS2_PLACEMENT_3D('',#1260,#1008,#1009);
#873=AXIS2_PLACEMENT_3D('',#1261,#1010,#1011);
#874=AXIS2_PLACEMENT_3D('',#1263,#1012,#1013);
#875=AXIS2_PLACEMENT_3D('',#1265,#1014,#1015);
#876=AXIS2_PLACEMENT_3D('',#1266,#1016,#1017);
#877=AXIS2_PLACEMENT_3D('',#1268,#1019,#1020);
#878=AXIS2_PLACEMENT_3D('',#1271,#1022,#1023);
#879=AXIS2_PLACEMENT_3D('',#1272,#1024,#1025);
#880=AXIS2_PLACEMENT_3D('',#1281,#1029,#1030);
#881=AXIS2_PLACEMENT_3D('',#1289,#1035,#1036);
#882=AXIS2_PLACEMENT_3D('',#1300,#1043,#1044);
#883=AXIS2_PLACEMENT_3D('',#1303,#1045,#1046);
#884=AXIS2_PLACEMENT_3D('',#1306,#1049,#1050);
#885=AXIS2_PLACEMENT_3D('',#1309,#1053,#1054);
#886=AXIS2_PLACEMENT_3D('',#1318,#1059,#1060);
#887=AXIS2_PLACEMENT_3D('',#1320,#1061,#1062);
#888=AXIS2_PLACEMENT_3D('',#1323,#1064,#1065);
#889=AXIS2_PLACEMENT_3D('',#1324,#1066,#1067);
#890=AXIS2_PLACEMENT_3D('',#1330,#1071,#1072);
#891=AXIS2_PLACEMENT_3D('',#1332,#1074,#1075);
#892=AXIS2_PLACEMENT_3D('',#1339,#1080,#1081);
#893=AXIS2_PLACEMENT_3D('',#1340,#1082,#1083);
#894=AXIS2_PLACEMENT_3D('',#1341,#1084,#1085);
#895=AXIS2_PLACEMENT_3D('',#1344,#1088,#1089);
#896=AXIS2_PLACEMENT_3D('',#1347,#1092,#1093);
#897=AXIS2_PLACEMENT_3D('',#1348,#1094,#1095);
#898=AXIS2_PLACEMENT_3D('',#1349,#1096,#1097);
#899=AXIS2_PLACEMENT_3D('',#1351,#1098,#1099);
#900=AXIS2_PLACEMENT_3D('',#1353,#1100,#1101);
#901=AXIS2_PLACEMENT_3D('',#1355,#1102,#1103);
#902=AXIS2_PLACEMENT_3D('',#1356,#1104,#1105);
#903=AXIS2_PLACEMENT_3D('',#1358,#1106,#1107);
#904=AXIS2_PLACEMENT_3D('',#1360,#1109,#1110);
#905=AXIS2_PLACEMENT_3D('',#1361,#1111,#1112);
#906=AXIS2_PLACEMENT_3D('',#1363,#1113,#1114);
#907=AXIS2_PLACEMENT_3D('',#1365,#1115,#1116);
#908=AXIS2_PLACEMENT_3D('',#1366,#1117,#1118);
#909=AXIS2_PLACEMENT_3D('',#1368,#1119,#1120);
#910=AXIS2_PLACEMENT_3D('',#1370,#1121,#1122);
#911=AXIS2_PLACEMENT_3D('',#1371,#1123,#1124);
#912=AXIS2_PLACEMENT_3D('',#1373,#1126,#1127);
#913=AXIS2_PLACEMENT_3D('',#1375,#1129,#1130);
#914=AXIS2_PLACEMENT_3D('',#1377,#1131,#1132);
#915=AXIS2_PLACEMENT_3D('',#1379,#1134,#1135);
#916=AXIS2_PLACEMENT_3D('',#1380,#1136,#1137);
#917=AXIS2_PLACEMENT_3D('',#1382,#1138,#1139);
#918=AXIS2_PLACEMENT_3D('',#1384,#1140,#1141);
#919=AXIS2_PLACEMENT_3D('',#1385,#1142,#1143);
#920=AXIS2_PLACEMENT_3D('',#1387,#1144,#1145);
#921=AXIS2_PLACEMENT_3D('',#1389,#1146,#1147);
#922=AXIS2_PLACEMENT_3D('',#1390,#1148,#1149);
#923=AXIS2_PLACEMENT_3D('',#1392,#1151,#1152);
#924=AXIS2_PLACEMENT_3D('',#1394,#1154,#1155);
#925=AXIS2_PLACEMENT_3D('',#1396,#1156,#1157);
#926=AXIS2_PLACEMENT_3D('',#1398,#1159,#1160);
#927=AXIS2_PLACEMENT_3D('',#1399,#1161,#1162);
#928=AXIS2_PLACEMENT_3D('',#1401,#1163,#1164);
#929=AXIS2_PLACEMENT_3D('',#1403,#1165,#1166);
#930=AXIS2_PLACEMENT_3D('',#1404,#1167,#1168);
#931=AXIS2_PLACEMENT_3D('',#1406,#1169,#1170);
#932=AXIS2_PLACEMENT_3D('',#1408,#1171,#1172);
#933=AXIS2_PLACEMENT_3D('',#1409,#1173,#1174);
#934=AXIS2_PLACEMENT_3D('',#1411,#1176,#1177);
#935=AXIS2_PLACEMENT_3D('',#1413,#1179,#1180);
#936=AXIS2_PLACEMENT_3D('',#1415,#1181,#1182);
#937=AXIS2_PLACEMENT_3D('',#1417,#1184,#1185);
#938=DIRECTION('axis',(0.,0.,1.));
#939=DIRECTION('refdir',(1.,0.,0.));
#940=DIRECTION('center_axis',(-0.577350269189626,-0.577350269189626,-0.577350269189626));
#941=DIRECTION('ref_axis',(-0.707106781186548,0.,0.707106781186547));
#942=DIRECTION('',(-0.707106781186548,0.,0.707106781186547));
#943=DIRECTION('',(8.65956056235493E-17,0.707106781186547,-0.707106781186547));
#944=DIRECTION('',(0.707106781186547,-0.707106781186547,8.65956056235493E-17));
#945=DIRECTION('center_axis',(0.577350269189626,-0.577350269189626,-0.577350269189626));
#946=DIRECTION('ref_axis',(-0.707106781186547,0.,-0.707106781186548));
#947=DIRECTION('',(-8.65956056235493E-17,-0.707106781186547,0.707106781186547));
#948=DIRECTION('',(-0.707106781186547,0.,-0.707106781186548));
#949=DIRECTION('',(0.707106781186547,0.707106781186547,8.65956056235493E-17));
#950=DIRECTION('center_axis',(-0.577350269189626,0.577350269189626,-0.577350269189626));
#951=DIRECTION('ref_axis',(-0.707106781186548,0.,0.707106781186547));
#952=DIRECTION('',(-0.707106781186547,-0.707106781186547,-8.65956056235493E-17));
#953=DIRECTION('',(-8.65956056235493E-17,0.707106781186547,0.707106781186547));
#954=DIRECTION('',(0.707106781186548,0.,-0.707106781186547));
#955=DIRECTION('center_axis',(0.577350269189626,0.577350269189626,-0.577350269189626));
#956=DIRECTION('ref_axis',(-0.707106781186547,0.,-0.707106781186548));
#957=DIRECTION('',(0.707106781186547,0.,0.707106781186548));
#958=DIRECTION('',(8.65956056235493E-17,-0.707106781186547,-0.707106781186547));
#959=DIRECTION('',(-0.707106781186547,0.707106781186547,-8.65956056235493E-17));
#960=DIRECTION('center_axis',(8.65956056235493E-17,0.707106781186548,-0.707106781186548));
#961=DIRECTION('ref_axis',(-1.,0.,-1.22464679914735E-16));
#962=DIRECTION('',(1.,0.,1.22464679914735E-16));
#963=DIRECTION('',(-1.,0.,-1.22464679914735E-16));
#964=DIRECTION('center_axis',(0.707106781186548,0.707106781186548,8.65956056235493E-17));
#965=DIRECTION('ref_axis',(1.22464679914735E-16,0.,-1.));
#966=DIRECTION('',(0.707106781186548,-0.707106781186548,8.65956056235493E-17));
#967=DIRECTION('',(1.22464679914735E-16,0.,-1.));
#968=DIRECTION('',(-1.22464679914735E-16,0.,1.));
#969=DIRECTION('center_axis',(0.707106781186548,0.,-0.707106781186547));
#970=DIRECTION('ref_axis',(-0.707106781186547,0.,-0.707106781186548));
#971=DIRECTION('',(0.,-1.,0.));
#972=DIRECTION('',(0.,1.,0.));
#973=DIRECTION('center_axis',(-0.707106781186547,0.,-0.707106781186548));
#974=DIRECTION('ref_axis',(-0.707106781186548,0.,0.707106781186547));
#975=DIRECTION('',(0.,-1.,0.));
#976=DIRECTION('',(0.,1.,0.));
#977=DIRECTION('center_axis',(-0.707106781186548,0.707106781186548,-8.65956056235493E-17));
#978=DIRECTION('ref_axis',(-1.22464679914735E-16,0.,1.));
#979=DIRECTION('',(0.707106781186548,0.707106781186548,8.65956056235493E-17));
#980=DIRECTION('',(1.22464679914735E-16,0.,-1.));
#981=DIRECTION('',(-1.22464679914735E-16,0.,1.));
#982=DIRECTION('center_axis',(0.707106781186548,-0.707106781186548,8.65956056235493E-17));
#983=DIRECTION('ref_axis',(1.22464679914735E-16,0.,-1.));
#984=DIRECTION('',(-0.707106781186548,-0.707106781186548,-8.65956056235493E-17));
#985=DIRECTION('',(1.22464679914735E-16,0.,-1.));
#986=DIRECTION('',(-1.22464679914735E-16,0.,1.));
#987=DIRECTION('center_axis',(8.65956056235493E-17,-0.707106781186548,-0.707106781186548));
#988=DIRECTION('ref_axis',(-1.,0.,-1.22464679914735E-16));
#989=DIRECTION('',(-1.,0.,-1.22464679914735E-16));
#990=DIRECTION('',(1.,0.,1.22464679914735E-16));
#991=DIRECTION('center_axis',(-0.707106781186548,-0.707106781186548,-8.65956056235493E-17));
#992=DIRECTION('ref_axis',(-1.22464679914735E-16,0.,1.));
#993=DIRECTION('',(-0.707106781186548,0.707106781186548,-8.65956056235493E-17));
#994=DIRECTION('',(1.22464679914735E-16,0.,-1.));
#995=DIRECTION('',(-1.22464679914735E-16,0.,1.));
#996=DIRECTION('center_axis',(0.,1.,0.));
#997=DIRECTION('ref_axis',(-1.,0.,-1.22464679914735E-16));
#998=DIRECTION('',(-1.,0.,-1.22464679914735E-16));
#999=DIRECTION('center_axis',(-1.,0.,-1.22464679914735E-16));
#1000=DIRECTION('ref_axis',(0.,-1.,0.));
#1001=DIRECTION('',(0.,-1.,0.));
#1002=DIRECTION('center_axis',(1.22464679914735E-16,0.,-1.));
#1003=DIRECTION('ref_axis',(-1.,0.,-1.22464679914735E-16));
#1004=DIRECTION('center_axis',(-1.22464679914735E-16,0.,1.));
#1005=DIRECTION('ref_axis',(-1.,0.,-1.22464679914735E-16));
#1006=DIRECTION('center_axis',(-1.22464679914735E-16,0.,1.));
#1007=DIRECTION('ref_axis',(-1.,0.,-1.22464679914735E-16));
#1008=DIRECTION('center_axis',(-1.22464679914735E-16,0.,1.));
#1009=DIRECTION('ref_axis',(-1.,0.,-1.22464679914735E-16));
#1010=DIRECTION('center_axis',(-1.22464679914735E-16,0.,1.));
#1011=DIRECTION('ref_axis',(-1.,0.,-1.22464679914735E-16));
#1012=DIRECTION('center_axis',(-1.22464679914735E-16,0.,1.));
#1013=DIRECTION('ref_axis',(-1.,0.,-1.22464679914735E-16));
#1014=DIRECTION('center_axis',(1.22464679914735E-16,0.,-1.));
#1015=DIRECTION('ref_axis',(-1.,0.,-1.22464679914735E-16));
#1016=DIRECTION('center_axis',(-1.22464679914735E-16,0.,1.));
#1017=DIRECTION('ref_axis',(-1.,0.,-1.22464679914735E-16));
#1018=DIRECTION('',(1.22464679914735E-16,0.,-1.));
#1019=DIRECTION('center_axis',(-1.22464679914735E-16,0.,1.));
#1020=DIRECTION('ref_axis',(-1.,0.,-1.22464679914735E-16));
#1021=DIRECTION('',(1.22464679914735E-16,0.,-1.));
#1022=DIRECTION('center_axis',(-1.22464679914735E-16,0.,1.));
#1023=DIRECTION('ref_axis',(-1.,0.,-1.22464679914735E-16));
#1024=DIRECTION('center_axis',(0.,-1.,0.));
#1025=DIRECTION('ref_axis',(1.,0.,1.22464679914735E-16));
#1026=DIRECTION('',(-1.,0.,-1.22464679914735E-16));
#1027=DIRECTION('',(-1.22464679914735E-16,0.,1.));
#1028=DIRECTION('',(-1.,0.,-1.22464679914735E-16));
#1029=DIRECTION('center_axis',(0.,1.,0.));
#1030=DIRECTION('ref_axis',(-0.707106781186548,0.,0.707106781186547));
#1031=DIRECTION('',(1.,0.,1.22464679914735E-16));
#1032=DIRECTION('',(-1.22464679914735E-16,0.,1.));
#1033=DIRECTION('',(1.,0.,1.22464679914735E-16));
#1034=DIRECTION('',(-1.22464679914735E-16,0.,1.));
#1035=DIRECTION('center_axis',(-1.,0.,-1.22464679914735E-16));
#1036=DIRECTION('ref_axis',(0.,-1.,0.));
#1037=DIRECTION('',(0.,1.,0.));
#1038=DIRECTION('',(-1.22464679914735E-16,0.,1.));
#1039=DIRECTION('',(0.,-1.,0.));
#1040=DIRECTION('',(0.,-1.,0.));
#1041=DIRECTION('',(1.22464679914735E-16,0.,-1.));
#1042=DIRECTION('',(0.,1.,0.));
#1043=DIRECTION('center_axis',(0.,-1.,0.));
#1044=DIRECTION('ref_axis',(-1.22464679914735E-16,0.,1.));
#1045=DIRECTION('center_axis',(0.,1.,0.));
#1046=DIRECTION('ref_axis',(-0.707106781186548,0.,0.707106781186547));
#1047=DIRECTION('',(-1.,0.,-1.22464679914735E-16));
#1048=DIRECTION('',(-1.,0.,-1.22464679914735E-16));
#1049=DIRECTION('center_axis',(0.,-1.,0.));
#1050=DIRECTION('ref_axis',(-0.707106781186547,0.,-0.707106781186548));
#1051=DIRECTION('',(0.,1.,0.));
#1052=DIRECTION('',(0.,-1.,0.));
#1053=DIRECTION('center_axis',(1.22464679914735E-16,0.,-1.));
#1054=DIRECTION('ref_axis',(0.,1.,0.));
#1055=DIRECTION('',(0.,1.,0.));
#1056=DIRECTION('',(1.,0.,1.22464679914735E-16));
#1057=DIRECTION('',(0.,-1.,0.));
#1058=DIRECTION('',(1.,0.,1.22464679914735E-16));
#1059=DIRECTION('center_axis',(0.,-1.,0.));
#1060=DIRECTION('ref_axis',(0.707106781186547,0.,0.707106781186548));
#1061=DIRECTION('center_axis',(0.,-1.,0.));
#1062=DIRECTION('ref_axis',(0.707106781186547,0.,0.707106781186548));
#1063=DIRECTION('',(0.,-1.,0.));
#1064=DIRECTION('center_axis',(0.,-1.,0.));
#1065=DIRECTION('ref_axis',(0.707106781186547,0.,0.707106781186548));
#1066=DIRECTION('center_axis',(-1.22464679914735E-16,0.,1.));
#1067=DIRECTION('ref_axis',(0.,-1.,0.));
#1068=DIRECTION('',(1.,0.,1.22464679914735E-16));
#1069=DIRECTION('',(0.,1.,0.));
#1070=DIRECTION('',(-1.,0.,-1.22464679914735E-16));
#1071=DIRECTION('center_axis',(0.,1.,0.));
#1072=DIRECTION('ref_axis',(-1.22464679914735E-16,0.,1.));
#1073=DIRECTION('',(1.22464679914735E-16,0.,-1.));
#1074=DIRECTION('center_axis',(1.,0.,1.22464679914735E-16));
#1075=DIRECTION('ref_axis',(0.,1.,0.));
#1076=DIRECTION('',(0.,-1.,0.));
#1077=DIRECTION('',(0.,1.,0.));
#1078=DIRECTION('',(-1.22464679914735E-16,0.,1.));
#1079=DIRECTION('',(-1.22464679914735E-16,0.,1.));
#1080=DIRECTION('center_axis',(-1.22464679914735E-16,0.,1.));
#1081=DIRECTION('ref_axis',(0.,1.,0.));
#1082=DIRECTION('center_axis',(1.22464679914735E-16,0.,-1.));
#1083=DIRECTION('ref_axis',(0.,-1.,0.));
#1084=DIRECTION('center_axis',(0.,1.,0.));
#1085=DIRECTION('ref_axis',(-1.,0.,-1.22464679914735E-16));
#1086=DIRECTION('',(1.,0.,1.22464679914735E-16));
#1087=DIRECTION('',(-1.,0.,-1.22464679914735E-16));
#1088=DIRECTION('center_axis',(-1.22464679914735E-16,0.,1.));
#1089=DIRECTION('ref_axis',(1.,0.,1.22464679914735E-16));
#1090=DIRECTION('',(1.,0.,1.22464679914735E-16));
#1091=DIRECTION('',(0.,1.,0.));
#1092=DIRECTION('center_axis',(1.,0.,1.22464679914735E-16));
#1093=DIRECTION('ref_axis',(0.,1.,0.));
#1094=DIRECTION('center_axis',(0.,-1.,0.));
#1095=DIRECTION('ref_axis',(1.,0.,1.22464679914735E-16));
#1096=DIRECTION('center_axis',(-1.22464679914735E-16,0.,1.));
#1097=DIRECTION('ref_axis',(1.,0.,1.22464679914735E-16));
#1098=DIRECTION('center_axis',(-1.22464679914735E-16,0.,1.));
#1099=DIRECTION('ref_axis',(-1.,0.,-1.22464679914735E-16));
#1100=DIRECTION('center_axis',(-1.22464679914735E-16,0.,1.));
#1101=DIRECTION('ref_axis',(-1.,0.,-1.22464679914735E-16));
#1102=DIRECTION('center_axis',(-1.22464679914735E-16,0.,1.));
#1103=DIRECTION('ref_axis',(-1.,0.,-1.22464679914735E-16));
#1104=DIRECTION('center_axis',(-1.22464679914735E-16,0.,1.));
#1105=DIRECTION('ref_axis',(-1.,0.,-1.22464679914735E-16));
#1106=DIRECTION('center_axis',(-1.22464679914735E-16,0.,1.));
#1107=DIRECTION('ref_axis',(-1.,0.,-1.22464679914735E-16));
#1108=DIRECTION('',(1.22464679914735E-16,0.,-1.));
#1109=DIRECTION('center_axis',(-1.22464679914735E-16,0.,1.));
#1110=DIRECTION('ref_axis',(-1.,0.,-1.22464679914735E-16));
#1111=DIRECTION('center_axis',(-1.22464679914735E-16,0.,1.));
#1112=DIRECTION('ref_axis',(-1.,0.,-1.22464679914735E-16));
#1113=DIRECTION('center_axis',(-1.22464679914735E-16,0.,1.));
#1114=DIRECTION('ref_axis',(-1.,0.,-1.22464679914735E-16));
#1115=DIRECTION('center_axis',(-1.22464679914735E-16,0.,1.));
#1116=DIRECTION('ref_axis',(-1.,0.,-1.22464679914735E-16));
#1117=DIRECTION('center_axis',(-1.22464679914735E-16,0.,1.));
#1118=DIRECTION('ref_axis',(-1.,0.,-1.22464679914735E-16));
#1119=DIRECTION('center_axis',(-1.22464679914735E-16,0.,1.));
#1120=DIRECTION('ref_axis',(-1.,0.,-1.22464679914735E-16));
#1121=DIRECTION('center_axis',(1.22464679914735E-16,0.,-1.));
#1122=DIRECTION('ref_axis',(-1.,0.,-1.22464679914735E-16));
#1123=DIRECTION('center_axis',(-1.22464679914735E-16,0.,1.));
#1124=DIRECTION('ref_axis',(-1.,0.,-1.22464679914735E-16));
#1125=DIRECTION('',(1.22464679914735E-16,0.,-1.));
#1126=DIRECTION('center_axis',(-1.22464679914735E-16,0.,1.));
#1127=DIRECTION('ref_axis',(-1.,0.,-1.22464679914735E-16));
#1128=DIRECTION('',(1.22464679914735E-16,0.,-1.));
#1129=DIRECTION('center_axis',(-1.22464679914735E-16,0.,1.));
#1130=DIRECTION('ref_axis',(-1.,0.,-1.22464679914735E-16));
#1131=DIRECTION('center_axis',(-1.22464679914735E-16,0.,1.));
#1132=DIRECTION('ref_axis',(-1.,0.,-1.22464679914735E-16));
#1133=DIRECTION('',(1.22464679914735E-16,0.,-1.));
#1134=DIRECTION('center_axis',(-1.22464679914735E-16,0.,1.));
#1135=DIRECTION('ref_axis',(-1.,0.,-1.22464679914735E-16));
#1136=DIRECTION('center_axis',(-1.22464679914735E-16,0.,1.));
#1137=DIRECTION('ref_axis',(-1.,0.,-1.22464679914735E-16));
#1138=DIRECTION('center_axis',(-1.22464679914735E-16,0.,1.));
#1139=DIRECTION('ref_axis',(-1.,0.,-1.22464679914735E-16));
#1140=DIRECTION('center_axis',(-1.22464679914735E-16,0.,1.));
#1141=DIRECTION('ref_axis',(-1.,0.,-1.22464679914735E-16));
#1142=DIRECTION('center_axis',(-1.22464679914735E-16,0.,1.));
#1143=DIRECTION('ref_axis',(-1.,0.,-1.22464679914735E-16));
#1144=DIRECTION('center_axis',(-1.22464679914735E-16,0.,1.));
#1145=DIRECTION('ref_axis',(-1.,0.,-1.22464679914735E-16));
#1146=DIRECTION('center_axis',(1.22464679914735E-16,0.,-1.));
#1147=DIRECTION('ref_axis',(-1.,0.,-1.22464679914735E-16));
#1148=DIRECTION('center_axis',(-1.22464679914735E-16,0.,1.));
#1149=DIRECTION('ref_axis',(-1.,0.,-1.22464679914735E-16));
#1150=DIRECTION('',(1.22464679914735E-16,0.,-1.));
#1151=DIRECTION('center_axis',(-1.22464679914735E-16,0.,1.));
#1152=DIRECTION('ref_axis',(-1.,0.,-1.22464679914735E-16));
#1153=DIRECTION('',(1.22464679914735E-16,0.,-1.));
#1154=DIRECTION('center_axis',(-1.22464679914735E-16,0.,1.));
#1155=DIRECTION('ref_axis',(-1.,0.,-1.22464679914735E-16));
#1156=DIRECTION('center_axis',(-1.22464679914735E-16,0.,1.));
#1157=DIRECTION('ref_axis',(-1.,0.,-1.22464679914735E-16));
#1158=DIRECTION('',(1.22464679914735E-16,0.,-1.));
#1159=DIRECTION('center_axis',(-1.22464679914735E-16,0.,1.));
#1160=DIRECTION('ref_axis',(-1.,0.,-1.22464679914735E-16));
#1161=DIRECTION('center_axis',(-1.22464679914735E-16,0.,1.));
#1162=DIRECTION('ref_axis',(-1.,0.,-1.22464679914735E-16));
#1163=DIRECTION('center_axis',(-1.22464679914735E-16,0.,1.));
#1164=DIRECTION('ref_axis',(-1.,0.,-1.22464679914735E-16));
#1165=DIRECTION('center_axis',(-1.22464679914735E-16,0.,1.));
#1166=DIRECTION('ref_axis',(-1.,0.,-1.22464679914735E-16));
#1167=DIRECTION('center_axis',(-1.22464679914735E-16,0.,1.));
#1168=DIRECTION('ref_axis',(-1.,0.,-1.22464679914735E-16));
#1169=DIRECTION('center_axis',(-1.22464679914735E-16,0.,1.));
#1170=DIRECTION('ref_axis',(-1.,0.,-1.22464679914735E-16));
#1171=DIRECTION('center_axis',(1.22464679914735E-16,0.,-1.));
#1172=DIRECTION('ref_axis',(-1.,0.,-1.22464679914735E-16));
#1173=DIRECTION('center_axis',(-1.22464679914735E-16,0.,1.));
#1174=DIRECTION('ref_axis',(-1.,0.,-1.22464679914735E-16));
#1175=DIRECTION('',(1.22464679914735E-16,0.,-1.));
#1176=DIRECTION('center_axis',(-1.22464679914735E-16,0.,1.));
#1177=DIRECTION('ref_axis',(-1.,0.,-1.22464679914735E-16));
#1178=DIRECTION('',(1.22464679914735E-16,0.,-1.));
#1179=DIRECTION('center_axis',(-1.22464679914735E-16,0.,1.));
#1180=DIRECTION('ref_axis',(-1.,0.,-1.22464679914735E-16));
#1181=DIRECTION('center_axis',(-1.22464679914735E-16,0.,1.));
#1182=DIRECTION('ref_axis',(-1.,0.,-1.22464679914735E-16));
#1183=DIRECTION('',(1.22464679914735E-16,0.,-1.));
#1184=DIRECTION('center_axis',(-1.22464679914735E-16,0.,1.));
#1185=DIRECTION('ref_axis',(-1.,0.,-1.22464679914735E-16));
#1186=CARTESIAN_POINT('',(0.,0.,0.));
#1187=CARTESIAN_POINT('Origin',(147.799994908273,-1585.00002212822,-295.));
#1188=CARTESIAN_POINT('',(147.799994908273,-1565.00002212822,-315.));
#1189=CARTESIAN_POINT('',(127.799994908273,-1565.00002212822,-295.));
#1190=CARTESIAN_POINT('',(147.799994908273,-1565.00002212822,-315.));
#1191=CARTESIAN_POINT('',(147.799994908273,-1585.00002212822,-295.));
#1192=CARTESIAN_POINT('',(147.799994908273,-1585.00002212822,-295.));
#1193=CARTESIAN_POINT('',(127.799994908273,-1565.00002212822,-295.));
#1194=CARTESIAN_POINT('Origin',(773.500010035932,-1565.00002212822,-295.));
#1195=CARTESIAN_POINT('',(753.500010035932,-1565.00002212822,-315.));
#1196=CARTESIAN_POINT('',(753.500010035932,-1585.00002212822,-295.));
#1197=CARTESIAN_POINT('',(753.500010035932,-1565.00002212822,-315.));
#1198=CARTESIAN_POINT('',(773.500010035932,-1565.00002212822,-295.));
#1199=CARTESIAN_POINT('',(773.500010035932,-1565.00002212822,-295.));
#1200=CARTESIAN_POINT('',(753.500010035932,-1585.00002212822,-295.));
#1201=CARTESIAN_POINT('Origin',(147.799994908273,-76.5999964997172,-315.));
#1202=CARTESIAN_POINT('',(147.799994908273,-56.5999964997172,-295.));
#1203=CARTESIAN_POINT('',(127.799994908273,-76.5999964997172,-295.));
#1204=CARTESIAN_POINT('',(147.799994908273,-56.5999964997172,-295.));
#1205=CARTESIAN_POINT('',(147.799994908273,-76.5999964997172,-315.));
#1206=CARTESIAN_POINT('',(147.799994908273,-76.5999964997172,-315.));
#1207=CARTESIAN_POINT('',(127.799994908273,-76.5999964997172,-295.));
#1208=CARTESIAN_POINT('Origin',(753.500010035932,-56.5999964997172,-295.));
#1209=CARTESIAN_POINT('',(753.500010035932,-76.5999964997172,-315.));
#1210=CARTESIAN_POINT('',(773.500010035932,-76.5999964997172,-295.));
#1211=CARTESIAN_POINT('',(753.500010035932,-76.5999964997172,-315.));
#1212=CARTESIAN_POINT('',(753.500010035932,-56.5999964997172,-295.));
#1213=CARTESIAN_POINT('',(753.500010035932,-56.5999964997172,-295.));
#1214=CARTESIAN_POINT('',(773.500010035932,-76.5999964997172,-295.));
#1215=CARTESIAN_POINT('Origin',(612.075006254017,-66.5999964997172,-305.));
#1216=CARTESIAN_POINT('',(612.075006254017,-56.5999964997172,-295.));
#1217=CARTESIAN_POINT('',(612.075006254017,-76.5999964997172,-315.));
#1218=CARTESIAN_POINT('Origin',(763.500010035932,-66.5999964997172,-315.));
#1219=CARTESIAN_POINT('',(753.500010035932,-56.5999964997172,-40.));
#1220=CARTESIAN_POINT('',(773.500010035932,-76.5999964997172,-39.9999999999999));
#1221=CARTESIAN_POINT('',(873.837511348538,-176.937497812323,-39.9999999999999));
#1222=CARTESIAN_POINT('',(773.500010035932,-76.5999964997172,-315.));
#1223=CARTESIAN_POINT('',(753.500010035932,-56.5999964997172,-315.));
#1224=CARTESIAN_POINT('Origin',(763.500010035932,-1202.9000157211,-305.));
#1225=CARTESIAN_POINT('',(773.500010035932,-1202.9000157211,-295.));
#1226=CARTESIAN_POINT('',(753.500010035932,-1202.9000157211,-315.));
#1227=CARTESIAN_POINT('Origin',(137.799994908273,-438.700002906844,-305.));
#1228=CARTESIAN_POINT('',(147.799994908273,-438.700002906844,-315.));
#1229=CARTESIAN_POINT('',(127.799994908273,-438.700002906844,-295.));
#1230=CARTESIAN_POINT('Origin',(137.799994908273,-66.5999964997172,-315.));
#1231=CARTESIAN_POINT('',(127.799994908273,-76.5999964997172,-40.));
#1232=CARTESIAN_POINT('',(147.799994908273,-56.5999964997172,-40.));
#1233=CARTESIAN_POINT('',(27.4624935956672,-176.937497812323,-40.));
#1234=CARTESIAN_POINT('',(147.799994908273,-56.5999964997172,-315.));
#1235=CARTESIAN_POINT('',(127.799994908273,-76.5999964997172,-315.));
#1236=CARTESIAN_POINT('Origin',(763.500010035932,-1575.00002212822,-315.));
#1237=CARTESIAN_POINT('',(773.500010035932,-1565.00002212822,-39.9999999999999));
#1238=CARTESIAN_POINT('',(753.500010035932,-1585.00002212822,-40.));
#1239=CARTESIAN_POINT('',(873.837511348538,-1464.66252081562,-39.9999999999999));
#1240=CARTESIAN_POINT('',(753.500010035932,-1585.00002212822,-315.));
#1241=CARTESIAN_POINT('',(773.500010035932,-1565.00002212822,-315.));
#1242=CARTESIAN_POINT('Origin',(289.224998690188,-1575.00002212822,-305.));
#1243=CARTESIAN_POINT('',(289.224998690188,-1585.00002212822,-295.));
#1244=CARTESIAN_POINT('',(289.224998690188,-1565.00002212822,-315.));
#1245=CARTESIAN_POINT('Origin',(137.799994908273,-1575.00002212822,-315.));
#1246=CARTESIAN_POINT('',(147.799994908273,-1585.00002212822,-40.));
#1247=CARTESIAN_POINT('',(127.799994908273,-1565.00002212822,-40.));
#1248=CARTESIAN_POINT('',(27.4624935956672,-1464.66252081562,-40.));
#1249=CARTESIAN_POINT('',(127.799994908273,-1565.00002212822,-315.));
#1250=CARTESIAN_POINT('',(147.799994908273,-1585.00002212822,-315.));
#1251=CARTESIAN_POINT('Origin',(773.500010035932,-56.5999964997172,-315.));
#1252=CARTESIAN_POINT('',(157.799994908273,-56.5999964997172,-40.));
#1253=CARTESIAN_POINT('Origin',(127.799994908273,-56.5999964997172,-315.));
#1254=CARTESIAN_POINT('',(127.799994908273,-1585.00002212822,-40.));
#1255=CARTESIAN_POINT('Origin',(450.650002472103,-820.800009313971,-315.));
#1256=CARTESIAN_POINT('Origin',(311.799996159971,-179.000002667308,-160.));
#1257=CARTESIAN_POINT('',(326.799996159971,-179.000002667308,-160.));
#1258=CARTESIAN_POINT('Origin',(311.799996159971,-179.000002667308,-160.));
#1259=CARTESIAN_POINT('',(322.811354096825,-179.000002667308,-160.));
#1260=CARTESIAN_POINT('Origin',(311.799996159971,-179.000002667308,-160.));
#1261=CARTESIAN_POINT('Origin',(311.799996159971,-179.000002667308,-175.));
#1262=CARTESIAN_POINT('',(326.799996159971,-179.000002667308,-175.));
#1263=CARTESIAN_POINT('Origin',(311.799996159971,-179.000002667308,-175.));
#1264=CARTESIAN_POINT('',(322.811354096825,-179.000002667308,-175.));
#1265=CARTESIAN_POINT('Origin',(311.799996159971,-179.000002667308,-175.));
#1266=CARTESIAN_POINT('Origin',(311.799996159971,-179.000002667308,-175.));
#1267=CARTESIAN_POINT('',(326.799996159971,-179.000002667308,-175.));
#1268=CARTESIAN_POINT('Origin',(311.799996159971,-179.000002667308,-275.));
#1269=CARTESIAN_POINT('',(322.811354096825,-179.000002667308,-275.));
#1270=CARTESIAN_POINT('',(322.811354096825,-179.000002667308,-275.));
#1271=CARTESIAN_POINT('Origin',(311.799996159971,-179.000002667308,-275.));
#1272=CARTESIAN_POINT('Origin',(157.799994908273,-86.5999964997172,-315.));
#1273=CARTESIAN_POINT('',(743.500010035932,-86.5999964997172,-275.));
#1274=CARTESIAN_POINT('',(157.799994908273,-86.5999964997172,-275.));
#1275=CARTESIAN_POINT('',(304.224998690188,-86.5999964997172,-275.));
#1276=CARTESIAN_POINT('',(743.500010035932,-86.6000041132793,-79.9999878881499));
#1277=CARTESIAN_POINT('',(743.500010035932,-86.5999964997172,-315.));
#1278=CARTESIAN_POINT('',(733.500010035932,-86.5999964997172,-79.9999878881499));
#1279=CARTESIAN_POINT('',(450.650002472103,-86.5999964997172,-79.9999878881499));
#1280=CARTESIAN_POINT('',(733.500010035932,-86.5999964997172,-59.9999878881499));
#1281=CARTESIAN_POINT('Origin',(733.500010035932,-86.5999964997172,-69.9999878881499));
#1282=CARTESIAN_POINT('',(743.500010035932,-86.6000041132793,-59.9999878881499));
#1283=CARTESIAN_POINT('',(450.650002472103,-86.5999964997172,-59.9999878881499));
#1284=CARTESIAN_POINT('',(743.500010035932,-86.5999964997172,-40.));
#1285=CARTESIAN_POINT('',(743.500010035932,-86.5999964997172,-315.));
#1286=CARTESIAN_POINT('',(157.799994908273,-86.5999964997172,-40.));
#1287=CARTESIAN_POINT('',(743.500010035932,-86.5999964997172,-40.));
#1288=CARTESIAN_POINT('',(157.799994908273,-86.5999964997172,-315.));
#1289=CARTESIAN_POINT('Origin',(743.500010035932,-86.5999964997172,-315.));
#1290=CARTESIAN_POINT('',(743.500010035932,-1555.00002212822,-275.));
#1291=CARTESIAN_POINT('',(743.500010035932,-453.700002906844,-275.));
#1292=CARTESIAN_POINT('',(743.500010035932,-1555.00002212822,-40.));
#1293=CARTESIAN_POINT('',(743.500010035932,-1555.00002212822,-315.));
#1294=CARTESIAN_POINT('',(743.500010035932,-56.5999964997172,-40.));
#1295=CARTESIAN_POINT('',(743.500010035932,-1554.97998829153,-59.9999878881499));
#1296=CARTESIAN_POINT('',(743.500010035932,-820.789992395623,-59.9999878881499));
#1297=CARTESIAN_POINT('',(743.500010035932,-1554.97998829153,-79.9999878881499));
#1298=CARTESIAN_POINT('',(743.500010035932,-1554.97998829153,-197.499993944075));
#1299=CARTESIAN_POINT('',(743.500010035932,-86.6000003064983,-79.9999878881499));
#1300=CARTESIAN_POINT('Origin',(743.500010035932,-1554.97998829153,-79.9999878881499));
#1301=CARTESIAN_POINT('',(733.500010035932,-1554.97998829153,-79.9999878881499));
#1302=CARTESIAN_POINT('',(733.500010035932,-1554.97998829153,-59.9999878881499));
#1303=CARTESIAN_POINT('Origin',(733.500010035932,-1554.97998829153,-69.9999878881499));
#1304=CARTESIAN_POINT('',(743.500010035932,-1554.97998829153,-79.9999878881499));
#1305=CARTESIAN_POINT('',(743.500010035932,-1554.97998829153,-59.9999878881499));
#1306=CARTESIAN_POINT('Origin',(733.500010035932,-453.695000157842,-69.9999878881499));
#1307=CARTESIAN_POINT('',(733.500010035932,-1187.88499224697,-59.9999878881499));
#1308=CARTESIAN_POINT('',(733.500010035932,-453.695000157842,-79.9999878881499));
#1309=CARTESIAN_POINT('Origin',(157.799994908273,-1555.00002212822,-80.));
#1310=CARTESIAN_POINT('',(167.799994908273,-1555.00002212822,-80.));
#1311=CARTESIAN_POINT('',(167.799994908273,-86.6000221282243,-80.));
#1312=CARTESIAN_POINT('',(167.799994908273,-1187.90002212822,-80.));
#1313=CARTESIAN_POINT('',(157.799994908273,-1555.00002212822,-80.));
#1314=CARTESIAN_POINT('',(450.650002472103,-1555.00002212822,-80.));
#1315=CARTESIAN_POINT('',(157.799994908273,-86.6000221282243,-80.));
#1316=CARTESIAN_POINT('',(157.799994908273,-1555.00002212822,-80.));
#1317=CARTESIAN_POINT('',(157.799994908273,-86.6000221282243,-80.));
#1318=CARTESIAN_POINT('Origin',(167.799994908273,-453.700022128224,-70.));
#1319=CARTESIAN_POINT('',(167.799994908273,-86.6000221282243,-60.));
#1320=CARTESIAN_POINT('Origin',(167.799994908273,-86.6000221282243,-70.));
#1321=CARTESIAN_POINT('',(167.799994908273,-1555.00002212822,-60.));
#1322=CARTESIAN_POINT('',(167.799994908273,-453.700022128224,-60.));
#1323=CARTESIAN_POINT('Origin',(167.799994908273,-1555.00002212822,-70.));
#1324=CARTESIAN_POINT('Origin',(157.799994908273,-86.6000221282243,-60.));
#1325=CARTESIAN_POINT('',(157.799994908273,-86.6000221282243,-60.));
#1326=CARTESIAN_POINT('',(157.799994908273,-86.6000221282243,-60.));
#1327=CARTESIAN_POINT('',(157.799994908273,-1555.00002212822,-60.));
#1328=CARTESIAN_POINT('',(157.799994908273,-820.800022128224,-60.));
#1329=CARTESIAN_POINT('',(450.650002472103,-1555.00002212822,-60.));
#1330=CARTESIAN_POINT('Origin',(157.799994908273,-86.6000221282243,-80.));
#1331=CARTESIAN_POINT('',(157.799994908273,-86.6000221282243,-197.5));
#1332=CARTESIAN_POINT('Origin',(157.799994908273,-1555.00002212822,-315.));
#1333=CARTESIAN_POINT('',(157.799994908273,-1555.00002212822,-275.));
#1334=CARTESIAN_POINT('',(157.799994908273,-1187.9000157211,-275.));
#1335=CARTESIAN_POINT('',(157.799994908273,-1555.00002212822,-40.));
#1336=CARTESIAN_POINT('',(157.799994908273,-1555.00002212822,-40.));
#1337=CARTESIAN_POINT('',(157.799994908273,-1555.00002212822,-315.));
#1338=CARTESIAN_POINT('',(157.799994908273,-1555.00002212822,-315.));
#1339=CARTESIAN_POINT('Origin',(743.500010035932,-1554.97998829153,-59.9999878881499));
#1340=CARTESIAN_POINT('Origin',(743.500010035932,-86.6000041132793,-79.9999878881499));
#1341=CARTESIAN_POINT('Origin',(743.500010035932,-1555.00002212822,-315.));
#1342=CARTESIAN_POINT('',(597.075006254017,-1555.00002212822,-275.));
#1343=CARTESIAN_POINT('',(127.799994908273,-1555.00002212822,-40.));
#1344=CARTESIAN_POINT('Origin',(450.650002472103,-820.800009313971,-40.));
#1345=CARTESIAN_POINT('',(743.500010035932,-1585.00002212822,-40.));
#1346=CARTESIAN_POINT('',(773.500010035932,-1585.00002212822,-39.9999999999999));
#1347=CARTESIAN_POINT('Origin',(773.500010035932,-1585.00002212822,-315.));
#1348=CARTESIAN_POINT('Origin',(127.799994908273,-1585.00002212822,-315.));
#1349=CARTESIAN_POINT('Origin',(450.650002472103,-820.800009313971,-275.));
#1350=CARTESIAN_POINT('',(654.31135903656,-1446.50002155453,-275.));
#1351=CARTESIAN_POINT('Origin',(643.300001099706,-1446.50002155453,-275.));
#1352=CARTESIAN_POINT('',(660.708807039352,-179.000002667308,-275.));
#1353=CARTESIAN_POINT('Origin',(649.800001196563,-179.000002667308,-275.));
#1354=CARTESIAN_POINT('',(330.345357453505,-1445.00002153218,-275.));
#1355=CARTESIAN_POINT('Origin',(319.299996271729,-1445.00002153218,-275.));
#1356=CARTESIAN_POINT('Origin',(311.799996159971,-179.000002667308,-275.));
#1357=CARTESIAN_POINT('',(322.811354096825,-179.000002667308,-75.));
#1358=CARTESIAN_POINT('Origin',(311.799996159971,-179.000002667308,-75.));
#1359=CARTESIAN_POINT('',(322.811354096825,-179.000002667308,-275.));
#1360=CARTESIAN_POINT('Origin',(311.799996159971,-179.000002667308,-75.));
#1361=CARTESIAN_POINT('Origin',(649.800001196563,-179.000002667308,-160.));
#1362=CARTESIAN_POINT('',(664.800001196563,-179.000002667308,-160.));
#1363=CARTESIAN_POINT('Origin',(649.800001196563,-179.000002667308,-160.));
#1364=CARTESIAN_POINT('',(660.708807039352,-179.000002667308,-160.));
#1365=CARTESIAN_POINT('Origin',(649.800001196563,-179.000002667308,-160.));
#1366=CARTESIAN_POINT('Origin',(649.800001196563,-179.000002667308,-175.));
#1367=CARTESIAN_POINT('',(664.800001196563,-179.000002667308,-175.));
#1368=CARTESIAN_POINT('Origin',(649.800001196563,-179.000002667308,-175.));
#1369=CARTESIAN_POINT('',(660.708807039352,-179.000002667308,-175.));
#1370=CARTESIAN_POINT('Origin',(649.800001196563,-179.000002667308,-175.));
#1371=CARTESIAN_POINT('Origin',(649.800001196563,-179.000002667308,-175.));
#1372=CARTESIAN_POINT('',(664.800001196563,-179.000002667308,-175.));
#1373=CARTESIAN_POINT('Origin',(649.800001196563,-179.000002667308,-275.));
#1374=CARTESIAN_POINT('',(660.708807039352,-179.000002667308,-275.));
#1375=CARTESIAN_POINT('Origin',(649.800001196563,-179.000002667308,-275.));
#1376=CARTESIAN_POINT('',(660.708807039352,-179.000002667308,-75.));
#1377=CARTESIAN_POINT('Origin',(649.800001196563,-179.000002667308,-75.));
#1378=CARTESIAN_POINT('',(660.708807039352,-179.000002667308,-275.));
#1379=CARTESIAN_POINT('Origin',(649.800001196563,-179.000002667308,-75.));
#1380=CARTESIAN_POINT('Origin',(319.299996271729,-1445.00002153218,-160.));
#1381=CARTESIAN_POINT('',(334.299996271729,-1445.00002153218,-160.));
#1382=CARTESIAN_POINT('Origin',(319.299996271729,-1445.00002153218,-160.));
#1383=CARTESIAN_POINT('',(330.345357453505,-1445.00002153218,-160.));
#1384=CARTESIAN_POINT('Origin',(319.299996271729,-1445.00002153218,-160.));
#1385=CARTESIAN_POINT('Origin',(319.299996271729,-1445.00002153218,-175.));
#1386=CARTESIAN_POINT('',(334.299996271729,-1445.00002153218,-175.));
#1387=CARTESIAN_POINT('Origin',(319.299996271729,-1445.00002153218,-175.));
#1388=CARTESIAN_POINT('',(330.345357453505,-1445.00002153218,-175.));
#1389=CARTESIAN_POINT('Origin',(319.299996271729,-1445.00002153218,-175.));
#1390=CARTESIAN_POINT('Origin',(319.299996271729,-1445.00002153218,-175.));
#1391=CARTESIAN_POINT('',(334.299996271729,-1445.00002153218,-175.));
#1392=CARTESIAN_POINT('Origin',(319.299996271729,-1445.00002153218,-275.));
#1393=CARTESIAN_POINT('',(330.345357453505,-1445.00002153218,-275.));
#1394=CARTESIAN_POINT('Origin',(319.299996271729,-1445.00002153218,-275.));
#1395=CARTESIAN_POINT('',(330.345357453505,-1445.00002153218,-75.));
#1396=CARTESIAN_POINT('Origin',(319.299996271729,-1445.00002153218,-75.));
#1397=CARTESIAN_POINT('',(330.345357453505,-1445.00002153218,-275.));
#1398=CARTESIAN_POINT('Origin',(319.299996271729,-1445.00002153218,-75.));
#1399=CARTESIAN_POINT('Origin',(643.300001099706,-1446.50002155453,-160.));
#1400=CARTESIAN_POINT('',(658.300001099706,-1446.50002155453,-160.));
#1401=CARTESIAN_POINT('Origin',(643.300001099706,-1446.50002155453,-160.));
#1402=CARTESIAN_POINT('',(654.31135903656,-1446.50002155453,-160.));
#1403=CARTESIAN_POINT('Origin',(643.300001099706,-1446.50002155453,-160.));
#1404=CARTESIAN_POINT('Origin',(643.300001099706,-1446.50002155453,-175.));
#1405=CARTESIAN_POINT('',(658.300001099706,-1446.50002155453,-175.));
#1406=CARTESIAN_POINT('Origin',(643.300001099706,-1446.50002155453,-175.));
#1407=CARTESIAN_POINT('',(654.31135903656,-1446.50002155453,-175.));
#1408=CARTESIAN_POINT('Origin',(643.300001099706,-1446.50002155453,-175.));
#1409=CARTESIAN_POINT('Origin',(643.300001099706,-1446.50002155453,-175.));
#1410=CARTESIAN_POINT('',(658.300001099706,-1446.50002155453,-175.));
#1411=CARTESIAN_POINT('Origin',(643.300001099706,-1446.50002155453,-275.));
#1412=CARTESIAN_POINT('',(654.31135903656,-1446.50002155453,-275.));
#1413=CARTESIAN_POINT('Origin',(643.300001099706,-1446.50002155453,-275.));
#1414=CARTESIAN_POINT('',(654.31135903656,-1446.50002155453,-75.));
#1415=CARTESIAN_POINT('Origin',(643.300001099706,-1446.50002155453,-75.));
#1416=CARTESIAN_POINT('',(654.31135903656,-1446.50002155453,-275.));
#1417=CARTESIAN_POINT('Origin',(643.300001099706,-1446.50002155453,-75.));
#1418=UNCERTAINTY_MEASURE_WITH_UNIT(LENGTH_MEASURE(0.01),#1422,
'DISTANCE_ACCURACY_VALUE',
'Maximum model space distance between geometric entities at asserted c
onnectivities');
#1419=UNCERTAINTY_MEASURE_WITH_UNIT(LENGTH_MEASURE(0.01),#1422,
'DISTANCE_ACCURACY_VALUE',
'Maximum model space distance between geometric entities at asserted c
onnectivities');
#1420=(
GEOMETRIC_REPRESENTATION_CONTEXT(3)
GLOBAL_UNCERTAINTY_ASSIGNED_CONTEXT((#1418))
GLOBAL_UNIT_ASSIGNED_CONTEXT((#1422,#1424,#1425))
REPRESENTATION_CONTEXT('','3D')
);
#1421=(
GEOMETRIC_REPRESENTATION_CONTEXT(3)
GLOBAL_UNCERTAINTY_ASSIGNED_CONTEXT((#1419))
GLOBAL_UNIT_ASSIGNED_CONTEXT((#1422,#1424,#1425))
REPRESENTATION_CONTEXT('','3D')
);
#1422=(
LENGTH_UNIT()
NAMED_UNIT(*)
SI_UNIT(.MILLI.,.METRE.)
);
#1423=(
LENGTH_UNIT()
NAMED_UNIT(*)
SI_UNIT($,.METRE.)
);
#1424=(
NAMED_UNIT(*)
PLANE_ANGLE_UNIT()
SI_UNIT($,.RADIAN.)
);
#1425=(
NAMED_UNIT(*)
SI_UNIT($,.STERADIAN.)
SOLID_ANGLE_UNIT()
);
#1426=SHAPE_DEFINITION_REPRESENTATION(#1427,#1428);
#1427=PRODUCT_DEFINITION_SHAPE('',$,#1430);
#1428=SHAPE_REPRESENTATION('',(#854),#1420);
#1429=PRODUCT_DEFINITION_CONTEXT('part definition',#1434,'design');
#1430=PRODUCT_DEFINITION('assemble','assemble v2',#1431,#1429);
#1431=PRODUCT_DEFINITION_FORMATION('',$,#1436);
#1432=PRODUCT_RELATED_PRODUCT_CATEGORY('assemble v2','assemble v2',(#1436));
#1433=APPLICATION_PROTOCOL_DEFINITION('international standard',
'automotive_design',2009,#1434);
#1434=APPLICATION_CONTEXT(
'Core Data for Automotive Mechanical Design Process');
#1435=PRODUCT_CONTEXT('part definition',#1434,'mechanical');
#1436=PRODUCT('assemble','assemble v2',$,(#1435));
#1437=PRESENTATION_STYLE_ASSIGNMENT((#1438));
#1438=SURFACE_STYLE_USAGE(.BOTH.,#1439);
#1439=SURFACE_SIDE_STYLE('',(#1440));
#1440=SURFACE_STYLE_FILL_AREA(#1441);
#1441=FILL_AREA_STYLE('Steel - Satin',(#1442));
#1442=FILL_AREA_STYLE_COLOUR('Steel - Satin',#1443);
#1443=COLOUR_RGB('Steel - Satin',0.627450980392157,0.627450980392157,0.627450980392157);
ENDSEC;
END-ISO-10303-21;
