ISO-10303-21;
HEADER;
/* Generated by software containing ST-Developer
 * from STEP Tools, Inc. (www.steptools.com) 
 */

FILE_DESCRIPTION(
/* description */ (''),
/* implementation_level */ '2;1');

FILE_NAME(
/* name */ 'top.step',
/* time_stamp */ '2026-05-25T21:50:52+02:00',
/* author */ (''),
/* organization */ (''),
/* preprocessor_version */ 'ST-DEVELOPER v20.1',
/* originating_system */ 'Autodesk Translation Framework v15.8.0.0',
/* authorisation */ '');

FILE_SCHEMA (('AUTOMOTIVE_DESIGN { 1 0 10303 214 3 1 1 }'));
ENDSEC;

DATA;
#10=MECHANICAL_DESIGN_GEOMETRIC_PRESENTATION_REPRESENTATION('',(#13),#1355);
#11=SHAPE_REPRESENTATION_RELATIONSHIP('SRR','None',#1362,#12);
#12=ADVANCED_BREP_SHAPE_REPRESENTATION('',(#14),#1354);
#13=STYLED_ITEM('',(#1371),#14);
#14=MANIFOLD_SOLID_BREP('Body560',#802);
#15=FACE_BOUND('',#307,.T.);
#16=FACE_BOUND('',#323,.T.);
#17=FACE_BOUND('',#334,.T.);
#18=FACE_BOUND('',#335,.T.);
#19=PLANE('',#823);
#20=PLANE('',#824);
#21=PLANE('',#825);
#22=PLANE('',#826);
#23=PLANE('',#827);
#24=PLANE('',#828);
#25=PLANE('',#829);
#26=PLANE('',#830);
#27=PLANE('',#831);
#28=PLANE('',#832);
#29=PLANE('',#833);
#30=PLANE('',#834);
#31=PLANE('',#835);
#32=PLANE('',#836);
#33=PLANE('',#837);
#34=PLANE('',#838);
#35=PLANE('',#844);
#36=PLANE('',#845);
#37=PLANE('',#854);
#38=PLANE('',#855);
#39=PLANE('',#856);
#40=PLANE('',#857);
#41=PLANE('',#858);
#42=PLANE('',#859);
#43=PLANE('',#860);
#44=PLANE('',#861);
#45=PLANE('',#862);
#46=PLANE('',#863);
#47=PLANE('',#864);
#48=PLANE('',#865);
#49=PLANE('',#866);
#50=PLANE('',#867);
#51=PLANE('',#868);
#52=PLANE('',#869);
#53=PLANE('',#870);
#54=ELLIPSE('',#821,254.558441227157,180.);
#55=ELLIPSE('',#822,254.558441227157,180.);
#56=ELLIPSE('',#840,254.558441227157,180.);
#57=ELLIPSE('',#841,254.558441227157,180.);
#58=ELLIPSE('',#847,28.2842712474619,20.);
#59=ELLIPSE('',#848,28.2842712474619,20.);
#60=ELLIPSE('',#850,28.2842712474619,20.);
#61=ELLIPSE('',#852,28.2842712474619,20.);
#62=LINE('',#1146,#157);
#63=LINE('',#1150,#158);
#64=LINE('',#1155,#159);
#65=LINE('',#1157,#160);
#66=LINE('',#1159,#161);
#67=LINE('',#1160,#162);
#68=LINE('',#1162,#163);
#69=LINE('',#1163,#164);
#70=LINE('',#1166,#165);
#71=LINE('',#1168,#166);
#72=LINE('',#1169,#167);
#73=LINE('',#1173,#168);
#74=LINE('',#1174,#169);
#75=LINE('',#1175,#170);
#76=LINE('',#1178,#171);
#77=LINE('',#1180,#172);
#78=LINE('',#1181,#173);
#79=LINE('',#1185,#174);
#80=LINE('',#1186,#175);
#81=LINE('',#1187,#176);
#82=LINE('',#1190,#177);
#83=LINE('',#1192,#178);
#84=LINE('',#1193,#179);
#85=LINE('',#1197,#180);
#86=LINE('',#1198,#181);
#87=LINE('',#1199,#182);
#88=LINE('',#1201,#183);
#89=LINE('',#1204,#184);
#90=LINE('',#1206,#185);
#91=LINE('',#1207,#186);
#92=LINE('',#1211,#187);
#93=LINE('',#1212,#188);
#94=LINE('',#1213,#189);
#95=LINE('',#1215,#190);
#96=LINE('',#1217,#191);
#97=LINE('',#1219,#192);
#98=LINE('',#1221,#193);
#99=LINE('',#1223,#194);
#100=LINE('',#1225,#195);
#101=LINE('',#1226,#196);
#102=LINE('',#1229,#197);
#103=LINE('',#1231,#198);
#104=LINE('',#1233,#199);
#105=LINE('',#1234,#200);
#106=LINE('',#1239,#201);
#107=LINE('',#1242,#202);
#108=LINE('',#1244,#203);
#109=LINE('',#1250,#204);
#110=LINE('',#1256,#205);
#111=LINE('',#1259,#206);
#112=LINE('',#1262,#207);
#113=LINE('',#1266,#208);
#114=LINE('',#1268,#209);
#115=LINE('',#1270,#210);
#116=LINE('',#1271,#211);
#117=LINE('',#1275,#212);
#118=LINE('',#1277,#213);
#119=LINE('',#1279,#214);
#120=LINE('',#1280,#215);
#121=LINE('',#1283,#216);
#122=LINE('',#1285,#217);
#123=LINE('',#1286,#218);
#124=LINE('',#1289,#219);
#125=LINE('',#1290,#220);
#126=LINE('',#1292,#221);
#127=LINE('',#1294,#222);
#128=LINE('',#1296,#223);
#129=LINE('',#1298,#224);
#130=LINE('',#1300,#225);
#131=LINE('',#1302,#226);
#132=LINE('',#1303,#227);
#133=LINE('',#1305,#228);
#134=LINE('',#1307,#229);
#135=LINE('',#1308,#230);
#136=LINE('',#1311,#231);
#137=LINE('',#1312,#232);
#138=LINE('',#1315,#233);
#139=LINE('',#1316,#234);
#140=LINE('',#1320,#235);
#141=LINE('',#1321,#236);
#142=LINE('',#1322,#237);
#143=LINE('',#1325,#238);
#144=LINE('',#1326,#239);
#145=LINE('',#1329,#240);
#146=LINE('',#1331,#241);
#147=LINE('',#1332,#242);
#148=LINE('',#1335,#243);
#149=LINE('',#1336,#244);
#150=LINE('',#1338,#245);
#151=LINE('',#1341,#246);
#152=LINE('',#1342,#247);
#153=LINE('',#1344,#248);
#154=LINE('',#1346,#249);
#155=LINE('',#1348,#250);
#156=LINE('',#1350,#251);
#157=VECTOR('',#883,180.);
#158=VECTOR('',#886,10.);
#159=VECTOR('',#891,10.);
#160=VECTOR('',#892,10.);
#161=VECTOR('',#893,10.);
#162=VECTOR('',#894,10.);
#163=VECTOR('',#895,180.);
#164=VECTOR('',#896,180.);
#165=VECTOR('',#899,10.);
#166=VECTOR('',#900,10.);
#167=VECTOR('',#901,10.);
#168=VECTOR('',#904,10.);
#169=VECTOR('',#905,10.);
#170=VECTOR('',#906,10.);
#171=VECTOR('',#909,10.);
#172=VECTOR('',#910,10.);
#173=VECTOR('',#911,10.);
#174=VECTOR('',#914,10.);
#175=VECTOR('',#915,10.);
#176=VECTOR('',#916,10.);
#177=VECTOR('',#919,10.);
#178=VECTOR('',#920,10.);
#179=VECTOR('',#921,10.);
#180=VECTOR('',#924,10.);
#181=VECTOR('',#925,10.);
#182=VECTOR('',#926,10.);
#183=VECTOR('',#929,10.);
#184=VECTOR('',#932,10.);
#185=VECTOR('',#933,10.);
#186=VECTOR('',#934,10.);
#187=VECTOR('',#937,10.);
#188=VECTOR('',#938,10.);
#189=VECTOR('',#939,10.);
#190=VECTOR('',#942,10.);
#191=VECTOR('',#945,10.);
#192=VECTOR('',#948,10.);
#193=VECTOR('',#951,10.);
#194=VECTOR('',#954,10.);
#195=VECTOR('',#957,10.);
#196=VECTOR('',#958,10.);
#197=VECTOR('',#959,10.);
#198=VECTOR('',#960,10.);
#199=VECTOR('',#961,10.);
#200=VECTOR('',#962,10.);
#201=VECTOR('',#967,10.);
#202=VECTOR('',#972,10.);
#203=VECTOR('',#975,10.);
#204=VECTOR('',#982,10.);
#205=VECTOR('',#991,10.);
#206=VECTOR('',#994,10.);
#207=VECTOR('',#999,10.);
#208=VECTOR('',#1002,10.);
#209=VECTOR('',#1003,10.);
#210=VECTOR('',#1004,10.);
#211=VECTOR('',#1005,10.);
#212=VECTOR('',#1008,10.);
#213=VECTOR('',#1009,10.);
#214=VECTOR('',#1010,10.);
#215=VECTOR('',#1011,10.);
#216=VECTOR('',#1014,10.);
#217=VECTOR('',#1015,10.);
#218=VECTOR('',#1016,10.);
#219=VECTOR('',#1019,10.);
#220=VECTOR('',#1020,10.);
#221=VECTOR('',#1021,10.);
#222=VECTOR('',#1022,10.);
#223=VECTOR('',#1023,10.);
#224=VECTOR('',#1024,10.);
#225=VECTOR('',#1025,10.);
#226=VECTOR('',#1026,10.);
#227=VECTOR('',#1027,10.);
#228=VECTOR('',#1028,10.);
#229=VECTOR('',#1029,10.);
#230=VECTOR('',#1030,10.);
#231=VECTOR('',#1033,10.);
#232=VECTOR('',#1034,10.);
#233=VECTOR('',#1037,10.);
#234=VECTOR('',#1038,10.);
#235=VECTOR('',#1041,10.);
#236=VECTOR('',#1042,10.);
#237=VECTOR('',#1043,10.);
#238=VECTOR('',#1046,10.);
#239=VECTOR('',#1047,10.);
#240=VECTOR('',#1050,10.);
#241=VECTOR('',#1051,10.);
#242=VECTOR('',#1052,10.);
#243=VECTOR('',#1055,10.);
#244=VECTOR('',#1056,10.);
#245=VECTOR('',#1059,10.);
#246=VECTOR('',#1062,10.);
#247=VECTOR('',#1063,10.);
#248=VECTOR('',#1066,10.);
#249=VECTOR('',#1069,10.);
#250=VECTOR('',#1072,10.);
#251=VECTOR('',#1075,10.);
#252=CYLINDRICAL_SURFACE('',#820,180.);
#253=CYLINDRICAL_SURFACE('',#839,180.);
#254=CYLINDRICAL_SURFACE('',#842,180.);
#255=CYLINDRICAL_SURFACE('',#843,180.);
#256=CYLINDRICAL_SURFACE('',#846,20.);
#257=CYLINDRICAL_SURFACE('',#849,20.);
#258=CYLINDRICAL_SURFACE('',#851,20.);
#259=CYLINDRICAL_SURFACE('',#853,20.);
#260=FACE_OUTER_BOUND('',#304,.T.);
#261=FACE_OUTER_BOUND('',#305,.T.);
#262=FACE_OUTER_BOUND('',#306,.T.);
#263=FACE_OUTER_BOUND('',#308,.T.);
#264=FACE_OUTER_BOUND('',#309,.T.);
#265=FACE_OUTER_BOUND('',#310,.T.);
#266=FACE_OUTER_BOUND('',#311,.T.);
#267=FACE_OUTER_BOUND('',#312,.T.);
#268=FACE_OUTER_BOUND('',#313,.T.);
#269=FACE_OUTER_BOUND('',#314,.T.);
#270=FACE_OUTER_BOUND('',#315,.T.);
#271=FACE_OUTER_BOUND('',#316,.T.);
#272=FACE_OUTER_BOUND('',#317,.T.);
#273=FACE_OUTER_BOUND('',#318,.T.);
#274=FACE_OUTER_BOUND('',#319,.T.);
#275=FACE_OUTER_BOUND('',#320,.T.);
#276=FACE_OUTER_BOUND('',#321,.T.);
#277=FACE_OUTER_BOUND('',#322,.T.);
#278=FACE_OUTER_BOUND('',#324,.T.);
#279=FACE_OUTER_BOUND('',#325,.T.);
#280=FACE_OUTER_BOUND('',#326,.T.);
#281=FACE_OUTER_BOUND('',#327,.T.);
#282=FACE_OUTER_BOUND('',#328,.T.);
#283=FACE_OUTER_BOUND('',#329,.T.);
#284=FACE_OUTER_BOUND('',#330,.T.);
#285=FACE_OUTER_BOUND('',#331,.T.);
#286=FACE_OUTER_BOUND('',#332,.T.);
#287=FACE_OUTER_BOUND('',#333,.T.);
#288=FACE_OUTER_BOUND('',#336,.T.);
#289=FACE_OUTER_BOUND('',#337,.T.);
#290=FACE_OUTER_BOUND('',#338,.T.);
#291=FACE_OUTER_BOUND('',#339,.T.);
#292=FACE_OUTER_BOUND('',#340,.T.);
#293=FACE_OUTER_BOUND('',#341,.T.);
#294=FACE_OUTER_BOUND('',#342,.T.);
#295=FACE_OUTER_BOUND('',#343,.T.);
#296=FACE_OUTER_BOUND('',#344,.T.);
#297=FACE_OUTER_BOUND('',#345,.T.);
#298=FACE_OUTER_BOUND('',#346,.T.);
#299=FACE_OUTER_BOUND('',#347,.T.);
#300=FACE_OUTER_BOUND('',#348,.T.);
#301=FACE_OUTER_BOUND('',#349,.T.);
#302=FACE_OUTER_BOUND('',#350,.T.);
#303=FACE_OUTER_BOUND('',#351,.T.);
#304=EDGE_LOOP('',(#537,#538,#539,#540,#541,#542,#543,#544));
#305=EDGE_LOOP('',(#545,#546,#547,#548,#549));
#306=EDGE_LOOP('',(#550,#551,#552,#553));
#307=EDGE_LOOP('',(#554,#555,#556,#557,#558));
#308=EDGE_LOOP('',(#559,#560,#561));
#309=EDGE_LOOP('',(#562,#563,#564,#565));
#310=EDGE_LOOP('',(#566,#567,#568));
#311=EDGE_LOOP('',(#569,#570,#571,#572));
#312=EDGE_LOOP('',(#573,#574,#575));
#313=EDGE_LOOP('',(#576,#577,#578,#579));
#314=EDGE_LOOP('',(#580,#581,#582,#583));
#315=EDGE_LOOP('',(#584,#585,#586));
#316=EDGE_LOOP('',(#587,#588,#589,#590));
#317=EDGE_LOOP('',(#591,#592,#593,#594));
#318=EDGE_LOOP('',(#595,#596,#597,#598));
#319=EDGE_LOOP('',(#599,#600,#601,#602));
#320=EDGE_LOOP('',(#603,#604,#605,#606));
#321=EDGE_LOOP('',(#607,#608,#609,#610));
#322=EDGE_LOOP('',(#611,#612,#613,#614,#615,#616,#617,#618));
#323=EDGE_LOOP('',(#619,#620,#621,#622));
#324=EDGE_LOOP('',(#623,#624,#625,#626,#627));
#325=EDGE_LOOP('',(#628,#629,#630,#631));
#326=EDGE_LOOP('',(#632,#633,#634,#635));
#327=EDGE_LOOP('',(#636,#637,#638,#639));
#328=EDGE_LOOP('',(#640,#641,#642,#643));
#329=EDGE_LOOP('',(#644,#645,#646,#647));
#330=EDGE_LOOP('',(#648,#649,#650,#651));
#331=EDGE_LOOP('',(#652,#653,#654,#655));
#332=EDGE_LOOP('',(#656,#657,#658,#659));
#333=EDGE_LOOP('',(#660,#661,#662,#663));
#334=EDGE_LOOP('',(#664));
#335=EDGE_LOOP('',(#665,#666,#667,#668));
#336=EDGE_LOOP('',(#669,#670,#671,#672));
#337=EDGE_LOOP('',(#673,#674,#675,#676));
#338=EDGE_LOOP('',(#677,#678,#679,#680,#681,#682,#683,#684,#685,#686,#687,
#688,#689,#690,#691,#692));
#339=EDGE_LOOP('',(#693,#694,#695,#696));
#340=EDGE_LOOP('',(#697,#698,#699,#700));
#341=EDGE_LOOP('',(#701,#702,#703,#704));
#342=EDGE_LOOP('',(#705,#706,#707,#708));
#343=EDGE_LOOP('',(#709,#710,#711,#712));
#344=EDGE_LOOP('',(#713,#714,#715,#716));
#345=EDGE_LOOP('',(#717,#718,#719,#720));
#346=EDGE_LOOP('',(#721,#722,#723,#724));
#347=EDGE_LOOP('',(#725,#726,#727,#728));
#348=EDGE_LOOP('',(#729,#730,#731,#732));
#349=EDGE_LOOP('',(#733,#734,#735,#736));
#350=EDGE_LOOP('',(#737,#738,#739,#740,#741,#742,#743,#744,#745,#746,#747,
#748,#749,#750,#751,#752));
#351=EDGE_LOOP('',(#753,#754,#755,#756));
#352=B_SPLINE_CURVE_WITH_KNOTS('',3,(#1113,#1114,#1115,#1116,#1117,#1118),
 .UNSPECIFIED.,.F.,.F.,(4,2,4),(-0.00895564853312409,0.,1.54649548778785),
 .UNSPECIFIED.);
#353=B_SPLINE_CURVE_WITH_KNOTS('',3,(#1120,#1121,#1122,#1123,#1124,#1125,
#1126,#1127,#1128,#1129,#1130,#1131,#1132,#1133,#1134,#1135),
 .UNSPECIFIED.,.F.,.F.,(4,2,2,2,2,2,2,4),(1.7896135996361,9.78581120101185,
15.314878808354,19.3813063697177,23.2919909392868,28.1487079385361,36.6086364562154,
38.1214856535256),.UNSPECIFIED.);
#354=B_SPLINE_CURVE_WITH_KNOTS('',3,(#1137,#1138,#1139,#1140,#1141,#1142),
 .UNSPECIFIED.,.F.,.F.,(4,2,4),(4.93660357534741,6.5956901350674,6.60456958381746),
 .UNSPECIFIED.);
#355=CIRCLE('',#816,47.0026601996183);
#356=CIRCLE('',#817,200.);
#357=CIRCLE('',#818,189.831228770475);
#358=CIRCLE('',#819,189.831228770475);
#359=VERTEX_POINT('',#1106);
#360=VERTEX_POINT('',#1108);
#361=VERTEX_POINT('',#1110);
#362=VERTEX_POINT('',#1112);
#363=VERTEX_POINT('',#1119);
#364=VERTEX_POINT('',#1136);
#365=VERTEX_POINT('',#1145);
#366=VERTEX_POINT('',#1147);
#367=VERTEX_POINT('',#1149);
#368=VERTEX_POINT('',#1153);
#369=VERTEX_POINT('',#1154);
#370=VERTEX_POINT('',#1156);
#371=VERTEX_POINT('',#1158);
#372=VERTEX_POINT('',#1161);
#373=VERTEX_POINT('',#1165);
#374=VERTEX_POINT('',#1167);
#375=VERTEX_POINT('',#1171);
#376=VERTEX_POINT('',#1172);
#377=VERTEX_POINT('',#1177);
#378=VERTEX_POINT('',#1179);
#379=VERTEX_POINT('',#1183);
#380=VERTEX_POINT('',#1184);
#381=VERTEX_POINT('',#1189);
#382=VERTEX_POINT('',#1191);
#383=VERTEX_POINT('',#1195);
#384=VERTEX_POINT('',#1196);
#385=VERTEX_POINT('',#1203);
#386=VERTEX_POINT('',#1205);
#387=VERTEX_POINT('',#1209);
#388=VERTEX_POINT('',#1210);
#389=VERTEX_POINT('',#1227);
#390=VERTEX_POINT('',#1228);
#391=VERTEX_POINT('',#1230);
#392=VERTEX_POINT('',#1232);
#393=VERTEX_POINT('',#1236);
#394=VERTEX_POINT('',#1238);
#395=VERTEX_POINT('',#1248);
#396=VERTEX_POINT('',#1249);
#397=VERTEX_POINT('',#1254);
#398=VERTEX_POINT('',#1258);
#399=VERTEX_POINT('',#1264);
#400=VERTEX_POINT('',#1265);
#401=VERTEX_POINT('',#1267);
#402=VERTEX_POINT('',#1269);
#403=VERTEX_POINT('',#1273);
#404=VERTEX_POINT('',#1274);
#405=VERTEX_POINT('',#1276);
#406=VERTEX_POINT('',#1278);
#407=VERTEX_POINT('',#1282);
#408=VERTEX_POINT('',#1284);
#409=VERTEX_POINT('',#1288);
#410=VERTEX_POINT('',#1291);
#411=VERTEX_POINT('',#1293);
#412=VERTEX_POINT('',#1295);
#413=VERTEX_POINT('',#1297);
#414=VERTEX_POINT('',#1299);
#415=VERTEX_POINT('',#1301);
#416=VERTEX_POINT('',#1304);
#417=VERTEX_POINT('',#1306);
#418=VERTEX_POINT('',#1310);
#419=VERTEX_POINT('',#1314);
#420=VERTEX_POINT('',#1318);
#421=VERTEX_POINT('',#1319);
#422=VERTEX_POINT('',#1324);
#423=VERTEX_POINT('',#1328);
#424=VERTEX_POINT('',#1330);
#425=VERTEX_POINT('',#1334);
#426=VERTEX_POINT('',#1340);
#427=EDGE_CURVE('',#359,#359,#355,.T.);
#428=EDGE_CURVE('',#359,#360,#356,.T.);
#429=EDGE_CURVE('',#360,#361,#357,.T.);
#430=EDGE_CURVE('',#361,#362,#352,.T.);
#431=EDGE_CURVE('',#362,#363,#353,.T.);
#432=EDGE_CURVE('',#363,#364,#354,.T.);
#433=EDGE_CURVE('',#364,#360,#358,.T.);
#434=EDGE_CURVE('',#361,#365,#62,.T.);
#435=EDGE_CURVE('',#365,#366,#54,.T.);
#436=EDGE_CURVE('',#366,#367,#63,.T.);
#437=EDGE_CURVE('',#362,#367,#55,.T.);
#438=EDGE_CURVE('',#368,#369,#64,.T.);
#439=EDGE_CURVE('',#370,#368,#65,.T.);
#440=EDGE_CURVE('',#371,#370,#66,.T.);
#441=EDGE_CURVE('',#369,#371,#67,.T.);
#442=EDGE_CURVE('',#372,#364,#68,.T.);
#443=EDGE_CURVE('',#365,#372,#69,.T.);
#444=EDGE_CURVE('',#373,#368,#70,.T.);
#445=EDGE_CURVE('',#374,#373,#71,.T.);
#446=EDGE_CURVE('',#368,#374,#72,.T.);
#447=EDGE_CURVE('',#375,#376,#73,.T.);
#448=EDGE_CURVE('',#376,#374,#74,.T.);
#449=EDGE_CURVE('',#373,#375,#75,.T.);
#450=EDGE_CURVE('',#377,#370,#76,.T.);
#451=EDGE_CURVE('',#378,#377,#77,.T.);
#452=EDGE_CURVE('',#370,#378,#78,.T.);
#453=EDGE_CURVE('',#379,#380,#79,.T.);
#454=EDGE_CURVE('',#380,#378,#80,.T.);
#455=EDGE_CURVE('',#377,#379,#81,.T.);
#456=EDGE_CURVE('',#381,#369,#82,.T.);
#457=EDGE_CURVE('',#382,#381,#83,.T.);
#458=EDGE_CURVE('',#369,#382,#84,.T.);
#459=EDGE_CURVE('',#383,#384,#85,.T.);
#460=EDGE_CURVE('',#384,#382,#86,.T.);
#461=EDGE_CURVE('',#381,#383,#87,.T.);
#462=EDGE_CURVE('',#382,#373,#88,.T.);
#463=EDGE_CURVE('',#385,#371,#89,.T.);
#464=EDGE_CURVE('',#386,#385,#90,.T.);
#465=EDGE_CURVE('',#371,#386,#91,.T.);
#466=EDGE_CURVE('',#387,#388,#92,.T.);
#467=EDGE_CURVE('',#388,#386,#93,.T.);
#468=EDGE_CURVE('',#385,#387,#94,.T.);
#469=EDGE_CURVE('',#386,#381,#95,.T.);
#470=EDGE_CURVE('',#378,#385,#96,.T.);
#471=EDGE_CURVE('',#374,#377,#97,.T.);
#472=EDGE_CURVE('',#384,#375,#98,.T.);
#473=EDGE_CURVE('',#388,#383,#99,.T.);
#474=EDGE_CURVE('',#380,#387,#100,.T.);
#475=EDGE_CURVE('',#376,#379,#101,.T.);
#476=EDGE_CURVE('',#389,#390,#102,.T.);
#477=EDGE_CURVE('',#391,#389,#103,.T.);
#478=EDGE_CURVE('',#392,#391,#104,.T.);
#479=EDGE_CURVE('',#390,#392,#105,.T.);
#480=EDGE_CURVE('',#363,#393,#56,.T.);
#481=EDGE_CURVE('',#393,#394,#106,.T.);
#482=EDGE_CURVE('',#394,#372,#57,.T.);
#483=EDGE_CURVE('',#367,#393,#107,.T.);
#484=EDGE_CURVE('',#394,#366,#108,.T.);
#485=EDGE_CURVE('',#395,#396,#109,.T.);
#486=EDGE_CURVE('',#396,#394,#58,.T.);
#487=EDGE_CURVE('',#393,#395,#59,.T.);
#488=EDGE_CURVE('',#367,#397,#60,.T.);
#489=EDGE_CURVE('',#397,#395,#110,.T.);
#490=EDGE_CURVE('',#398,#397,#111,.T.);
#491=EDGE_CURVE('',#366,#398,#61,.T.);
#492=EDGE_CURVE('',#396,#398,#112,.T.);
#493=EDGE_CURVE('',#399,#400,#113,.T.);
#494=EDGE_CURVE('',#400,#401,#114,.T.);
#495=EDGE_CURVE('',#401,#402,#115,.T.);
#496=EDGE_CURVE('',#402,#399,#116,.T.);
#497=EDGE_CURVE('',#403,#404,#117,.T.);
#498=EDGE_CURVE('',#404,#405,#118,.T.);
#499=EDGE_CURVE('',#405,#406,#119,.T.);
#500=EDGE_CURVE('',#406,#403,#120,.T.);
#501=EDGE_CURVE('',#404,#407,#121,.T.);
#502=EDGE_CURVE('',#408,#407,#122,.T.);
#503=EDGE_CURVE('',#408,#405,#123,.T.);
#504=EDGE_CURVE('',#409,#403,#124,.T.);
#505=EDGE_CURVE('',#389,#409,#125,.T.);
#506=EDGE_CURVE('',#390,#410,#126,.T.);
#507=EDGE_CURVE('',#410,#411,#127,.T.);
#508=EDGE_CURVE('',#412,#411,#128,.T.);
#509=EDGE_CURVE('',#413,#412,#129,.T.);
#510=EDGE_CURVE('',#414,#413,#130,.T.);
#511=EDGE_CURVE('',#415,#414,#131,.T.);
#512=EDGE_CURVE('',#401,#415,#132,.T.);
#513=EDGE_CURVE('',#400,#416,#133,.T.);
#514=EDGE_CURVE('',#416,#417,#134,.T.);
#515=EDGE_CURVE('',#407,#417,#135,.T.);
#516=EDGE_CURVE('',#418,#408,#136,.T.);
#517=EDGE_CURVE('',#417,#418,#137,.T.);
#518=EDGE_CURVE('',#416,#419,#138,.T.);
#519=EDGE_CURVE('',#419,#418,#139,.T.);
#520=EDGE_CURVE('',#420,#421,#140,.T.);
#521=EDGE_CURVE('',#421,#412,#141,.T.);
#522=EDGE_CURVE('',#411,#420,#142,.T.);
#523=EDGE_CURVE('',#422,#410,#143,.T.);
#524=EDGE_CURVE('',#422,#420,#144,.T.);
#525=EDGE_CURVE('',#413,#423,#145,.T.);
#526=EDGE_CURVE('',#423,#424,#146,.T.);
#527=EDGE_CURVE('',#424,#414,#147,.T.);
#528=EDGE_CURVE('',#425,#424,#148,.T.);
#529=EDGE_CURVE('',#425,#415,#149,.T.);
#530=EDGE_CURVE('',#421,#423,#150,.T.);
#531=EDGE_CURVE('',#426,#406,#151,.T.);
#532=EDGE_CURVE('',#409,#426,#152,.T.);
#533=EDGE_CURVE('',#399,#419,#153,.T.);
#534=EDGE_CURVE('',#402,#425,#154,.T.);
#535=EDGE_CURVE('',#391,#426,#155,.T.);
#536=EDGE_CURVE('',#392,#422,#156,.T.);
#537=ORIENTED_EDGE('',*,*,#427,.F.);
#538=ORIENTED_EDGE('',*,*,#428,.T.);
#539=ORIENTED_EDGE('',*,*,#429,.T.);
#540=ORIENTED_EDGE('',*,*,#430,.T.);
#541=ORIENTED_EDGE('',*,*,#431,.T.);
#542=ORIENTED_EDGE('',*,*,#432,.T.);
#543=ORIENTED_EDGE('',*,*,#433,.T.);
#544=ORIENTED_EDGE('',*,*,#428,.F.);
#545=ORIENTED_EDGE('',*,*,#430,.F.);
#546=ORIENTED_EDGE('',*,*,#434,.T.);
#547=ORIENTED_EDGE('',*,*,#435,.T.);
#548=ORIENTED_EDGE('',*,*,#436,.T.);
#549=ORIENTED_EDGE('',*,*,#437,.F.);
#550=ORIENTED_EDGE('',*,*,#438,.F.);
#551=ORIENTED_EDGE('',*,*,#439,.F.);
#552=ORIENTED_EDGE('',*,*,#440,.F.);
#553=ORIENTED_EDGE('',*,*,#441,.F.);
#554=ORIENTED_EDGE('',*,*,#433,.F.);
#555=ORIENTED_EDGE('',*,*,#442,.F.);
#556=ORIENTED_EDGE('',*,*,#443,.F.);
#557=ORIENTED_EDGE('',*,*,#434,.F.);
#558=ORIENTED_EDGE('',*,*,#429,.F.);
#559=ORIENTED_EDGE('',*,*,#444,.F.);
#560=ORIENTED_EDGE('',*,*,#445,.F.);
#561=ORIENTED_EDGE('',*,*,#446,.F.);
#562=ORIENTED_EDGE('',*,*,#447,.T.);
#563=ORIENTED_EDGE('',*,*,#448,.T.);
#564=ORIENTED_EDGE('',*,*,#445,.T.);
#565=ORIENTED_EDGE('',*,*,#449,.T.);
#566=ORIENTED_EDGE('',*,*,#450,.F.);
#567=ORIENTED_EDGE('',*,*,#451,.F.);
#568=ORIENTED_EDGE('',*,*,#452,.F.);
#569=ORIENTED_EDGE('',*,*,#453,.T.);
#570=ORIENTED_EDGE('',*,*,#454,.T.);
#571=ORIENTED_EDGE('',*,*,#451,.T.);
#572=ORIENTED_EDGE('',*,*,#455,.T.);
#573=ORIENTED_EDGE('',*,*,#456,.F.);
#574=ORIENTED_EDGE('',*,*,#457,.F.);
#575=ORIENTED_EDGE('',*,*,#458,.F.);
#576=ORIENTED_EDGE('',*,*,#459,.T.);
#577=ORIENTED_EDGE('',*,*,#460,.T.);
#578=ORIENTED_EDGE('',*,*,#457,.T.);
#579=ORIENTED_EDGE('',*,*,#461,.T.);
#580=ORIENTED_EDGE('',*,*,#444,.T.);
#581=ORIENTED_EDGE('',*,*,#438,.T.);
#582=ORIENTED_EDGE('',*,*,#458,.T.);
#583=ORIENTED_EDGE('',*,*,#462,.T.);
#584=ORIENTED_EDGE('',*,*,#463,.F.);
#585=ORIENTED_EDGE('',*,*,#464,.F.);
#586=ORIENTED_EDGE('',*,*,#465,.F.);
#587=ORIENTED_EDGE('',*,*,#466,.T.);
#588=ORIENTED_EDGE('',*,*,#467,.T.);
#589=ORIENTED_EDGE('',*,*,#464,.T.);
#590=ORIENTED_EDGE('',*,*,#468,.T.);
#591=ORIENTED_EDGE('',*,*,#456,.T.);
#592=ORIENTED_EDGE('',*,*,#441,.T.);
#593=ORIENTED_EDGE('',*,*,#465,.T.);
#594=ORIENTED_EDGE('',*,*,#469,.T.);
#595=ORIENTED_EDGE('',*,*,#463,.T.);
#596=ORIENTED_EDGE('',*,*,#440,.T.);
#597=ORIENTED_EDGE('',*,*,#452,.T.);
#598=ORIENTED_EDGE('',*,*,#470,.T.);
#599=ORIENTED_EDGE('',*,*,#450,.T.);
#600=ORIENTED_EDGE('',*,*,#439,.T.);
#601=ORIENTED_EDGE('',*,*,#446,.T.);
#602=ORIENTED_EDGE('',*,*,#471,.T.);
#603=ORIENTED_EDGE('',*,*,#449,.F.);
#604=ORIENTED_EDGE('',*,*,#462,.F.);
#605=ORIENTED_EDGE('',*,*,#460,.F.);
#606=ORIENTED_EDGE('',*,*,#472,.T.);
#607=ORIENTED_EDGE('',*,*,#461,.F.);
#608=ORIENTED_EDGE('',*,*,#469,.F.);
#609=ORIENTED_EDGE('',*,*,#467,.F.);
#610=ORIENTED_EDGE('',*,*,#473,.T.);
#611=ORIENTED_EDGE('',*,*,#447,.F.);
#612=ORIENTED_EDGE('',*,*,#472,.F.);
#613=ORIENTED_EDGE('',*,*,#459,.F.);
#614=ORIENTED_EDGE('',*,*,#473,.F.);
#615=ORIENTED_EDGE('',*,*,#466,.F.);
#616=ORIENTED_EDGE('',*,*,#474,.F.);
#617=ORIENTED_EDGE('',*,*,#453,.F.);
#618=ORIENTED_EDGE('',*,*,#475,.F.);
#619=ORIENTED_EDGE('',*,*,#476,.F.);
#620=ORIENTED_EDGE('',*,*,#477,.F.);
#621=ORIENTED_EDGE('',*,*,#478,.F.);
#622=ORIENTED_EDGE('',*,*,#479,.F.);
#623=ORIENTED_EDGE('',*,*,#432,.F.);
#624=ORIENTED_EDGE('',*,*,#480,.T.);
#625=ORIENTED_EDGE('',*,*,#481,.T.);
#626=ORIENTED_EDGE('',*,*,#482,.T.);
#627=ORIENTED_EDGE('',*,*,#442,.T.);
#628=ORIENTED_EDGE('',*,*,#431,.F.);
#629=ORIENTED_EDGE('',*,*,#437,.T.);
#630=ORIENTED_EDGE('',*,*,#483,.T.);
#631=ORIENTED_EDGE('',*,*,#480,.F.);
#632=ORIENTED_EDGE('',*,*,#484,.T.);
#633=ORIENTED_EDGE('',*,*,#435,.F.);
#634=ORIENTED_EDGE('',*,*,#443,.T.);
#635=ORIENTED_EDGE('',*,*,#482,.F.);
#636=ORIENTED_EDGE('',*,*,#454,.F.);
#637=ORIENTED_EDGE('',*,*,#474,.T.);
#638=ORIENTED_EDGE('',*,*,#468,.F.);
#639=ORIENTED_EDGE('',*,*,#470,.F.);
#640=ORIENTED_EDGE('',*,*,#448,.F.);
#641=ORIENTED_EDGE('',*,*,#475,.T.);
#642=ORIENTED_EDGE('',*,*,#455,.F.);
#643=ORIENTED_EDGE('',*,*,#471,.F.);
#644=ORIENTED_EDGE('',*,*,#485,.T.);
#645=ORIENTED_EDGE('',*,*,#486,.T.);
#646=ORIENTED_EDGE('',*,*,#481,.F.);
#647=ORIENTED_EDGE('',*,*,#487,.T.);
#648=ORIENTED_EDGE('',*,*,#483,.F.);
#649=ORIENTED_EDGE('',*,*,#488,.T.);
#650=ORIENTED_EDGE('',*,*,#489,.T.);
#651=ORIENTED_EDGE('',*,*,#487,.F.);
#652=ORIENTED_EDGE('',*,*,#490,.T.);
#653=ORIENTED_EDGE('',*,*,#488,.F.);
#654=ORIENTED_EDGE('',*,*,#436,.F.);
#655=ORIENTED_EDGE('',*,*,#491,.T.);
#656=ORIENTED_EDGE('',*,*,#492,.T.);
#657=ORIENTED_EDGE('',*,*,#491,.F.);
#658=ORIENTED_EDGE('',*,*,#484,.F.);
#659=ORIENTED_EDGE('',*,*,#486,.F.);
#660=ORIENTED_EDGE('',*,*,#493,.T.);
#661=ORIENTED_EDGE('',*,*,#494,.T.);
#662=ORIENTED_EDGE('',*,*,#495,.T.);
#663=ORIENTED_EDGE('',*,*,#496,.T.);
#664=ORIENTED_EDGE('',*,*,#427,.T.);
#665=ORIENTED_EDGE('',*,*,#485,.F.);
#666=ORIENTED_EDGE('',*,*,#489,.F.);
#667=ORIENTED_EDGE('',*,*,#490,.F.);
#668=ORIENTED_EDGE('',*,*,#492,.F.);
#669=ORIENTED_EDGE('',*,*,#497,.T.);
#670=ORIENTED_EDGE('',*,*,#498,.T.);
#671=ORIENTED_EDGE('',*,*,#499,.T.);
#672=ORIENTED_EDGE('',*,*,#500,.T.);
#673=ORIENTED_EDGE('',*,*,#498,.F.);
#674=ORIENTED_EDGE('',*,*,#501,.T.);
#675=ORIENTED_EDGE('',*,*,#502,.F.);
#676=ORIENTED_EDGE('',*,*,#503,.T.);
#677=ORIENTED_EDGE('',*,*,#497,.F.);
#678=ORIENTED_EDGE('',*,*,#504,.F.);
#679=ORIENTED_EDGE('',*,*,#505,.F.);
#680=ORIENTED_EDGE('',*,*,#476,.T.);
#681=ORIENTED_EDGE('',*,*,#506,.T.);
#682=ORIENTED_EDGE('',*,*,#507,.T.);
#683=ORIENTED_EDGE('',*,*,#508,.F.);
#684=ORIENTED_EDGE('',*,*,#509,.F.);
#685=ORIENTED_EDGE('',*,*,#510,.F.);
#686=ORIENTED_EDGE('',*,*,#511,.F.);
#687=ORIENTED_EDGE('',*,*,#512,.F.);
#688=ORIENTED_EDGE('',*,*,#494,.F.);
#689=ORIENTED_EDGE('',*,*,#513,.T.);
#690=ORIENTED_EDGE('',*,*,#514,.T.);
#691=ORIENTED_EDGE('',*,*,#515,.F.);
#692=ORIENTED_EDGE('',*,*,#501,.F.);
#693=ORIENTED_EDGE('',*,*,#516,.T.);
#694=ORIENTED_EDGE('',*,*,#502,.T.);
#695=ORIENTED_EDGE('',*,*,#515,.T.);
#696=ORIENTED_EDGE('',*,*,#517,.T.);
#697=ORIENTED_EDGE('',*,*,#517,.F.);
#698=ORIENTED_EDGE('',*,*,#514,.F.);
#699=ORIENTED_EDGE('',*,*,#518,.T.);
#700=ORIENTED_EDGE('',*,*,#519,.T.);
#701=ORIENTED_EDGE('',*,*,#520,.T.);
#702=ORIENTED_EDGE('',*,*,#521,.T.);
#703=ORIENTED_EDGE('',*,*,#508,.T.);
#704=ORIENTED_EDGE('',*,*,#522,.T.);
#705=ORIENTED_EDGE('',*,*,#522,.F.);
#706=ORIENTED_EDGE('',*,*,#507,.F.);
#707=ORIENTED_EDGE('',*,*,#523,.F.);
#708=ORIENTED_EDGE('',*,*,#524,.T.);
#709=ORIENTED_EDGE('',*,*,#510,.T.);
#710=ORIENTED_EDGE('',*,*,#525,.T.);
#711=ORIENTED_EDGE('',*,*,#526,.T.);
#712=ORIENTED_EDGE('',*,*,#527,.T.);
#713=ORIENTED_EDGE('',*,*,#527,.F.);
#714=ORIENTED_EDGE('',*,*,#528,.F.);
#715=ORIENTED_EDGE('',*,*,#529,.T.);
#716=ORIENTED_EDGE('',*,*,#511,.T.);
#717=ORIENTED_EDGE('',*,*,#521,.F.);
#718=ORIENTED_EDGE('',*,*,#530,.T.);
#719=ORIENTED_EDGE('',*,*,#525,.F.);
#720=ORIENTED_EDGE('',*,*,#509,.T.);
#721=ORIENTED_EDGE('',*,*,#500,.F.);
#722=ORIENTED_EDGE('',*,*,#531,.F.);
#723=ORIENTED_EDGE('',*,*,#532,.F.);
#724=ORIENTED_EDGE('',*,*,#504,.T.);
#725=ORIENTED_EDGE('',*,*,#493,.F.);
#726=ORIENTED_EDGE('',*,*,#533,.T.);
#727=ORIENTED_EDGE('',*,*,#518,.F.);
#728=ORIENTED_EDGE('',*,*,#513,.F.);
#729=ORIENTED_EDGE('',*,*,#495,.F.);
#730=ORIENTED_EDGE('',*,*,#512,.T.);
#731=ORIENTED_EDGE('',*,*,#529,.F.);
#732=ORIENTED_EDGE('',*,*,#534,.F.);
#733=ORIENTED_EDGE('',*,*,#532,.T.);
#734=ORIENTED_EDGE('',*,*,#535,.F.);
#735=ORIENTED_EDGE('',*,*,#477,.T.);
#736=ORIENTED_EDGE('',*,*,#505,.T.);
#737=ORIENTED_EDGE('',*,*,#499,.F.);
#738=ORIENTED_EDGE('',*,*,#503,.F.);
#739=ORIENTED_EDGE('',*,*,#516,.F.);
#740=ORIENTED_EDGE('',*,*,#519,.F.);
#741=ORIENTED_EDGE('',*,*,#533,.F.);
#742=ORIENTED_EDGE('',*,*,#496,.F.);
#743=ORIENTED_EDGE('',*,*,#534,.T.);
#744=ORIENTED_EDGE('',*,*,#528,.T.);
#745=ORIENTED_EDGE('',*,*,#526,.F.);
#746=ORIENTED_EDGE('',*,*,#530,.F.);
#747=ORIENTED_EDGE('',*,*,#520,.F.);
#748=ORIENTED_EDGE('',*,*,#524,.F.);
#749=ORIENTED_EDGE('',*,*,#536,.F.);
#750=ORIENTED_EDGE('',*,*,#478,.T.);
#751=ORIENTED_EDGE('',*,*,#535,.T.);
#752=ORIENTED_EDGE('',*,*,#531,.T.);
#753=ORIENTED_EDGE('',*,*,#523,.T.);
#754=ORIENTED_EDGE('',*,*,#506,.F.);
#755=ORIENTED_EDGE('',*,*,#479,.T.);
#756=ORIENTED_EDGE('',*,*,#536,.T.);
#757=(
BOUNDED_SURFACE()
B_SPLINE_SURFACE(2,2,((#1079,#1080,#1081,#1082,#1083,#1084,#1085,#1086,
#1087),(#1088,#1089,#1090,#1091,#1092,#1093,#1094,#1095,#1096),(#1097,#1098,
#1099,#1100,#1101,#1102,#1103,#1104,#1105)),.UNSPECIFIED.,.F.,.T.,.F.)
B_SPLINE_SURFACE_WITH_KNOTS((3,3),(3,2,2,2,3),(1.5707963267949,2.36619515697904),
(-3.14159265358979,-1.5707963267949,0.,1.5707963267949,3.14159265358979),
 .UNSPECIFIED.)
GEOMETRIC_REPRESENTATION_ITEM()
RATIONAL_B_SPLINE_SURFACE(((1.,0.707106781186548,1.,0.707106781186548,1.,
0.707106781186548,1.,0.707106781186548,1.),(0.921954445729291,0.651920240520266,
0.921954445729291,0.651920240520266,0.921954445729291,0.651920240520266,
0.921954445729291,0.651920240520266,0.921954445729291),(1.,0.707106781186548,
1.,0.707106781186548,1.,0.707106781186548,1.,0.707106781186548,1.)))
REPRESENTATION_ITEM('')
SURFACE()
);
#758=ADVANCED_FACE('',(#260),#757,.T.);
#759=ADVANCED_FACE('',(#261),#252,.T.);
#760=ADVANCED_FACE('',(#262,#15),#19,.T.);
#761=ADVANCED_FACE('',(#263),#20,.T.);
#762=ADVANCED_FACE('',(#264),#21,.T.);
#763=ADVANCED_FACE('',(#265),#22,.T.);
#764=ADVANCED_FACE('',(#266),#23,.T.);
#765=ADVANCED_FACE('',(#267),#24,.T.);
#766=ADVANCED_FACE('',(#268),#25,.T.);
#767=ADVANCED_FACE('',(#269),#26,.T.);
#768=ADVANCED_FACE('',(#270),#27,.T.);
#769=ADVANCED_FACE('',(#271),#28,.T.);
#770=ADVANCED_FACE('',(#272),#29,.T.);
#771=ADVANCED_FACE('',(#273),#30,.T.);
#772=ADVANCED_FACE('',(#274),#31,.T.);
#773=ADVANCED_FACE('',(#275),#32,.T.);
#774=ADVANCED_FACE('',(#276),#33,.T.);
#775=ADVANCED_FACE('',(#277,#16),#34,.F.);
#776=ADVANCED_FACE('',(#278),#253,.T.);
#777=ADVANCED_FACE('',(#279),#254,.T.);
#778=ADVANCED_FACE('',(#280),#255,.T.);
#779=ADVANCED_FACE('',(#281),#35,.T.);
#780=ADVANCED_FACE('',(#282),#36,.T.);
#781=ADVANCED_FACE('',(#283),#256,.T.);
#782=ADVANCED_FACE('',(#284),#257,.T.);
#783=ADVANCED_FACE('',(#285),#258,.T.);
#784=ADVANCED_FACE('',(#286),#259,.T.);
#785=ADVANCED_FACE('',(#287,#17,#18),#37,.F.);
#786=ADVANCED_FACE('',(#288),#38,.T.);
#787=ADVANCED_FACE('',(#289),#39,.T.);
#788=ADVANCED_FACE('',(#290),#40,.T.);
#789=ADVANCED_FACE('',(#291),#41,.T.);
#790=ADVANCED_FACE('',(#292),#42,.T.);
#791=ADVANCED_FACE('',(#293),#43,.T.);
#792=ADVANCED_FACE('',(#294),#44,.T.);
#793=ADVANCED_FACE('',(#295),#45,.T.);
#794=ADVANCED_FACE('',(#296),#46,.T.);
#795=ADVANCED_FACE('',(#297),#47,.T.);
#796=ADVANCED_FACE('',(#298),#48,.T.);
#797=ADVANCED_FACE('',(#299),#49,.T.);
#798=ADVANCED_FACE('',(#300),#50,.T.);
#799=ADVANCED_FACE('',(#301),#51,.T.);
#800=ADVANCED_FACE('',(#302),#52,.T.);
#801=ADVANCED_FACE('',(#303),#53,.T.);
#802=CLOSED_SHELL('',(#758,#759,#760,#761,#762,#763,#764,#765,#766,#767,
#768,#769,#770,#771,#772,#773,#774,#775,#776,#777,#778,#779,#780,#781,#782,
#783,#784,#785,#786,#787,#788,#789,#790,#791,#792,#793,#794,#795,#796,#797,
#798,#799,#800,#801));
#803=DERIVED_UNIT_ELEMENT(#805,1.);
#804=DERIVED_UNIT_ELEMENT(#1357,-3.);
#805=(
MASS_UNIT()
NAMED_UNIT(*)
SI_UNIT(.KILO.,.GRAM.)
);
#806=DERIVED_UNIT((#803,#804));
#807=MEASURE_REPRESENTATION_ITEM('density measure',
POSITIVE_RATIO_MEASURE(7850.),#806);
#808=PROPERTY_DEFINITION_REPRESENTATION(#813,#810);
#809=PROPERTY_DEFINITION_REPRESENTATION(#814,#811);
#810=REPRESENTATION('material name',(#812),#1354);
#811=REPRESENTATION('density',(#807),#1354);
#812=DESCRIPTIVE_REPRESENTATION_ITEM('Steel','Steel');
#813=PROPERTY_DEFINITION('material property','material name',#1364);
#814=PROPERTY_DEFINITION('material property','density of part',#1364);
#815=AXIS2_PLACEMENT_3D('',#1078,#871,#872);
#816=AXIS2_PLACEMENT_3D('',#1107,#873,#874);
#817=AXIS2_PLACEMENT_3D('',#1109,#875,#876);
#818=AXIS2_PLACEMENT_3D('',#1111,#877,#878);
#819=AXIS2_PLACEMENT_3D('',#1143,#879,#880);
#820=AXIS2_PLACEMENT_3D('',#1144,#881,#882);
#821=AXIS2_PLACEMENT_3D('',#1148,#884,#885);
#822=AXIS2_PLACEMENT_3D('',#1151,#887,#888);
#823=AXIS2_PLACEMENT_3D('',#1152,#889,#890);
#824=AXIS2_PLACEMENT_3D('',#1164,#897,#898);
#825=AXIS2_PLACEMENT_3D('',#1170,#902,#903);
#826=AXIS2_PLACEMENT_3D('',#1176,#907,#908);
#827=AXIS2_PLACEMENT_3D('',#1182,#912,#913);
#828=AXIS2_PLACEMENT_3D('',#1188,#917,#918);
#829=AXIS2_PLACEMENT_3D('',#1194,#922,#923);
#830=AXIS2_PLACEMENT_3D('',#1200,#927,#928);
#831=AXIS2_PLACEMENT_3D('',#1202,#930,#931);
#832=AXIS2_PLACEMENT_3D('',#1208,#935,#936);
#833=AXIS2_PLACEMENT_3D('',#1214,#940,#941);
#834=AXIS2_PLACEMENT_3D('',#1216,#943,#944);
#835=AXIS2_PLACEMENT_3D('',#1218,#946,#947);
#836=AXIS2_PLACEMENT_3D('',#1220,#949,#950);
#837=AXIS2_PLACEMENT_3D('',#1222,#952,#953);
#838=AXIS2_PLACEMENT_3D('',#1224,#955,#956);
#839=AXIS2_PLACEMENT_3D('',#1235,#963,#964);
#840=AXIS2_PLACEMENT_3D('',#1237,#965,#966);
#841=AXIS2_PLACEMENT_3D('',#1240,#968,#969);
#842=AXIS2_PLACEMENT_3D('',#1241,#970,#971);
#843=AXIS2_PLACEMENT_3D('',#1243,#973,#974);
#844=AXIS2_PLACEMENT_3D('',#1245,#976,#977);
#845=AXIS2_PLACEMENT_3D('',#1246,#978,#979);
#846=AXIS2_PLACEMENT_3D('',#1247,#980,#981);
#847=AXIS2_PLACEMENT_3D('',#1251,#983,#984);
#848=AXIS2_PLACEMENT_3D('',#1252,#985,#986);
#849=AXIS2_PLACEMENT_3D('',#1253,#987,#988);
#850=AXIS2_PLACEMENT_3D('',#1255,#989,#990);
#851=AXIS2_PLACEMENT_3D('',#1257,#992,#993);
#852=AXIS2_PLACEMENT_3D('',#1260,#995,#996);
#853=AXIS2_PLACEMENT_3D('',#1261,#997,#998);
#854=AXIS2_PLACEMENT_3D('',#1263,#1000,#1001);
#855=AXIS2_PLACEMENT_3D('',#1272,#1006,#1007);
#856=AXIS2_PLACEMENT_3D('',#1281,#1012,#1013);
#857=AXIS2_PLACEMENT_3D('',#1287,#1017,#1018);
#858=AXIS2_PLACEMENT_3D('',#1309,#1031,#1032);
#859=AXIS2_PLACEMENT_3D('',#1313,#1035,#1036);
#860=AXIS2_PLACEMENT_3D('',#1317,#1039,#1040);
#861=AXIS2_PLACEMENT_3D('',#1323,#1044,#1045);
#862=AXIS2_PLACEMENT_3D('',#1327,#1048,#1049);
#863=AXIS2_PLACEMENT_3D('',#1333,#1053,#1054);
#864=AXIS2_PLACEMENT_3D('',#1337,#1057,#1058);
#865=AXIS2_PLACEMENT_3D('',#1339,#1060,#1061);
#866=AXIS2_PLACEMENT_3D('',#1343,#1064,#1065);
#867=AXIS2_PLACEMENT_3D('',#1345,#1067,#1068);
#868=AXIS2_PLACEMENT_3D('',#1347,#1070,#1071);
#869=AXIS2_PLACEMENT_3D('',#1349,#1073,#1074);
#870=AXIS2_PLACEMENT_3D('',#1351,#1076,#1077);
#871=DIRECTION('axis',(0.,0.,1.));
#872=DIRECTION('refdir',(1.,0.,0.));
#873=DIRECTION('center_axis',(-1.22464679914735E-16,0.,1.));
#874=DIRECTION('ref_axis',(-1.,0.,-1.22464679914735E-16));
#875=DIRECTION('center_axis',(0.,-1.,0.));
#876=DIRECTION('ref_axis',(-1.,0.,-9.11346607609075E-17));
#877=DIRECTION('center_axis',(-1.22464679914735E-16,0.,1.));
#878=DIRECTION('ref_axis',(1.,0.,1.22464679914735E-16));
#879=DIRECTION('center_axis',(-1.22464679914735E-16,0.,1.));
#880=DIRECTION('ref_axis',(1.,0.,1.22464679914735E-16));
#881=DIRECTION('center_axis',(0.,1.,0.));
#882=DIRECTION('ref_axis',(-0.628539361054709,0.,0.777777777777778));
#883=DIRECTION('',(0.,1.,0.));
#884=DIRECTION('center_axis',(0.707106781186547,-0.707106781186548,2.26159379728774E-16));
#885=DIRECTION('ref_axis',(-0.707106781186548,-0.707106781186547,-2.26159379728774E-16));
#886=DIRECTION('',(0.,-1.,0.));
#887=DIRECTION('center_axis',(-0.707106781186548,-0.707106781186547,-8.65956056235494E-17));
#888=DIRECTION('ref_axis',(-0.707106781186547,0.707106781186548,-8.65956056235493E-17));
#889=DIRECTION('center_axis',(-1.22464679914735E-16,0.,1.));
#890=DIRECTION('ref_axis',(-1.,0.,-1.22464679914735E-16));
#891=DIRECTION('',(1.,0.,1.22464679914735E-16));
#892=DIRECTION('',(0.,1.,0.));
#893=DIRECTION('',(-1.,0.,-1.22464679914735E-16));
#894=DIRECTION('',(0.,-1.,0.));
#895=DIRECTION('',(0.,-1.,0.));
#896=DIRECTION('',(-1.,0.,-1.22464679914735E-16));
#897=DIRECTION('center_axis',(-0.577350269189626,0.577350269189626,0.577350269189626));
#898=DIRECTION('ref_axis',(0.707106781186547,0.,0.707106781186548));
#899=DIRECTION('',(-8.65956056235493E-17,-0.707106781186547,0.707106781186547));
#900=DIRECTION('',(0.707106781186547,0.707106781186547,8.65956056235493E-17));
#901=DIRECTION('',(-0.707106781186547,0.,-0.707106781186548));
#902=DIRECTION('center_axis',(-0.707106781186548,0.707106781186548,-8.65956056235493E-17));
#903=DIRECTION('ref_axis',(-1.22464679914735E-16,0.,1.));
#904=DIRECTION('',(-0.707106781186548,-0.707106781186548,-8.65956056235493E-17));
#905=DIRECTION('',(-1.22464679914735E-16,0.,1.));
#906=DIRECTION('',(1.22464679914735E-16,0.,-1.));
#907=DIRECTION('center_axis',(-0.577350269189626,-0.577350269189626,0.577350269189626));
#908=DIRECTION('ref_axis',(0.707106781186547,0.,0.707106781186548));
#909=DIRECTION('',(0.707106781186547,0.,0.707106781186548));
#910=DIRECTION('',(-0.707106781186547,0.707106781186547,-8.65956056235493E-17));
#911=DIRECTION('',(8.65956056235493E-17,-0.707106781186547,-0.707106781186547));
#912=DIRECTION('center_axis',(-0.707106781186548,-0.707106781186548,-8.65956056235493E-17));
#913=DIRECTION('ref_axis',(-1.22464679914735E-16,0.,1.));
#914=DIRECTION('',(0.707106781186548,-0.707106781186548,8.65956056235493E-17));
#915=DIRECTION('',(-1.22464679914735E-16,0.,1.));
#916=DIRECTION('',(1.22464679914735E-16,0.,-1.));
#917=DIRECTION('center_axis',(0.577350269189626,0.577350269189626,0.577350269189626));
#918=DIRECTION('ref_axis',(0.707106781186548,0.,-0.707106781186547));
#919=DIRECTION('',(-0.707106781186548,0.,0.707106781186547));
#920=DIRECTION('',(0.707106781186547,-0.707106781186547,8.65956056235493E-17));
#921=DIRECTION('',(8.65956056235493E-17,0.707106781186547,-0.707106781186547));
#922=DIRECTION('center_axis',(0.707106781186548,0.707106781186548,8.65956056235493E-17));
#923=DIRECTION('ref_axis',(1.22464679914735E-16,0.,-1.));
#924=DIRECTION('',(-0.707106781186548,0.707106781186548,-8.65956056235493E-17));
#925=DIRECTION('',(-1.22464679914735E-16,0.,1.));
#926=DIRECTION('',(1.22464679914735E-16,0.,-1.));
#927=DIRECTION('center_axis',(-8.65956056235493E-17,0.707106781186548,0.707106781186548));
#928=DIRECTION('ref_axis',(1.,0.,1.22464679914735E-16));
#929=DIRECTION('',(-1.,0.,-1.22464679914735E-16));
#930=DIRECTION('center_axis',(0.577350269189626,-0.577350269189626,0.577350269189626));
#931=DIRECTION('ref_axis',(0.707106781186548,0.,-0.707106781186547));
#932=DIRECTION('',(-8.65956056235493E-17,0.707106781186547,0.707106781186547));
#933=DIRECTION('',(-0.707106781186547,-0.707106781186547,-8.65956056235493E-17));
#934=DIRECTION('',(0.707106781186548,0.,-0.707106781186547));
#935=DIRECTION('center_axis',(0.707106781186548,-0.707106781186548,8.65956056235493E-17));
#936=DIRECTION('ref_axis',(1.22464679914735E-16,0.,-1.));
#937=DIRECTION('',(0.707106781186548,0.707106781186548,8.65956056235493E-17));
#938=DIRECTION('',(-1.22464679914735E-16,0.,1.));
#939=DIRECTION('',(1.22464679914735E-16,0.,-1.));
#940=DIRECTION('center_axis',(0.707106781186547,0.,0.707106781186548));
#941=DIRECTION('ref_axis',(0.707106781186548,0.,-0.707106781186547));
#942=DIRECTION('',(0.,1.,0.));
#943=DIRECTION('center_axis',(-8.65956056235493E-17,-0.707106781186548,
0.707106781186548));
#944=DIRECTION('ref_axis',(1.,0.,1.22464679914735E-16));
#945=DIRECTION('',(1.,0.,1.22464679914735E-16));
#946=DIRECTION('center_axis',(-0.707106781186548,0.,0.707106781186547));
#947=DIRECTION('ref_axis',(0.707106781186547,0.,0.707106781186548));
#948=DIRECTION('',(0.,-1.,0.));
#949=DIRECTION('center_axis',(0.,1.,0.));
#950=DIRECTION('ref_axis',(-1.,0.,-1.22464679914735E-16));
#951=DIRECTION('',(-1.,0.,-1.22464679914735E-16));
#952=DIRECTION('center_axis',(1.,0.,1.22464679914735E-16));
#953=DIRECTION('ref_axis',(0.,1.,0.));
#954=DIRECTION('',(0.,1.,0.));
#955=DIRECTION('center_axis',(-1.22464679914735E-16,0.,1.));
#956=DIRECTION('ref_axis',(-1.,0.,-1.22464679914735E-16));
#957=DIRECTION('',(1.,0.,1.22464679914735E-16));
#958=DIRECTION('',(0.,-1.,0.));
#959=DIRECTION('',(1.,0.,1.22464679914735E-16));
#960=DIRECTION('',(0.,1.,0.));
#961=DIRECTION('',(-1.,0.,-1.22464679914735E-16));
#962=DIRECTION('',(0.,-1.,0.));
#963=DIRECTION('center_axis',(0.,-1.,0.));
#964=DIRECTION('ref_axis',(0.628539361054709,0.,0.777777777777778));
#965=DIRECTION('center_axis',(-0.707106781186548,0.707106781186547,-8.65956056235494E-17));
#966=DIRECTION('ref_axis',(0.707106781186547,0.707106781186548,8.65956056235493E-17));
#967=DIRECTION('',(0.,1.,0.));
#968=DIRECTION('center_axis',(-0.707106781186547,-0.707106781186548,-8.65956056235493E-17));
#969=DIRECTION('ref_axis',(-0.707106781186548,0.707106781186547,-8.65956056235494E-17));
#970=DIRECTION('center_axis',(1.,0.,1.22464679914735E-16));
#971=DIRECTION('ref_axis',(-9.52503066003497E-17,0.628539361054709,0.777777777777778));
#972=DIRECTION('',(-1.,0.,-1.22464679914735E-16));
#973=DIRECTION('center_axis',(-1.,0.,-1.22464679914735E-16));
#974=DIRECTION('ref_axis',(-9.52503066003497E-17,-0.628539361054709,0.777777777777778));
#975=DIRECTION('',(1.,0.,1.22464679914735E-16));
#976=DIRECTION('center_axis',(0.,-1.,0.));
#977=DIRECTION('ref_axis',(1.,0.,1.22464679914735E-16));
#978=DIRECTION('center_axis',(-1.,0.,-1.22464679914735E-16));
#979=DIRECTION('ref_axis',(0.,-1.,0.));
#980=DIRECTION('center_axis',(0.,-1.,0.));
#981=DIRECTION('ref_axis',(0.707106781186548,0.,-0.707106781186547));
#982=DIRECTION('',(0.,1.,0.));
#983=DIRECTION('center_axis',(-0.707106781186548,-0.707106781186548,-8.65956056235493E-17));
#984=DIRECTION('ref_axis',(-0.707106781186547,0.707106781186547,-8.65956056235493E-17));
#985=DIRECTION('center_axis',(-0.707106781186548,0.707106781186548,-8.65956056235493E-17));
#986=DIRECTION('ref_axis',(0.707106781186547,0.707106781186547,8.65956056235493E-17));
#987=DIRECTION('center_axis',(1.,0.,1.22464679914735E-16));
#988=DIRECTION('ref_axis',(8.65956056235493E-17,0.707106781186547,-0.707106781186547));
#989=DIRECTION('center_axis',(-0.707106781186548,-0.707106781186548,-8.65956056235493E-17));
#990=DIRECTION('ref_axis',(-0.707106781186547,0.707106781186547,-8.65956056235493E-17));
#991=DIRECTION('',(-1.,0.,-1.22464679914735E-16));
#992=DIRECTION('center_axis',(0.,1.,0.));
#993=DIRECTION('ref_axis',(-0.707106781186547,0.,-0.707106781186548));
#994=DIRECTION('',(0.,-1.,0.));
#995=DIRECTION('center_axis',(0.707106781186548,-0.707106781186548,8.65956056235493E-17));
#996=DIRECTION('ref_axis',(-0.707106781186547,-0.707106781186547,-8.65956056235493E-17));
#997=DIRECTION('center_axis',(-1.,0.,-1.22464679914735E-16));
#998=DIRECTION('ref_axis',(8.65956056235493E-17,-0.707106781186547,-0.707106781186547));
#999=DIRECTION('',(1.,0.,1.22464679914735E-16));
#1000=DIRECTION('center_axis',(-1.22464679914735E-16,0.,1.));
#1001=DIRECTION('ref_axis',(-1.,0.,-1.22464679914735E-16));
#1002=DIRECTION('',(0.,1.,0.));
#1003=DIRECTION('',(1.,0.,1.22464679914735E-16));
#1004=DIRECTION('',(0.,-1.,0.));
#1005=DIRECTION('',(-1.,0.,-1.22464679914735E-16));
#1006=DIRECTION('center_axis',(-0.707106781186545,0.,0.70710678118655));
#1007=DIRECTION('ref_axis',(0.70710678118655,0.,0.707106781186545));
#1008=DIRECTION('',(-0.70710678118655,0.,-0.707106781186545));
#1009=DIRECTION('',(0.,-1.,0.));
#1010=DIRECTION('',(0.70710678118655,0.,0.707106781186545));
#1011=DIRECTION('',(0.,1.,0.));
#1012=DIRECTION('center_axis',(-1.,0.,-1.22464679914735E-16));
#1013=DIRECTION('ref_axis',(-1.22464679914735E-16,0.,1.));
#1014=DIRECTION('',(1.22464679914735E-16,0.,-1.));
#1015=DIRECTION('',(0.,1.,0.));
#1016=DIRECTION('',(-1.22464679914735E-16,0.,1.));
#1017=DIRECTION('center_axis',(0.,1.,0.));
#1018=DIRECTION('ref_axis',(1.,0.,1.22464679914735E-16));
#1019=DIRECTION('',(-1.,0.,-1.22464679914735E-16));
#1020=DIRECTION('',(1.22464679914735E-16,0.,-1.));
#1021=DIRECTION('',(1.22464679914735E-16,0.,-1.));
#1022=DIRECTION('',(1.,0.,1.22464679914735E-16));
#1023=DIRECTION('',(-0.707106781186548,0.,0.707106781186547));
#1024=DIRECTION('',(-1.22464679914735E-16,0.,1.));
#1025=DIRECTION('',(0.707106781186547,0.,0.707106781186548));
#1026=DIRECTION('',(1.,0.,1.22464679914735E-16));
#1027=DIRECTION('',(1.22464679914735E-16,0.,-1.));
#1028=DIRECTION('',(1.22464679914735E-16,0.,-1.));
#1029=DIRECTION('',(-1.,0.,-1.22464679914735E-16));
#1030=DIRECTION('',(0.70710678118655,0.,-0.707106781186545));
#1031=DIRECTION('center_axis',(-0.707106781186545,0.,-0.70710678118655));
#1032=DIRECTION('ref_axis',(-0.70710678118655,0.,0.707106781186545));
#1033=DIRECTION('',(-0.70710678118655,0.,0.707106781186545));
#1034=DIRECTION('',(0.,-1.,0.));
#1035=DIRECTION('center_axis',(1.22464679914735E-16,0.,-1.));
#1036=DIRECTION('ref_axis',(-1.,0.,-1.22464679914735E-16));
#1037=DIRECTION('',(0.,-1.,0.));
#1038=DIRECTION('',(-1.,0.,-1.22464679914735E-16));
#1039=DIRECTION('center_axis',(0.707106781186547,0.,0.707106781186548));
#1040=DIRECTION('ref_axis',(0.707106781186548,0.,-0.707106781186547));
#1041=DIRECTION('',(0.707106781186548,0.,-0.707106781186547));
#1042=DIRECTION('',(0.,1.,0.));
#1043=DIRECTION('',(0.,-1.,0.));
#1044=DIRECTION('center_axis',(-1.22464679914735E-16,0.,1.));
#1045=DIRECTION('ref_axis',(0.,-1.,0.));
#1046=DIRECTION('',(0.,1.,0.));
#1047=DIRECTION('',(1.,0.,1.22464679914735E-16));
#1048=DIRECTION('center_axis',(0.707106781186548,0.,-0.707106781186547));
#1049=DIRECTION('ref_axis',(-0.707106781186547,0.,-0.707106781186548));
#1050=DIRECTION('',(0.,-1.,0.));
#1051=DIRECTION('',(-0.707106781186547,0.,-0.707106781186548));
#1052=DIRECTION('',(0.,1.,0.));
#1053=DIRECTION('center_axis',(1.22464679914735E-16,0.,-1.));
#1054=DIRECTION('ref_axis',(-1.,0.,-1.22464679914735E-16));
#1055=DIRECTION('',(1.,0.,1.22464679914735E-16));
#1056=DIRECTION('',(0.,1.,0.));
#1057=DIRECTION('center_axis',(1.,0.,1.22464679914735E-16));
#1058=DIRECTION('ref_axis',(1.22464679914735E-16,0.,-1.));
#1059=DIRECTION('',(1.22464679914735E-16,0.,-1.));
#1060=DIRECTION('center_axis',(-1.22464679914735E-16,0.,1.));
#1061=DIRECTION('ref_axis',(0.,1.,0.));
#1062=DIRECTION('',(-1.,0.,-1.22464679914735E-16));
#1063=DIRECTION('',(0.,-1.,0.));
#1064=DIRECTION('center_axis',(1.,0.,1.22464679914735E-16));
#1065=DIRECTION('ref_axis',(0.,-1.,0.));
#1066=DIRECTION('',(1.22464679914735E-16,0.,-1.));
#1067=DIRECTION('center_axis',(-1.,0.,-1.22464679914735E-16));
#1068=DIRECTION('ref_axis',(0.,1.,0.));
#1069=DIRECTION('',(1.22464679914735E-16,0.,-1.));
#1070=DIRECTION('center_axis',(-1.,0.,-1.22464679914735E-16));
#1071=DIRECTION('ref_axis',(0.,1.,0.));
#1072=DIRECTION('',(1.22464679914735E-16,0.,-1.));
#1073=DIRECTION('center_axis',(0.,-1.,0.));
#1074=DIRECTION('ref_axis',(-1.,0.,-1.22464679914735E-16));
#1075=DIRECTION('',(1.22464679914735E-16,0.,-1.));
#1076=DIRECTION('center_axis',(1.,0.,1.22464679914735E-16));
#1077=DIRECTION('ref_axis',(0.,-1.,0.));
#1078=CARTESIAN_POINT('',(0.,0.,0.));
#1079=CARTESIAN_POINT('Ctrl Pts',(1300.9687700568,-859.000012800097,7.105427357601E-14));
#1080=CARTESIAN_POINT('Ctrl Pts',(1300.9687700568,-669.168784029622,7.105427357601E-14));
#1081=CARTESIAN_POINT('Ctrl Pts',(1490.79999882728,-669.168784029622,1.06581410364015E-13));
#1082=CARTESIAN_POINT('Ctrl Pts',(1680.63122759775,-669.168784029622,1.4210854715202E-13));
#1083=CARTESIAN_POINT('Ctrl Pts',(1680.63122759775,-859.000012800097,1.4210854715202E-13));
#1084=CARTESIAN_POINT('Ctrl Pts',(1680.63122759775,-1048.83124157057,1.4210854715202E-13));
#1085=CARTESIAN_POINT('Ctrl Pts',(1490.79999882728,-1048.83124157057,1.06581410364015E-13));
#1086=CARTESIAN_POINT('Ctrl Pts',(1300.9687700568,-1048.83124157057,7.105427357601E-14));
#1087=CARTESIAN_POINT('Ctrl Pts',(1300.9687700568,-859.000012800097,7.105427357601E-14));
#1088=CARTESIAN_POINT('Ctrl Pts',(1384.98557509848,-859.000012800097,1.87327661921378E-13));
#1089=CARTESIAN_POINT('Ctrl Pts',(1384.98557509848,-753.185589071303,1.87327661921378E-13));
#1090=CARTESIAN_POINT('Ctrl Pts',(1490.79999882728,-753.185589071303,1.77635683940025E-13));
#1091=CARTESIAN_POINT('Ctrl Pts',(1596.61442255607,-753.185589071303,1.67943705958672E-13));
#1092=CARTESIAN_POINT('Ctrl Pts',(1596.61442255607,-859.000012800097,1.67943705958672E-13));
#1093=CARTESIAN_POINT('Ctrl Pts',(1596.61442255607,-964.814436528892,1.67943705958672E-13));
#1094=CARTESIAN_POINT('Ctrl Pts',(1490.79999882728,-964.814436528892,1.77635683940025E-13));
#1095=CARTESIAN_POINT('Ctrl Pts',(1384.98557509848,-964.814436528892,1.87327661921378E-13));
#1096=CARTESIAN_POINT('Ctrl Pts',(1384.98557509848,-859.000012800097,1.87327661921378E-13));
#1097=CARTESIAN_POINT('Ctrl Pts',(1443.79733862766,-859.000012800097,-59.9999999999999));
#1098=CARTESIAN_POINT('Ctrl Pts',(1443.79733862766,-811.997352600479,-59.9999999999999));
#1099=CARTESIAN_POINT('Ctrl Pts',(1490.79999882728,-811.997352600479,-59.9999999999999));
#1100=CARTESIAN_POINT('Ctrl Pts',(1537.8026590269,-811.997352600479,-59.9999999999999));
#1101=CARTESIAN_POINT('Ctrl Pts',(1537.8026590269,-859.000012800097,-59.9999999999999));
#1102=CARTESIAN_POINT('Ctrl Pts',(1537.8026590269,-906.002672999716,-59.9999999999999));
#1103=CARTESIAN_POINT('Ctrl Pts',(1490.79999882728,-906.002672999716,-59.9999999999999));
#1104=CARTESIAN_POINT('Ctrl Pts',(1443.79733862766,-906.002672999716,-59.9999999999999));
#1105=CARTESIAN_POINT('Ctrl Pts',(1443.79733862766,-859.000012800097,-59.9999999999999));
#1106=CARTESIAN_POINT('',(1443.79733862766,-859.000012800097,-59.9999999999999));
#1107=CARTESIAN_POINT('Origin',(1490.79999882728,-859.000012800097,-59.9999999999999));
#1108=CARTESIAN_POINT('',(1300.9687700568,-859.000012800097,1.4210854715202E-13));
#1109=CARTESIAN_POINT('Origin',(1300.9687700568,-859.000012800097,-200.));
#1110=CARTESIAN_POINT('',(1667.43708476335,-789.464156664421,1.77635683940025E-13));
#1111=CARTESIAN_POINT('Origin',(1490.79999882728,-859.000012800097,1.4210854715202E-13));
#1112=CARTESIAN_POINT('',(1652.73348292933,-794.433493527036,-0.601549357006164));
#1113=CARTESIAN_POINT('Ctrl Pts',(1667.43708476335,-789.464156664421,1.77635683940025E-13));
#1114=CARTESIAN_POINT('Ctrl Pts',(1667.40879936162,-789.47370064744,1.77635683940025E-13));
#1115=CARTESIAN_POINT('Ctrl Pts',(1667.38051396946,-789.483244674672,-6.66720101349938E-6));
#1116=CARTESIAN_POINT('Ctrl Pts',(1662.46780320079,-791.140894671411,-0.00232263296052082));
#1117=CARTESIAN_POINT('Ctrl Pts',(1657.59088591468,-792.787910934725,-0.203433770232726));
#1118=CARTESIAN_POINT('Ctrl Pts',(1652.73348292933,-794.433493527038,-0.601549357006244));
#1119=CARTESIAN_POINT('',(1330.48938686358,-793.380488374738,-0.690966941766291));
#1120=CARTESIAN_POINT('Ctrl Pts',(1652.73348292933,-794.433493527036,-0.601549357006254));
#1121=CARTESIAN_POINT('Ctrl Pts',(1630.68496271191,-780.058408069864,-1.7797397601825));
#1122=CARTESIAN_POINT('Ctrl Pts',(1607.96828932679,-768.050797058309,-4.50351042201852));
#1123=CARTESIAN_POINT('Ctrl Pts',(1568.38003083336,-752.887218080004,-8.89302648186639));
#1124=CARTESIAN_POINT('Ctrl Pts',(1551.71919113187,-748.086972452431,-10.6371869948156));
#1125=CARTESIAN_POINT('Ctrl Pts',(1521.98706949258,-742.738249114759,-12.676725329565));
#1126=CARTESIAN_POINT('Ctrl Pts',(1509.29906993356,-741.428396451944,-13.219795846538));
#1127=CARTESIAN_POINT('Ctrl Pts',(1484.12184931512,-740.841517667728,-13.45928237));
#1128=CARTESIAN_POINT('Ctrl Pts',(1471.86878318658,-741.493422475634,-13.1852223713139));
#1129=CARTESIAN_POINT('Ctrl Pts',(1444.45484429861,-745.005624077902,-11.7991401233084));
#1130=CARTESIAN_POINT('Ctrl Pts',(1429.5971944681,-748.327852645415,-10.5159774710227));
#1131=CARTESIAN_POINT('Ctrl Pts',(1389.69293176217,-760.708269007091,-6.43959014511648));
#1132=CARTESIAN_POINT('Ctrl Pts',(1365.60375094427,-772.074561795158,-3.31376471380342));
#1133=CARTESIAN_POINT('Ctrl Pts',(1338.5690687117,-788.256531748939,-1.19806777298525));
#1134=CARTESIAN_POINT('Ctrl Pts',(1334.50913413149,-790.784820946307,-0.919058693974204));
#1135=CARTESIAN_POINT('Ctrl Pts',(1330.48938686358,-793.380488374738,-0.690966941766255));
#1136=CARTESIAN_POINT('',(1314.73277987726,-788.033613513425,1.06581410364015E-13));
#1137=CARTESIAN_POINT('Ctrl Pts',(1330.48938686358,-793.380488374738,-0.690966941766291));
#1138=CARTESIAN_POINT('Ctrl Pts',(1325.28437530702,-791.609022681404,-0.233581610658403));
#1139=CARTESIAN_POINT('Ctrl Pts',(1320.05528206737,-789.83607845135,-0.00246737426717658));
#1140=CARTESIAN_POINT('Ctrl Pts',(1314.78885181803,-788.052602094108,-6.55013430161944E-6));
#1141=CARTESIAN_POINT('Ctrl Pts',(1314.7608158578,-788.043107777575,1.06581410364015E-13));
#1142=CARTESIAN_POINT('Ctrl Pts',(1314.73277987726,-788.033613513425,1.06581410364015E-13));
#1143=CARTESIAN_POINT('Origin',(1490.79999882728,-859.000012800097,1.4210854715202E-13));
#1144=CARTESIAN_POINT('Origin',(1667.43708476335,-591.609649156748,-180.));
#1145=CARTESIAN_POINT('',(1667.43708476335,-249.282204009678,1.77635683940025E-13));
#1146=CARTESIAN_POINT('',(1667.43708476335,-591.609649156748,1.77635683940025E-13));
#1147=CARTESIAN_POINT('',(1554.2999997735,-362.419288999526,-39.9999999999999));
#1148=CARTESIAN_POINT('Origin',(1667.43708476335,-249.282204009678,-180.));
#1149=CARTESIAN_POINT('',(1554.2999997735,-696.000010371208,-39.9999999999999));
#1150=CARTESIAN_POINT('',(1554.2999997735,-591.609649156748,-39.9999999999999));
#1151=CARTESIAN_POINT('Origin',(1667.43708476335,-809.137095361056,-180.));
#1152=CARTESIAN_POINT('Origin',(1450.6500024721,-820.800009313971,1.4210854715202E-13));
#1153=CARTESIAN_POINT('',(1147.79999490827,-76.5999964997172,1.06581410364015E-13));
#1154=CARTESIAN_POINT('',(1753.50001003593,-76.5999964997172,1.77635683940025E-13));
#1155=CARTESIAN_POINT('',(1612.07500625402,-76.5999964997172,1.4210854715202E-13));
#1156=CARTESIAN_POINT('',(1147.79999490827,-1565.00002212822,1.06581410364015E-13));
#1157=CARTESIAN_POINT('',(1147.79999490827,-438.700002906844,1.06581410364015E-13));
#1158=CARTESIAN_POINT('',(1753.50001003593,-1565.00002212822,1.77635683940025E-13));
#1159=CARTESIAN_POINT('',(1289.22499869019,-1565.00002212822,1.06581410364015E-13));
#1160=CARTESIAN_POINT('',(1753.50001003593,-1202.9000157211,1.77635683940025E-13));
#1161=CARTESIAN_POINT('',(1314.73277987726,-249.282204009678,1.06581410364015E-13));
#1162=CARTESIAN_POINT('',(1314.73277987726,-758.400009842589,1.06581410364015E-13));
#1163=CARTESIAN_POINT('',(1439.25993366961,-249.282204009678,1.4210854715202E-13));
#1164=CARTESIAN_POINT('Origin',(1127.79999490827,-76.5999964997172,-19.9999999999999));
#1165=CARTESIAN_POINT('',(1147.79999490827,-56.5999964997172,-19.9999999999999));
#1166=CARTESIAN_POINT('',(1147.79999490827,-56.5999964997172,-19.9999999999999));
#1167=CARTESIAN_POINT('',(1127.79999490827,-76.5999964997172,-19.9999999999999));
#1168=CARTESIAN_POINT('',(1127.79999490827,-76.5999964997172,-19.9999999999999));
#1169=CARTESIAN_POINT('',(1147.79999490827,-76.5999964997172,1.06581410364015E-13));
#1170=CARTESIAN_POINT('Origin',(1137.79999490827,-66.5999964997172,-39.9999999999999));
#1171=CARTESIAN_POINT('',(1147.79999490827,-56.5999964997172,-39.9999999999999));
#1172=CARTESIAN_POINT('',(1127.79999490827,-76.5999964997172,-39.9999999999999));
#1173=CARTESIAN_POINT('',(1027.46249359567,-176.937497812323,-39.9999999999999));
#1174=CARTESIAN_POINT('',(1127.79999490827,-76.5999964997172,-39.9999999999999));
#1175=CARTESIAN_POINT('',(1147.79999490827,-56.5999964997172,-39.9999999999999));
#1176=CARTESIAN_POINT('Origin',(1147.79999490827,-1585.00002212822,-19.9999999999999));
#1177=CARTESIAN_POINT('',(1127.79999490827,-1565.00002212822,-19.9999999999999));
#1178=CARTESIAN_POINT('',(1127.79999490827,-1565.00002212822,-19.9999999999999));
#1179=CARTESIAN_POINT('',(1147.79999490827,-1585.00002212822,-19.9999999999999));
#1180=CARTESIAN_POINT('',(1147.79999490827,-1585.00002212822,-19.9999999999999));
#1181=CARTESIAN_POINT('',(1147.79999490827,-1565.00002212822,1.06581410364015E-13));
#1182=CARTESIAN_POINT('Origin',(1137.79999490827,-1575.00002212822,-39.9999999999999));
#1183=CARTESIAN_POINT('',(1127.79999490827,-1565.00002212822,-39.9999999999999));
#1184=CARTESIAN_POINT('',(1147.79999490827,-1585.00002212822,-39.9999999999999));
#1185=CARTESIAN_POINT('',(1027.46249359567,-1464.66252081562,-39.9999999999999));
#1186=CARTESIAN_POINT('',(1147.79999490827,-1585.00002212822,-39.9999999999999));
#1187=CARTESIAN_POINT('',(1127.79999490827,-1565.00002212822,-39.9999999999999));
#1188=CARTESIAN_POINT('Origin',(1753.50001003593,-56.5999964997172,-19.9999999999998));
#1189=CARTESIAN_POINT('',(1773.50001003593,-76.5999964997172,-19.9999999999998));
#1190=CARTESIAN_POINT('',(1773.50001003593,-76.5999964997172,-19.9999999999998));
#1191=CARTESIAN_POINT('',(1753.50001003593,-56.5999964997172,-19.9999999999998));
#1192=CARTESIAN_POINT('',(1753.50001003593,-56.5999964997172,-19.9999999999998));
#1193=CARTESIAN_POINT('',(1753.50001003593,-76.5999964997172,1.77635683940025E-13));
#1194=CARTESIAN_POINT('Origin',(1763.50001003593,-66.5999964997172,-39.9999999999998));
#1195=CARTESIAN_POINT('',(1773.50001003593,-76.5999964997172,-39.9999999999998));
#1196=CARTESIAN_POINT('',(1753.50001003593,-56.5999964997172,-39.9999999999998));
#1197=CARTESIAN_POINT('',(1873.83751134854,-176.937497812323,-39.9999999999998));
#1198=CARTESIAN_POINT('',(1753.50001003593,-56.5999964997172,-39.9999999999998));
#1199=CARTESIAN_POINT('',(1773.50001003593,-76.5999964997172,-39.9999999999998));
#1200=CARTESIAN_POINT('Origin',(1612.07500625402,-66.5999964997172,-9.99999999999986));
#1201=CARTESIAN_POINT('',(1612.07500625402,-56.5999964997172,-19.9999999999999));
#1202=CARTESIAN_POINT('Origin',(1773.50001003593,-1565.00002212822,-19.9999999999998));
#1203=CARTESIAN_POINT('',(1753.50001003593,-1585.00002212822,-19.9999999999998));
#1204=CARTESIAN_POINT('',(1753.50001003593,-1585.00002212822,-19.9999999999998));
#1205=CARTESIAN_POINT('',(1773.50001003593,-1565.00002212822,-19.9999999999998));
#1206=CARTESIAN_POINT('',(1773.50001003593,-1565.00002212822,-19.9999999999998));
#1207=CARTESIAN_POINT('',(1753.50001003593,-1565.00002212822,1.77635683940025E-13));
#1208=CARTESIAN_POINT('Origin',(1763.50001003593,-1575.00002212822,-39.9999999999998));
#1209=CARTESIAN_POINT('',(1753.50001003593,-1585.00002212822,-39.9999999999998));
#1210=CARTESIAN_POINT('',(1773.50001003593,-1565.00002212822,-39.9999999999998));
#1211=CARTESIAN_POINT('',(1873.83751134854,-1464.66252081562,-39.9999999999998));
#1212=CARTESIAN_POINT('',(1773.50001003593,-1565.00002212822,-39.9999999999998));
#1213=CARTESIAN_POINT('',(1753.50001003593,-1585.00002212822,-39.9999999999998));
#1214=CARTESIAN_POINT('Origin',(1763.50001003593,-1202.9000157211,-9.99999999999982));
#1215=CARTESIAN_POINT('',(1773.50001003593,-1202.9000157211,-19.9999999999998));
#1216=CARTESIAN_POINT('Origin',(1289.22499869019,-1575.00002212822,-9.99999999999989));
#1217=CARTESIAN_POINT('',(1289.22499869019,-1585.00002212822,-19.9999999999999));
#1218=CARTESIAN_POINT('Origin',(1137.79999490827,-438.700002906844,-9.99999999999989));
#1219=CARTESIAN_POINT('',(1127.79999490827,-438.700002906844,-19.9999999999999));
#1220=CARTESIAN_POINT('Origin',(1773.50001003593,-56.5999964997172,-39.9999999999998));
#1221=CARTESIAN_POINT('',(1773.50001003593,-56.5999964997172,-39.9999999999998));
#1222=CARTESIAN_POINT('Origin',(1773.50001003593,-1585.00002212822,-39.9999999999998));
#1223=CARTESIAN_POINT('',(1773.50001003593,-1585.00002212822,-39.9999999999998));
#1224=CARTESIAN_POINT('Origin',(1450.6500024721,-820.800009313971,-39.9999999999999));
#1225=CARTESIAN_POINT('',(1127.79999490827,-1585.00002212822,-39.9999999999999));
#1226=CARTESIAN_POINT('',(1127.79999490827,-56.5999964997172,-39.9999999999999));
#1227=CARTESIAN_POINT('',(1177.79999490827,-86.5999964997172,-39.9999999999999));
#1228=CARTESIAN_POINT('',(1723.50001003593,-86.5999964997172,-39.9999999999998));
#1229=CARTESIAN_POINT('',(1177.79999490827,-86.5999964997172,-39.9999999999999));
#1230=CARTESIAN_POINT('',(1177.79999490827,-1555.00002212822,-39.9999999999999));
#1231=CARTESIAN_POINT('',(1177.79999490827,-1555.00002212822,-39.9999999999999));
#1232=CARTESIAN_POINT('',(1723.50001003593,-1555.00002212822,-39.9999999999998));
#1233=CARTESIAN_POINT('',(1723.50001003593,-1555.00002212822,-39.9999999999998));
#1234=CARTESIAN_POINT('',(1723.50001003593,-86.5999964997172,-39.9999999999998));
#1235=CARTESIAN_POINT('Origin',(1314.73277987726,-758.400009842589,-180.));
#1236=CARTESIAN_POINT('',(1427.86986486711,-696.000010371208,-39.9999999999999));
#1237=CARTESIAN_POINT('Origin',(1314.73277987726,-809.137095361056,-180.));
#1238=CARTESIAN_POINT('',(1427.86986486711,-362.419288999526,-39.9999999999999));
#1239=CARTESIAN_POINT('',(1427.86986486711,-758.400009842589,-39.9999999999999));
#1240=CARTESIAN_POINT('Origin',(1314.73277987726,-249.282204009678,-180.));
#1241=CARTESIAN_POINT('Origin',(1502.4750011228,-809.137095361056,-180.));
#1242=CARTESIAN_POINT('',(1502.4750011228,-696.000010371208,-39.9999999999999));
#1243=CARTESIAN_POINT('Origin',(1439.25993366961,-249.282204009678,-180.));
#1244=CARTESIAN_POINT('',(1439.25993366961,-362.419288999526,-39.9999999999999));
#1245=CARTESIAN_POINT('Origin',(1127.79999490827,-1585.00002212822,-39.9999999999999));
#1246=CARTESIAN_POINT('Origin',(1127.79999490827,-56.5999964997172,-39.9999999999999));
#1247=CARTESIAN_POINT('Origin',(1407.86986486711,-758.400009842589,-39.9999999999999));
#1248=CARTESIAN_POINT('',(1407.86986486711,-716.000010371208,-59.9999999999999));
#1249=CARTESIAN_POINT('',(1407.86986486711,-342.419288999526,-59.9999999999999));
#1250=CARTESIAN_POINT('',(1407.86986486711,-758.400009842589,-59.9999999999999));
#1251=CARTESIAN_POINT('Origin',(1407.86986486711,-342.419288999526,-39.9999999999999));
#1252=CARTESIAN_POINT('Origin',(1407.86986486711,-716.000010371208,-39.9999999999999));
#1253=CARTESIAN_POINT('Origin',(1502.4750011228,-716.000010371208,-39.9999999999999));
#1254=CARTESIAN_POINT('',(1574.2999997735,-716.000010371208,-59.9999999999999));
#1255=CARTESIAN_POINT('Origin',(1574.2999997735,-716.000010371208,-39.9999999999999));
#1256=CARTESIAN_POINT('',(1502.4750011228,-716.000010371208,-59.9999999999999));
#1257=CARTESIAN_POINT('Origin',(1574.2999997735,-591.609649156748,-39.9999999999999));
#1258=CARTESIAN_POINT('',(1574.2999997735,-342.419288999526,-59.9999999999999));
#1259=CARTESIAN_POINT('',(1574.2999997735,-591.609649156748,-59.9999999999999));
#1260=CARTESIAN_POINT('Origin',(1574.2999997735,-342.419288999526,-39.9999999999999));
#1261=CARTESIAN_POINT('Origin',(1439.25993366961,-342.419288999526,-39.9999999999999));
#1262=CARTESIAN_POINT('',(1439.25993366961,-342.419288999526,-59.9999999999999));
#1263=CARTESIAN_POINT('Origin',(1450.6500024721,-820.800009313971,-59.9999999999999));
#1264=CARTESIAN_POINT('',(1197.79999490827,-1555.00002212822,-59.9999999999999));
#1265=CARTESIAN_POINT('',(1197.79999490827,-86.5999964997172,-59.9999999999999));
#1266=CARTESIAN_POINT('',(1197.79999490827,-453.700002906844,-59.9999999999999));
#1267=CARTESIAN_POINT('',(1703.50001003593,-86.5999964997172,-59.9999999999998));
#1268=CARTESIAN_POINT('',(1177.79999490827,-86.5999964997172,-59.9999999999999));
#1269=CARTESIAN_POINT('',(1703.50001003593,-1555.00002212822,-59.9999999999998));
#1270=CARTESIAN_POINT('',(1703.50001003593,-1187.9000157211,-59.9999999999998));
#1271=CARTESIAN_POINT('',(1723.50001003593,-1555.00002212822,-59.9999999999998));
#1272=CARTESIAN_POINT('Origin',(1167.29999490827,-1187.9000157211,-84.4999999999999));
#1273=CARTESIAN_POINT('',(1171.79999490827,-86.5999964997172,-79.9999999999999));
#1274=CARTESIAN_POINT('',(1162.79999490827,-86.5999964997172,-88.9999999999999));
#1275=CARTESIAN_POINT('',(1181.04999490827,-86.5999964997172,-70.75));
#1276=CARTESIAN_POINT('',(1162.79999490827,-1555.00002212822,-88.9999999999999));
#1277=CARTESIAN_POINT('',(1162.79999490827,-1187.9000157211,-88.9999999999999));
#1278=CARTESIAN_POINT('',(1171.79999490827,-1555.00002212822,-79.9999999999999));
#1279=CARTESIAN_POINT('',(1317.47499869019,-1555.00002212822,65.6750037819148));
#1280=CARTESIAN_POINT('',(1171.79999490827,-1187.9000157211,-79.9999999999999));
#1281=CARTESIAN_POINT('Origin',(1162.79999490827,-820.800009313971,-89.9999999999999));
#1282=CARTESIAN_POINT('',(1162.79999490827,-86.5999964997172,-90.9999999999999));
#1283=CARTESIAN_POINT('',(1162.79999490827,-86.5999964997172,-79.9999999999999));
#1284=CARTESIAN_POINT('',(1162.79999490827,-1555.00002212822,-90.9999999999999));
#1285=CARTESIAN_POINT('',(1162.79999490827,-820.800009313971,-90.9999999999999));
#1286=CARTESIAN_POINT('',(1162.79999490827,-1555.00002212822,-99.9999999999999));
#1287=CARTESIAN_POINT('Origin',(1177.79999490827,-86.5999964997172,-39.9999999999999));
#1288=CARTESIAN_POINT('',(1177.79999490827,-86.5999964997172,-79.9999999999999));
#1289=CARTESIAN_POINT('',(1177.79999490827,-86.5999964997172,-79.9999999999999));
#1290=CARTESIAN_POINT('',(1177.79999490827,-86.5999964997172,-39.9999999999999));
#1291=CARTESIAN_POINT('',(1723.50001003593,-86.5999964997172,-79.9999999999998));
#1292=CARTESIAN_POINT('',(1723.50001003593,-86.5999964997172,-39.9999999999998));
#1293=CARTESIAN_POINT('',(1729.50001003593,-86.5999964997172,-79.9999999999998));
#1294=CARTESIAN_POINT('',(1723.50001003593,-86.5999964997172,-79.9999999999998));
#1295=CARTESIAN_POINT('',(1738.50001003593,-86.5999964997172,-88.9999999999998));
#1296=CARTESIAN_POINT('',(1583.82500625402,-86.5999964997172,65.6750037819148));
#1297=CARTESIAN_POINT('',(1738.50001003593,-86.5999964997172,-90.9999999999998));
#1298=CARTESIAN_POINT('',(1738.50001003593,-86.5999964997172,-99.9999999999998));
#1299=CARTESIAN_POINT('',(1729.50001003593,-86.5999964997172,-99.9999999999998));
#1300=CARTESIAN_POINT('',(1608.82500625402,-86.5999964997172,-220.675003781915));
#1301=CARTESIAN_POINT('',(1703.50001003593,-86.5999964997172,-99.9999999999998));
#1302=CARTESIAN_POINT('',(1723.50001003593,-86.5999964997172,-99.9999999999998));
#1303=CARTESIAN_POINT('',(1703.50001003593,-86.5999964997172,-59.9999999999998));
#1304=CARTESIAN_POINT('',(1197.79999490827,-86.5999964997172,-99.9999999999999));
#1305=CARTESIAN_POINT('',(1197.79999490827,-86.5999964997172,-59.9999999999999));
#1306=CARTESIAN_POINT('',(1171.79999490827,-86.5999964997172,-99.9999999999999));
#1307=CARTESIAN_POINT('',(1177.79999490827,-86.5999964997172,-99.9999999999999));
#1308=CARTESIAN_POINT('',(1156.04999490827,-86.5999964997172,-84.25));
#1309=CARTESIAN_POINT('Origin',(1167.29999490827,-820.800009313971,-95.4999999999999));
#1310=CARTESIAN_POINT('',(1171.79999490827,-1555.00002212822,-99.9999999999999));
#1311=CARTESIAN_POINT('',(1292.47499869019,-1555.00002212822,-220.675003781915));
#1312=CARTESIAN_POINT('',(1171.79999490827,-820.800009313971,-99.9999999999999));
#1313=CARTESIAN_POINT('Origin',(1187.79999490827,-820.800009313971,-99.9999999999999));
#1314=CARTESIAN_POINT('',(1197.79999490827,-1555.00002212822,-99.9999999999999));
#1315=CARTESIAN_POINT('',(1197.79999490827,-1555.00002212822,-99.9999999999999));
#1316=CARTESIAN_POINT('',(1177.79999490827,-1555.00002212822,-99.9999999999999));
#1317=CARTESIAN_POINT('Origin',(1734.00001003593,-453.700002906844,-84.4999999999998));
#1318=CARTESIAN_POINT('',(1729.50001003593,-1555.00002212822,-79.9999999999998));
#1319=CARTESIAN_POINT('',(1738.50001003593,-1555.00002212822,-88.9999999999998));
#1320=CARTESIAN_POINT('',(1720.25001003593,-1555.00002212822,-70.7499999999999));
#1321=CARTESIAN_POINT('',(1738.50001003593,-453.700002906844,-88.9999999999998));
#1322=CARTESIAN_POINT('',(1729.50001003593,-453.700002906844,-79.9999999999998));
#1323=CARTESIAN_POINT('Origin',(1723.50001003593,-86.5999964997172,-79.9999999999998));
#1324=CARTESIAN_POINT('',(1723.50001003593,-1555.00002212822,-79.9999999999998));
#1325=CARTESIAN_POINT('',(1723.50001003593,-86.5999964997172,-79.9999999999998));
#1326=CARTESIAN_POINT('',(1723.50001003593,-1555.00002212822,-79.9999999999998));
#1327=CARTESIAN_POINT('Origin',(1734.00001003593,-820.800009313971,-95.4999999999998));
#1328=CARTESIAN_POINT('',(1738.50001003593,-1555.00002212822,-90.9999999999998));
#1329=CARTESIAN_POINT('',(1738.50001003593,-820.800009313971,-90.9999999999998));
#1330=CARTESIAN_POINT('',(1729.50001003593,-1555.00002212822,-99.9999999999998));
#1331=CARTESIAN_POINT('',(1745.25001003593,-1555.00002212822,-84.2499999999998));
#1332=CARTESIAN_POINT('',(1729.50001003593,-820.800009313971,-99.9999999999998));
#1333=CARTESIAN_POINT('Origin',(1713.50001003593,-820.800009313971,-99.9999999999998));
#1334=CARTESIAN_POINT('',(1703.50001003593,-1555.00002212822,-99.9999999999998));
#1335=CARTESIAN_POINT('',(1723.50001003593,-1555.00002212822,-99.9999999999998));
#1336=CARTESIAN_POINT('',(1703.50001003593,-86.5999964997172,-99.9999999999998));
#1337=CARTESIAN_POINT('Origin',(1738.50001003593,-820.800009313971,-89.9999999999998));
#1338=CARTESIAN_POINT('',(1738.50001003593,-1555.00002212822,-79.9999999999998));
#1339=CARTESIAN_POINT('Origin',(1177.79999490827,-1555.00002212822,-79.9999999999999));
#1340=CARTESIAN_POINT('',(1177.79999490827,-1555.00002212822,-79.9999999999999));
#1341=CARTESIAN_POINT('',(1177.79999490827,-1555.00002212822,-79.9999999999999));
#1342=CARTESIAN_POINT('',(1177.79999490827,-1555.00002212822,-79.9999999999999));
#1343=CARTESIAN_POINT('Origin',(1197.79999490827,-86.5999964997172,-59.9999999999999));
#1344=CARTESIAN_POINT('',(1197.79999490827,-1555.00002212822,-59.9999999999999));
#1345=CARTESIAN_POINT('Origin',(1703.50001003593,-1555.00002212822,-59.9999999999998));
#1346=CARTESIAN_POINT('',(1703.50001003593,-1555.00002212822,-59.9999999999998));
#1347=CARTESIAN_POINT('Origin',(1177.79999490827,-1555.00002212822,-39.9999999999999));
#1348=CARTESIAN_POINT('',(1177.79999490827,-1555.00002212822,-39.9999999999999));
#1349=CARTESIAN_POINT('Origin',(1723.50001003593,-1555.00002212822,-39.9999999999998));
#1350=CARTESIAN_POINT('',(1723.50001003593,-1555.00002212822,-39.9999999999998));
#1351=CARTESIAN_POINT('Origin',(1723.50001003593,-86.5999964997172,-39.9999999999998));
#1352=UNCERTAINTY_MEASURE_WITH_UNIT(LENGTH_MEASURE(0.01),#1356,
'DISTANCE_ACCURACY_VALUE',
'Maximum model space distance between geometric entities at asserted c
onnectivities');
#1353=UNCERTAINTY_MEASURE_WITH_UNIT(LENGTH_MEASURE(0.01),#1356,
'DISTANCE_ACCURACY_VALUE',
'Maximum model space distance between geometric entities at asserted c
onnectivities');
#1354=(
GEOMETRIC_REPRESENTATION_CONTEXT(3)
GLOBAL_UNCERTAINTY_ASSIGNED_CONTEXT((#1352))
GLOBAL_UNIT_ASSIGNED_CONTEXT((#1356,#1358,#1359))
REPRESENTATION_CONTEXT('','3D')
);
#1355=(
GEOMETRIC_REPRESENTATION_CONTEXT(3)
GLOBAL_UNCERTAINTY_ASSIGNED_CONTEXT((#1353))
GLOBAL_UNIT_ASSIGNED_CONTEXT((#1356,#1358,#1359))
REPRESENTATION_CONTEXT('','3D')
);
#1356=(
LENGTH_UNIT()
NAMED_UNIT(*)
SI_UNIT(.MILLI.,.METRE.)
);
#1357=(
LENGTH_UNIT()
NAMED_UNIT(*)
SI_UNIT($,.METRE.)
);
#1358=(
NAMED_UNIT(*)
PLANE_ANGLE_UNIT()
SI_UNIT($,.RADIAN.)
);
#1359=(
NAMED_UNIT(*)
SI_UNIT($,.STERADIAN.)
SOLID_ANGLE_UNIT()
);
#1360=SHAPE_DEFINITION_REPRESENTATION(#1361,#1362);
#1361=PRODUCT_DEFINITION_SHAPE('',$,#1364);
#1362=SHAPE_REPRESENTATION('',(#815),#1354);
#1363=PRODUCT_DEFINITION_CONTEXT('part definition',#1368,'design');
#1364=PRODUCT_DEFINITION('assemble','assemble v2',#1365,#1363);
#1365=PRODUCT_DEFINITION_FORMATION('',$,#1370);
#1366=PRODUCT_RELATED_PRODUCT_CATEGORY('assemble v2','assemble v2',(#1370));
#1367=APPLICATION_PROTOCOL_DEFINITION('international standard',
'automotive_design',2009,#1368);
#1368=APPLICATION_CONTEXT(
'Core Data for Automotive Mechanical Design Process');
#1369=PRODUCT_CONTEXT('part definition',#1368,'mechanical');
#1370=PRODUCT('assemble','assemble v2',$,(#1369));
#1371=PRESENTATION_STYLE_ASSIGNMENT((#1372));
#1372=SURFACE_STYLE_USAGE(.BOTH.,#1373);
#1373=SURFACE_SIDE_STYLE('',(#1374));
#1374=SURFACE_STYLE_FILL_AREA(#1375);
#1375=FILL_AREA_STYLE('Steel - Satin',(#1376));
#1376=FILL_AREA_STYLE_COLOUR('Steel - Satin',#1377);
#1377=COLOUR_RGB('Steel - Satin',0.627450980392157,0.627450980392157,0.627450980392157);
ENDSEC;
END-ISO-10303-21;
