%TF.GenerationSoftware,KiCad,Pcbnew,10.0.1*%
%TF.CreationDate,2026-05-22T19:31:46+02:00*%
%TF.ProjectId,final,66696e61-6c2e-46b6-9963-61645f706362,rev?*%
%TF.SameCoordinates,Original*%
%TF.FileFunction,Soldermask,Top*%
%TF.FilePolarity,Negative*%
%FSLAX46Y46*%
G04 Gerber Fmt 4.6, Leading zero omitted, Abs format (unit mm)*
G04 Created by KiCad (PCBNEW 10.0.1) date 2026-05-22 19:31:46*
%MOMM*%
%LPD*%
G01*
G04 APERTURE LIST*
G04 Aperture macros list*
%AMRoundRect*
0 Rectangle with rounded corners*
0 $1 Rounding radius*
0 $2 $3 $4 $5 $6 $7 $8 $9 X,Y pos of 4 corners*
0 Add a 4 corners polygon primitive as box body*
4,1,4,$2,$3,$4,$5,$6,$7,$8,$9,$2,$3,0*
0 Add four circle primitives for the rounded corners*
1,1,$1+$1,$2,$3*
1,1,$1+$1,$4,$5*
1,1,$1+$1,$6,$7*
1,1,$1+$1,$8,$9*
0 Add four rect primitives between the rounded corners*
20,1,$1+$1,$2,$3,$4,$5,0*
20,1,$1+$1,$4,$5,$6,$7,0*
20,1,$1+$1,$6,$7,$8,$9,0*
20,1,$1+$1,$8,$9,$2,$3,0*%
G04 Aperture macros list end*
%ADD10C,2.500000*%
%ADD11C,1.524000*%
%ADD12R,2.000000X1.200000*%
%ADD13O,2.000000X1.200000*%
%ADD14C,1.600000*%
%ADD15R,2.000000X2.000000*%
%ADD16C,2.000000*%
%ADD17C,2.800000*%
%ADD18RoundRect,0.300000X0.700000X-0.970000X0.700000X0.970000X-0.700000X0.970000X-0.700000X-0.970000X0*%
G04 APERTURE END LIST*
D10*
%TO.C,REF\u002A\u002A*%
X25169444Y-17841801D03*
%TD*%
D11*
%TO.C,REF\u002A\u002A*%
X27810000Y-25780000D03*
X27810000Y-28320000D03*
X27810000Y-30860000D03*
X27810000Y-33400000D03*
X27810000Y-35940000D03*
X27810000Y-38480000D03*
X27810000Y-41020000D03*
X27810000Y-43560000D03*
X27810000Y-46100000D03*
X27810000Y-48640000D03*
X27810000Y-51180000D03*
X27810000Y-53720000D03*
X27810000Y-56260000D03*
X27810000Y-58800000D03*
X27810000Y-61340000D03*
X55750000Y-61340000D03*
X55750000Y-58800000D03*
X55750000Y-56260000D03*
X55750000Y-53720000D03*
X55750000Y-51180000D03*
X55750000Y-48640000D03*
X55750000Y-46100000D03*
X55750000Y-43560000D03*
X55750000Y-41020000D03*
X55750000Y-38480000D03*
X55750000Y-35940000D03*
X55750000Y-33400000D03*
X55750000Y-30860000D03*
X55750000Y-28320000D03*
X55750000Y-25780000D03*
%TD*%
D12*
%TO.C,U3*%
X29200000Y-95580000D03*
D13*
X29200000Y-98120000D03*
X29200000Y-100660000D03*
X29200000Y-103200000D03*
X29200000Y-105740000D03*
X29200000Y-108280000D03*
X29200000Y-110820000D03*
X29200000Y-113360000D03*
X29200000Y-115900000D03*
X29200000Y-118440000D03*
X29200000Y-120980000D03*
X29200000Y-123520000D03*
X29200000Y-126060000D03*
X29200000Y-128600000D03*
X29200000Y-131140000D03*
X29200000Y-133680000D03*
X29200000Y-136220000D03*
X29200000Y-138760000D03*
X29200000Y-141300000D03*
X54596320Y-141297280D03*
X54596320Y-138757280D03*
X54600000Y-136220000D03*
X54600000Y-133680000D03*
X54600000Y-131140000D03*
X54600000Y-128600000D03*
X54600000Y-126060000D03*
X54600000Y-123520000D03*
X54600000Y-120980000D03*
X54600000Y-118440000D03*
X54600000Y-115900000D03*
X54600000Y-113360000D03*
X54600000Y-110820000D03*
X54600000Y-108280000D03*
X54600000Y-105740000D03*
X54600000Y-103200000D03*
X54600000Y-100660000D03*
X54600000Y-98120000D03*
X54600000Y-95580000D03*
%TD*%
D10*
%TO.C,REF\u002A\u002A*%
X58926044Y-17892601D03*
%TD*%
%TO.C,REF\u002A\u002A*%
X58202044Y-144500001D03*
%TD*%
%TO.C,REF\u002A\u002A*%
X25852044Y-144650001D03*
%TD*%
D14*
%TO.C,C1*%
X39600000Y-139450000D03*
X39600000Y-134450000D03*
%TD*%
D15*
%TO.C,SW1*%
X38550000Y-78400000D03*
D16*
X43550000Y-78400000D03*
X41050000Y-78400000D03*
D17*
X46650000Y-85900000D03*
X35450000Y-85900000D03*
D16*
X38550000Y-92900000D03*
X43550000Y-92900000D03*
%TD*%
D18*
%TO.C,U2*%
X36800000Y-73100000D03*
X39594000Y-73100000D03*
X42388000Y-73100000D03*
X45182000Y-73100000D03*
%TD*%
D14*
%TO.C,R1*%
X51170000Y-127400000D03*
X43550000Y-127400000D03*
%TD*%
%TO.C,R2*%
X40960000Y-127600000D03*
X33340000Y-127600000D03*
%TD*%
M02*
