%TF.GenerationSoftware,KiCad,Pcbnew,10.0.1*%
%TF.CreationDate,2026-05-22T19:31:46+02:00*%
%TF.ProjectId,final,66696e61-6c2e-46b6-9963-61645f706362,rev?*%
%TF.SameCoordinates,Original*%
%TF.FileFunction,Copper,L2,Bot*%
%TF.FilePolarity,Positive*%
%FSLAX46Y46*%
G04 Gerber Fmt 4.6, Leading zero omitted, Abs format (unit mm)*
G04 Created by KiCad (PCBNEW 10.0.1) date 2026-05-22 19:31:46*
%MOMM*%
%LPD*%
G01*
G04 APERTURE LIST*
G04 Aperture macros list*
%AMRoundRect*
0 Rectangle with rounded corners*
0 $1 Rounding radius*
0 $2 $3 $4 $5 $6 $7 $8 $9 X,Y pos of 4 corners*
0 Add a 4 corners polygon primitive as box body*
4,1,4,$2,$3,$4,$5,$6,$7,$8,$9,$2,$3,0*
0 Add four circle primitives for the rounded corners*
1,1,$1+$1,$2,$3*
1,1,$1+$1,$4,$5*
1,1,$1+$1,$6,$7*
1,1,$1+$1,$8,$9*
0 Add four rect primitives between the rounded corners*
20,1,$1+$1,$2,$3,$4,$5,0*
20,1,$1+$1,$4,$5,$6,$7,0*
20,1,$1+$1,$6,$7,$8,$9,0*
20,1,$1+$1,$8,$9,$2,$3,0*%
G04 Aperture macros list end*
%TA.AperFunction,ComponentPad*%
%ADD10C,1.524000*%
%TD*%
%TA.AperFunction,ComponentPad*%
%ADD11R,2.000000X1.200000*%
%TD*%
%TA.AperFunction,ComponentPad*%
%ADD12O,2.000000X1.200000*%
%TD*%
%TA.AperFunction,SMDPad,CuDef*%
%ADD13RoundRect,1.000000X-3.000000X1.000000X-3.000000X-1.000000X3.000000X-1.000000X3.000000X1.000000X0*%
%TD*%
%TA.AperFunction,ComponentPad*%
%ADD14C,1.600000*%
%TD*%
%TA.AperFunction,ComponentPad*%
%ADD15R,2.000000X2.000000*%
%TD*%
%TA.AperFunction,ComponentPad*%
%ADD16C,2.000000*%
%TD*%
%TA.AperFunction,ComponentPad*%
%ADD17C,2.800000*%
%TD*%
%TA.AperFunction,SMDPad,CuDef*%
%ADD18RoundRect,1.000000X1.000000X3.000000X-1.000000X3.000000X-1.000000X-3.000000X1.000000X-3.000000X0*%
%TD*%
%TA.AperFunction,ComponentPad*%
%ADD19RoundRect,0.300000X0.700000X-0.970000X0.700000X0.970000X-0.700000X0.970000X-0.700000X-0.970000X0*%
%TD*%
%TA.AperFunction,ViaPad*%
%ADD20C,0.600000*%
%TD*%
%TA.AperFunction,Conductor*%
%ADD21C,0.500000*%
%TD*%
%TA.AperFunction,Conductor*%
%ADD22C,0.200000*%
%TD*%
G04 APERTURE END LIST*
D10*
%TO.P,REF\u002A\u002A,1*%
%TO.N,N/C*%
X27810000Y-25780000D03*
%TO.P,REF\u002A\u002A,2*%
X27810000Y-28320000D03*
%TO.P,REF\u002A\u002A,3*%
X27810000Y-30860000D03*
%TO.P,REF\u002A\u002A,4*%
X27810000Y-33400000D03*
%TO.P,REF\u002A\u002A,5*%
X27810000Y-35940000D03*
%TO.P,REF\u002A\u002A,6*%
X27810000Y-38480000D03*
%TO.P,REF\u002A\u002A,7*%
X27810000Y-41020000D03*
%TO.P,REF\u002A\u002A,8*%
X27810000Y-43560000D03*
%TO.P,REF\u002A\u002A,9*%
X27810000Y-46100000D03*
%TO.P,REF\u002A\u002A,10*%
%TO.N,GND*%
X27810000Y-48640000D03*
%TO.P,REF\u002A\u002A,11*%
%TO.N,N/C*%
X27810000Y-51180000D03*
%TO.P,REF\u002A\u002A,12*%
%TO.N,/GPIO 5*%
X27810000Y-53720000D03*
%TO.P,REF\u002A\u002A,13*%
%TO.N,N/C*%
X27810000Y-56260000D03*
%TO.P,REF\u002A\u002A,14*%
X27810000Y-58800000D03*
%TO.P,REF\u002A\u002A,15*%
%TO.N,+5V*%
X27810000Y-61340000D03*
%TO.P,REF\u002A\u002A,16*%
%TO.N,+3.3V*%
X55750000Y-61340000D03*
%TO.P,REF\u002A\u002A,17*%
%TO.N,GND*%
X55750000Y-58800000D03*
%TO.P,REF\u002A\u002A,18*%
%TO.N,/GPIO 1*%
X55750000Y-56260000D03*
%TO.P,REF\u002A\u002A,19*%
%TO.N,/GPIO 3*%
X55750000Y-53720000D03*
%TO.P,REF\u002A\u002A,20*%
%TO.N,N/C*%
X55750000Y-51180000D03*
%TO.P,REF\u002A\u002A,21*%
X55750000Y-48640000D03*
%TO.P,REF\u002A\u002A,22*%
X55750000Y-46100000D03*
%TO.P,REF\u002A\u002A,23*%
X55750000Y-43560000D03*
%TO.P,REF\u002A\u002A,24*%
X55750000Y-41020000D03*
%TO.P,REF\u002A\u002A,25*%
X55750000Y-38480000D03*
%TO.P,REF\u002A\u002A,26*%
X55750000Y-35940000D03*
%TO.P,REF\u002A\u002A,27*%
X55750000Y-33400000D03*
%TO.P,REF\u002A\u002A,28*%
X55750000Y-30860000D03*
%TO.P,REF\u002A\u002A,29*%
X55750000Y-28320000D03*
%TO.P,REF\u002A\u002A,30*%
X55750000Y-25780000D03*
%TD*%
D11*
%TO.P,U3,1,3V3_1*%
%TO.N,+3.3V*%
X29200000Y-95580000D03*
D12*
%TO.P,U3,2,CHIP_PU_2*%
%TO.N,unconnected-(U3-CHIP_PU-Pad2)*%
X29200000Y-98120000D03*
%TO.P,U3,3,SENSOR_VP/GPIO36/ADC1_CH0_3*%
%TO.N,unconnected-(U3-SENSOR_VP{slash}GPIO36{slash}ADC1_CH0-Pad3)*%
X29200000Y-100660000D03*
%TO.P,U3,4,SENSOR_VN/GPIO39/ADC1_CH3_4*%
%TO.N,unconnected-(U3-SENSOR_VN{slash}GPIO39{slash}ADC1_CH3-Pad4)*%
X29200000Y-103200000D03*
%TO.P,U3,5,VDET_1/GPIO34/ADC1_CH6_5*%
%TO.N,/GPIO 34*%
X29200000Y-105740000D03*
%TO.P,U3,6,VDET_2/GPIO35/ADC1_CH7_6*%
%TO.N,unconnected-(U3-VDET_2{slash}GPIO35{slash}ADC1_CH7-Pad6)*%
X29200000Y-108280000D03*
%TO.P,U3,7,32K_XP/GPIO32/ADC1_CH4_7*%
%TO.N,/GPIO 32*%
X29200000Y-110820000D03*
%TO.P,U3,8,32K_XN/GPIO33/ADC1_CH5_8*%
%TO.N,/GPIO 33*%
X29200000Y-113360000D03*
%TO.P,U3,9,DAC_1/ADC2_CH8/GPIO25_9*%
%TO.N,/GPIO 25*%
X29200000Y-115900000D03*
%TO.P,U3,10,DAC_2/ADC2_CH9/GPIO26_10*%
%TO.N,unconnected-(U3-DAC_2{slash}ADC2_CH9{slash}GPIO26-Pad10)*%
X29200000Y-118440000D03*
%TO.P,U3,11,ADC2_CH7/GPIO27_11*%
%TO.N,unconnected-(U3-ADC2_CH7{slash}GPIO27-Pad11)*%
X29200000Y-120980000D03*
%TO.P,U3,12,MTMS/GPIO14/ADC2_CH6_12*%
%TO.N,unconnected-(U3-MTMS{slash}GPIO14{slash}ADC2_CH6-Pad12)*%
X29200000Y-123520000D03*
%TO.P,U3,13,MTDI/GPIO12/ADC2_CH5_13*%
%TO.N,unconnected-(U3-MTDI{slash}GPIO12{slash}ADC2_CH5-Pad13)*%
X29200000Y-126060000D03*
%TO.P,U3,14,GND_14*%
%TO.N,GND*%
X29200000Y-128600000D03*
%TO.P,U3,15,MTCK/GPIO13/ADC2_CH4_15*%
%TO.N,unconnected-(U3-MTCK{slash}GPIO13{slash}ADC2_CH4-Pad15)*%
X29200000Y-131140000D03*
%TO.P,U3,16,SD_DATA2/GPIO9_16*%
%TO.N,unconnected-(U3-SD_DATA2{slash}GPIO9-Pad16)*%
X29200000Y-133680000D03*
%TO.P,U3,17,SD_DATA3/GPIO10_17*%
%TO.N,unconnected-(U3-SD_DATA3{slash}GPIO10-Pad17)*%
X29200000Y-136220000D03*
%TO.P,U3,18,CMD_18*%
%TO.N,unconnected-(U3-CMD-Pad18)*%
X29200000Y-138760000D03*
%TO.P,U3,19,5V_19*%
%TO.N,+5V*%
X29200000Y-141300000D03*
%TO.P,U3,20,SD_CLK/GPIO6_20*%
%TO.N,unconnected-(U3-SD_CLK{slash}GPIO6-Pad20)*%
X54596320Y-141297280D03*
%TO.P,U3,21,SD_DATA0/GPIO7_21*%
%TO.N,unconnected-(U3-SD_DATA0{slash}GPIO7-Pad21)*%
X54596320Y-138757280D03*
%TO.P,U3,22,SD_DATA1/GPIO8_22*%
%TO.N,unconnected-(U3-SD_DATA1{slash}GPIO8-Pad22)*%
X54600000Y-136220000D03*
%TO.P,U3,23,MTDO/GPIO15/ADC2_CH3_23*%
%TO.N,unconnected-(U3-MTDO{slash}GPIO15{slash}ADC2_CH3-Pad23)*%
X54600000Y-133680000D03*
%TO.P,U3,24,ADC2_CH2/GPIO2_24*%
%TO.N,unconnected-(U3-ADC2_CH2{slash}GPIO2-Pad24)*%
X54600000Y-131140000D03*
%TO.P,U3,25,GPIO0/BOOT/ADC2_CH1_25*%
%TO.N,unconnected-(U3-GPIO0{slash}BOOT{slash}ADC2_CH1-Pad25)*%
X54600000Y-128600000D03*
%TO.P,U3,26,ADC2_CH0/GPIO4_26*%
%TO.N,unconnected-(U3-ADC2_CH0{slash}GPIO4-Pad26)*%
X54600000Y-126060000D03*
%TO.P,U3,27,GPIO16_27*%
%TO.N,unconnected-(U3-GPIO16-Pad27)*%
X54600000Y-123520000D03*
%TO.P,U3,28,GPIO17_28*%
%TO.N,/GPIO 17*%
X54600000Y-120980000D03*
%TO.P,U3,29,GPIO5_29*%
%TO.N,/GPIO 5*%
X54600000Y-118440000D03*
%TO.P,U3,30,GPIO18_30*%
%TO.N,/GPIO 18*%
X54600000Y-115900000D03*
%TO.P,U3,31,GPIO19_31*%
%TO.N,/GPIO 19*%
X54600000Y-113360000D03*
%TO.P,U3,32,GND_32*%
%TO.N,GND*%
X54600000Y-110820000D03*
%TO.P,U3,33,GPIO21_33*%
%TO.N,/GPIO 21*%
X54600000Y-108280000D03*
%TO.P,U3,34,U0RXD/GPIO3_34*%
%TO.N,/GPIO 3*%
X54600000Y-105740000D03*
%TO.P,U3,35,U0TXD/GPIO1_35*%
%TO.N,/GPIO 1*%
X54600000Y-103200000D03*
%TO.P,U3,36,GPIO22_36*%
%TO.N,/GPIO 22*%
X54600000Y-100660000D03*
%TO.P,U3,37,GPIO23_37*%
%TO.N,/GPIO 23*%
X54600000Y-98120000D03*
%TO.P,U3,38,GND_38*%
%TO.N,GND*%
X54600000Y-95580000D03*
%TD*%
D13*
%TO.P,REF\u002A\u002A,1*%
%TO.N,/GPIO 17*%
X62450000Y-107600000D03*
%TD*%
D14*
%TO.P,C1,1*%
%TO.N,GND*%
X39600000Y-139450000D03*
%TO.P,C1,2*%
%TO.N,/GPIO 34*%
X39600000Y-134450000D03*
%TD*%
D15*
%TO.P,SW1,A,A_A*%
%TO.N,/GPIO 32*%
X38550000Y-78400000D03*
D16*
%TO.P,SW1,B,B_B*%
%TO.N,/GPIO 33*%
X43550000Y-78400000D03*
%TO.P,SW1,C,C_C*%
%TO.N,GND*%
X41050000Y-78400000D03*
D17*
%TO.P,SW1,MP*%
%TO.N,N/C*%
X46650000Y-85900000D03*
X35450000Y-85900000D03*
D16*
%TO.P,SW1,S1,S1_S1*%
%TO.N,/GPIO 25*%
X38550000Y-92900000D03*
%TO.P,SW1,S2,S2_S2*%
%TO.N,GND*%
X43550000Y-92900000D03*
%TD*%
D13*
%TO.P,REF\u002A\u002A,1*%
%TO.N,/GPIO 18*%
X62550000Y-112650000D03*
%TD*%
D18*
%TO.P,REF\u002A\u002A,1*%
%TO.N,/VBAT*%
X48600000Y-137200000D03*
%TD*%
D13*
%TO.P,REF\u002A\u002A,1*%
%TO.N,/GPIO 23*%
X62750000Y-117950000D03*
%TD*%
%TO.P,REF\u002A\u002A,1*%
%TO.N,/GPIO 19*%
X62800000Y-123600000D03*
%TD*%
D19*
%TO.P,U2,1,GND_1*%
%TO.N,GND*%
X36800000Y-73100000D03*
%TO.P,U2,2,VCC_2*%
%TO.N,+3.3V*%
X39594000Y-73100000D03*
%TO.P,U2,3,SCK_3*%
%TO.N,/GPIO 22*%
X42388000Y-73100000D03*
%TO.P,U2,4,SDA_4*%
%TO.N,/GPIO 21*%
X45182000Y-73100000D03*
%TD*%
D18*
%TO.P,REF\u002A\u002A,1*%
%TO.N,+5V*%
X43600000Y-137150000D03*
%TD*%
D13*
%TO.P,REF\u002A\u002A,1*%
%TO.N,GND*%
X62650000Y-129350000D03*
%TD*%
D18*
%TO.P,REF\u002A\u002A,1*%
%TO.N,GND*%
X35150000Y-137000000D03*
%TD*%
D14*
%TO.P,R1,1*%
%TO.N,/VBAT*%
X51170000Y-127400000D03*
%TO.P,R1,2*%
%TO.N,/GPIO 34*%
X43550000Y-127400000D03*
%TD*%
%TO.P,R2,1*%
%TO.N,GND*%
X40960000Y-127600000D03*
%TO.P,R2,2*%
%TO.N,/GPIO 34*%
X33340000Y-127600000D03*
%TD*%
D13*
%TO.P,REF\u002A\u002A,1*%
%TO.N,+5V*%
X62700000Y-134650000D03*
%TD*%
D20*
%TO.N,GND*%
X46815000Y-103035000D03*
X57900000Y-129450000D03*
X48700000Y-101150000D03*
X35300000Y-142700000D03*
%TO.N,+3.3V*%
X37450000Y-75650000D03*
%TO.N,/GPIO 33*%
X35700000Y-113250000D03*
%TO.N,/GPIO 17*%
X57950000Y-113450000D03*
%TO.N,/GPIO 18*%
X62550000Y-112650000D03*
%TO.N,/GPIO 19*%
X56600000Y-123450000D03*
%TD*%
%TO.N,GND*%
D21*
X35150000Y-137000000D02*
X36650000Y-137000000D01*
X41050000Y-77350000D02*
X41050000Y-78400000D01*
X62650000Y-129350000D02*
X58000000Y-129350000D01*
X37600000Y-139450000D02*
X35150000Y-137000000D01*
X38000000Y-130560000D02*
X40960000Y-127600000D01*
X27900000Y-48550000D02*
X27900000Y-48400000D01*
X27900000Y-48400000D02*
X36800000Y-57300000D01*
X46815000Y-103035000D02*
X43550000Y-99770000D01*
X38000000Y-134150000D02*
X38000000Y-130560000D01*
X43550000Y-99770000D02*
X43550000Y-92900000D01*
X40960000Y-127600000D02*
X40960000Y-124460000D01*
D22*
X54270000Y-95580000D02*
X48700000Y-101150000D01*
D21*
X35150000Y-142550000D02*
X35300000Y-142700000D01*
X58000000Y-129350000D02*
X57900000Y-129450000D01*
X27810000Y-48640000D02*
X27900000Y-48550000D01*
D22*
X54600000Y-95580000D02*
X54270000Y-95580000D01*
D21*
X36800000Y-57300000D02*
X36800000Y-73100000D01*
X35150000Y-137000000D02*
X38000000Y-134150000D01*
X54600000Y-110820000D02*
X46815000Y-103035000D01*
X39600000Y-139450000D02*
X37600000Y-139450000D01*
X43550000Y-92900000D02*
X41050000Y-90400000D01*
X41050000Y-90400000D02*
X41050000Y-78400000D01*
X32000000Y-133850000D02*
X32000000Y-131350000D01*
X35150000Y-137000000D02*
X32000000Y-133850000D01*
X31950000Y-131350000D02*
X29200000Y-128600000D01*
X40960000Y-124460000D02*
X54600000Y-110820000D01*
X35150000Y-137000000D02*
X35150000Y-142550000D01*
X32000000Y-131350000D02*
X31950000Y-131350000D01*
X51100000Y-58800000D02*
X55750000Y-58800000D01*
X36800000Y-73100000D02*
X41050000Y-77350000D01*
X36800000Y-73100000D02*
X51100000Y-58800000D01*
%TO.N,+5V*%
X41300000Y-143450000D02*
X43600000Y-141150000D01*
X27810000Y-61340000D02*
X27150000Y-62000000D01*
X62700000Y-134650000D02*
X62700000Y-135900000D01*
X55800000Y-142800000D02*
X46250000Y-142800000D01*
X43600000Y-141150000D02*
X43600000Y-137150000D01*
X46250000Y-142800000D02*
X43600000Y-140150000D01*
X29200000Y-141300000D02*
X31300000Y-143400000D01*
X28200000Y-141300000D02*
X29200000Y-141300000D01*
X31300000Y-143400000D02*
X31300000Y-143450000D01*
X31300000Y-143450000D02*
X41300000Y-143450000D01*
X27150000Y-62000000D02*
X27150000Y-140250000D01*
X27150000Y-140250000D02*
X28200000Y-141300000D01*
X43600000Y-140150000D02*
X43600000Y-137150000D01*
X62700000Y-135900000D02*
X55800000Y-142800000D01*
%TO.N,+3.3V*%
X29200000Y-83900000D02*
X37450000Y-75650000D01*
X55750000Y-61340000D02*
X51354000Y-61340000D01*
X51354000Y-61340000D02*
X39594000Y-73100000D01*
X29200000Y-95580000D02*
X29200000Y-83900000D01*
%TO.N,/GPIO 32*%
D22*
X38550000Y-78400000D02*
X37250000Y-79700000D01*
X37250000Y-79700000D02*
X37250000Y-102770000D01*
X37250000Y-102770000D02*
X29200000Y-110820000D01*
%TO.N,/GPIO 33*%
X35590000Y-113360000D02*
X35700000Y-113250000D01*
X29200000Y-113360000D02*
X35590000Y-113360000D01*
%TO.N,/GPIO 25*%
X33898529Y-115900000D02*
X38550000Y-111248529D01*
X29200000Y-115900000D02*
X33898529Y-115900000D01*
X38550000Y-111248529D02*
X38550000Y-92900000D01*
%TO.N,/GPIO 17*%
X57950000Y-108100000D02*
X57950000Y-113450000D01*
X62450000Y-107600000D02*
X58450000Y-107600000D01*
X58450000Y-107600000D02*
X57950000Y-108100000D01*
%TO.N,/GPIO 19*%
X56600000Y-123450000D02*
X56600000Y-115360000D01*
X56600000Y-123450000D02*
X56750000Y-123600000D01*
X56750000Y-123600000D02*
X62800000Y-123600000D01*
X56600000Y-115360000D02*
X54600000Y-113360000D01*
%TO.N,/GPIO 21*%
X45600000Y-99280000D02*
X45600000Y-89800000D01*
X45182000Y-80218000D02*
X45182000Y-73100000D01*
X44650000Y-80750000D02*
X45182000Y-80218000D01*
X45600000Y-89800000D02*
X44650000Y-88850000D01*
X44650000Y-88850000D02*
X44650000Y-80750000D01*
X54600000Y-108280000D02*
X45600000Y-99280000D01*
%TO.N,/GPIO 23*%
X61250000Y-117950000D02*
X56100000Y-112800000D01*
X56100000Y-112800000D02*
X56100000Y-99620000D01*
X56100000Y-99620000D02*
X54600000Y-98120000D01*
X62750000Y-117950000D02*
X61250000Y-117950000D01*
%TO.N,/VBAT*%
D21*
X51170000Y-134630000D02*
X51170000Y-127400000D01*
X48600000Y-137200000D02*
X51170000Y-134630000D01*
%TD*%
M02*
