M48
; DRILL file KiCad 10.0.1 date 2026-05-22T19:31:43
; FORMAT={-:-/ absolute / metric / decimal}
; #@! TF.CreationDate,2026-05-22T19:31:43+02:00
; #@! TF.GenerationSoftware,Kicad,Pcbnew,10.0.1
; #@! TF.FileFunction,Plated,1,2,PTH
FMAT,2
METRIC
; #@! TA.AperFunction,Plated,PTH,ViaDrill
T1C0.300
; #@! TA.AperFunction,Plated,PTH,ComponentDrill
T2C0.762
; #@! TA.AperFunction,Plated,PTH,ComponentDrill
T3C0.800
; #@! TA.AperFunction,Plated,PTH,ComponentDrill
T4C1.000
; #@! TA.AperFunction,Plated,PTH,ComponentDrill
T5C1.200
; #@! TA.AperFunction,Plated,PTH,ComponentDrill
T6C2.200
%
G90
G05
T1
X35.3Y-142.7
X35.7Y-113.25
X37.45Y-75.65
X46.815Y-103.035
X48.7Y-101.15
X56.6Y-123.45
X57.9Y-129.45
X57.95Y-113.45
X62.55Y-112.65
T2
X27.81Y-25.78
X27.81Y-28.32
X27.81Y-30.86
X27.81Y-33.4
X27.81Y-35.94
X27.81Y-38.48
X27.81Y-41.02
X27.81Y-43.56
X27.81Y-46.1
X27.81Y-48.64
X27.81Y-51.18
X27.81Y-53.72
X27.81Y-56.26
X27.81Y-58.8
X27.81Y-61.34
X55.75Y-25.78
X55.75Y-28.32
X55.75Y-30.86
X55.75Y-33.4
X55.75Y-35.94
X55.75Y-38.48
X55.75Y-41.02
X55.75Y-43.56
X55.75Y-46.1
X55.75Y-48.64
X55.75Y-51.18
X55.75Y-53.72
X55.75Y-56.26
X55.75Y-58.8
X55.75Y-61.34
T3
X29.2Y-95.58
X29.2Y-98.12
X29.2Y-100.66
X29.2Y-103.2
X29.2Y-105.74
X29.2Y-108.28
X29.2Y-110.82
X29.2Y-113.36
X29.2Y-115.9
X29.2Y-118.44
X29.2Y-120.98
X29.2Y-123.52
X29.2Y-126.06
X29.2Y-128.6
X29.2Y-131.14
X29.2Y-133.68
X29.2Y-136.22
X29.2Y-138.76
X29.2Y-141.3
X33.34Y-127.6
X39.6Y-134.45
X39.6Y-139.45
X40.96Y-127.6
X43.55Y-127.4
X51.17Y-127.4
X54.596Y-138.757
X54.596Y-141.297
X54.6Y-95.58
X54.6Y-98.12
X54.6Y-100.66
X54.6Y-103.2
X54.6Y-105.74
X54.6Y-108.28
X54.6Y-110.82
X54.6Y-113.36
X54.6Y-115.9
X54.6Y-118.44
X54.6Y-120.98
X54.6Y-123.52
X54.6Y-126.06
X54.6Y-128.6
X54.6Y-131.14
X54.6Y-133.68
X54.6Y-136.22
T4
X38.55Y-78.4
X38.55Y-92.9
X41.05Y-78.4
X43.55Y-78.4
X43.55Y-92.9
T5
X36.8Y-73.1
X39.594Y-73.1
X42.388Y-73.1
X45.182Y-73.1
T6
X35.45Y-85.9
X46.65Y-85.9
M30
