%TF.GenerationSoftware,KiCad,Pcbnew,10.0.1*%
%TF.CreationDate,2026-05-22T19:31:46+02:00*%
%TF.ProjectId,final,66696e61-6c2e-46b6-9963-61645f706362,rev?*%
%TF.SameCoordinates,Original*%
%TF.FileFunction,Profile,NP*%
%FSLAX46Y46*%
G04 Gerber Fmt 4.6, Leading zero omitted, Abs format (unit mm)*
G04 Created by KiCad (PCBNEW 10.0.1) date 2026-05-22 19:31:46*
%MOMM*%
%LPD*%
G01*
G04 APERTURE LIST*
%TA.AperFunction,Profile*%
%ADD10C,0.050000*%
%TD*%
G04 APERTURE END LIST*
D10*
X22779362Y-15659742D02*
X23329362Y-15659742D01*
X23529362Y-15659742D02*
X24079362Y-15659742D01*
X24279362Y-15659742D02*
X24829362Y-15659742D01*
X25029362Y-15659742D02*
X25579362Y-15659742D01*
X25779362Y-15659742D02*
X26329362Y-15659742D01*
X26529362Y-15659742D02*
X27079362Y-15659742D01*
X27279362Y-15659742D02*
X27829362Y-15659742D01*
X28029362Y-15659742D02*
X28579362Y-15659742D01*
X28779362Y-15659742D02*
X29329362Y-15659742D01*
X29529362Y-15659742D02*
X30079362Y-15659742D01*
X30279362Y-15659742D02*
X30829362Y-15659742D01*
X31029362Y-15659742D02*
X31579362Y-15659742D01*
X31779362Y-15659742D02*
X32329362Y-15659742D01*
X32529362Y-15659742D02*
X33079362Y-15659742D01*
X33279362Y-15659742D02*
X33829362Y-15659742D01*
X34029362Y-15659742D02*
X34579362Y-15659742D01*
X34779362Y-15659742D02*
X35329362Y-15659742D01*
X35529362Y-15659742D02*
X36079362Y-15659742D01*
X36279362Y-15659742D02*
X36829362Y-15659742D01*
X37029362Y-15659742D02*
X37579362Y-15659742D01*
X37779362Y-15659742D02*
X38329362Y-15659742D01*
X38529362Y-15659742D02*
X39079362Y-15659742D01*
X39279362Y-15659742D02*
X39829362Y-15659742D01*
X40029362Y-15659742D02*
X40579362Y-15659742D01*
X40779362Y-15659742D02*
X41329362Y-15659742D01*
X41529362Y-15659742D02*
X42079362Y-15659742D01*
X42279362Y-15659742D02*
X42829362Y-15659742D01*
X43029362Y-15659742D02*
X43579362Y-15659742D01*
X43779362Y-15659742D02*
X44329362Y-15659742D01*
X44529362Y-15659742D02*
X45079362Y-15659742D01*
X45279362Y-15659742D02*
X45829362Y-15659742D01*
X46029362Y-15659742D02*
X46579362Y-15659742D01*
X46779362Y-15659742D02*
X47329362Y-15659742D01*
X47529362Y-15659742D02*
X48079362Y-15659742D01*
X48279362Y-15659742D02*
X48829362Y-15659742D01*
X49029362Y-15659742D02*
X49579362Y-15659742D01*
X49779362Y-15659742D02*
X50329362Y-15659742D01*
X50529362Y-15659742D02*
X51079362Y-15659742D01*
X51279362Y-15659742D02*
X51829362Y-15659742D01*
X52029362Y-15659742D02*
X52579362Y-15659742D01*
X52779362Y-15659742D02*
X53329362Y-15659742D01*
X53529362Y-15659742D02*
X54079362Y-15659742D01*
X54279362Y-15659742D02*
X54829362Y-15659742D01*
X55029362Y-15659742D02*
X55579362Y-15659742D01*
X55779362Y-15659742D02*
X56329362Y-15659742D01*
X56529362Y-15659742D02*
X57079362Y-15659742D01*
X57279362Y-15659742D02*
X57829362Y-15659742D01*
X58029362Y-15659742D02*
X58579362Y-15659742D01*
X58779362Y-15659742D02*
X59329362Y-15659742D01*
X59529362Y-15659742D02*
X60079362Y-15659742D01*
X60279362Y-15659742D02*
X60829362Y-15659742D01*
X61029362Y-15659742D02*
X61579362Y-15659742D01*
X61779362Y-15659742D02*
X62329362Y-15659742D01*
X62529362Y-15659742D02*
X63079362Y-15659742D01*
X63279362Y-15659742D02*
X63829362Y-15659742D01*
X64029362Y-15659742D02*
X64579362Y-15659742D01*
X64779362Y-15659742D02*
X65329362Y-15659742D01*
X65529362Y-15659742D02*
X66079362Y-15659742D01*
X66279362Y-15659742D02*
X66829362Y-15659742D01*
X67029362Y-15659742D02*
X67349999Y-15659742D01*
X67349999Y-15659742D02*
X67349999Y-16209742D01*
X67349999Y-16409742D02*
X67349999Y-16959742D01*
X67349999Y-17159742D02*
X67349999Y-17709742D01*
X67349999Y-17909742D02*
X67349999Y-18459742D01*
X67349999Y-18659742D02*
X67349999Y-19209742D01*
X67349999Y-19409742D02*
X67349999Y-19959742D01*
X67349999Y-20159742D02*
X67349999Y-20709742D01*
X67349999Y-20909742D02*
X67349999Y-21459742D01*
X67349999Y-21659742D02*
X67349999Y-22209742D01*
X67349999Y-22409742D02*
X67349999Y-22959742D01*
X67349999Y-23159742D02*
X67349999Y-23709742D01*
X67349999Y-23909742D02*
X67349999Y-24459742D01*
X67349999Y-24659742D02*
X67349999Y-25209742D01*
X67349999Y-25409742D02*
X67349999Y-25959742D01*
X67349999Y-26159742D02*
X67349999Y-26709742D01*
X67349999Y-26909742D02*
X67349999Y-27459742D01*
X67349999Y-27659742D02*
X67349999Y-28209742D01*
X67349999Y-28409742D02*
X67349999Y-28959742D01*
X67349999Y-29159742D02*
X67349999Y-29709742D01*
X67349999Y-29909742D02*
X67349999Y-30459742D01*
X67349999Y-30659742D02*
X67349999Y-31209742D01*
X67349999Y-31409742D02*
X67349999Y-31959742D01*
X67349999Y-32159742D02*
X67349999Y-32709742D01*
X67349999Y-32909742D02*
X67349999Y-33459742D01*
X67349999Y-33659742D02*
X67349999Y-34209742D01*
X67349999Y-34409742D02*
X67349999Y-34959742D01*
X67349999Y-35159742D02*
X67349999Y-35709742D01*
X67349999Y-35909742D02*
X67349999Y-36459742D01*
X67349999Y-36659742D02*
X67349999Y-37209742D01*
X67349999Y-37409742D02*
X67349999Y-37959742D01*
X67349999Y-38159742D02*
X67349999Y-38709742D01*
X67349999Y-38909742D02*
X67349999Y-39459742D01*
X67349999Y-39659742D02*
X67349999Y-40209742D01*
X67349999Y-40409742D02*
X67349999Y-40959742D01*
X67349999Y-41159742D02*
X67349999Y-41709742D01*
X67349999Y-41909742D02*
X67349999Y-42459742D01*
X67349999Y-42659742D02*
X67349999Y-43209742D01*
X67349999Y-43409742D02*
X67349999Y-43959742D01*
X67349999Y-44159742D02*
X67349999Y-44709742D01*
X67349999Y-44909742D02*
X67349999Y-45459742D01*
X67349999Y-45659742D02*
X67349999Y-46209742D01*
X67349999Y-46409742D02*
X67349999Y-46959742D01*
X67349999Y-47159742D02*
X67349999Y-47709742D01*
X67349999Y-47909742D02*
X67349999Y-48459742D01*
X67349999Y-48659742D02*
X67349999Y-49209742D01*
X67349999Y-49409742D02*
X67349999Y-49959742D01*
X67349999Y-50159742D02*
X67349999Y-50709742D01*
X67349999Y-50909742D02*
X67349999Y-51459742D01*
X67349999Y-51659742D02*
X67349999Y-52209742D01*
X67349999Y-52409742D02*
X67349999Y-52959742D01*
X67349999Y-53159742D02*
X67349999Y-53709742D01*
X67349999Y-53909742D02*
X67349999Y-54459742D01*
X67349999Y-54659742D02*
X67349999Y-55209742D01*
X67349999Y-55409742D02*
X67349999Y-55959742D01*
X67349999Y-56159742D02*
X67349999Y-56709742D01*
X67349999Y-56909742D02*
X67349999Y-57459742D01*
X67349999Y-57659742D02*
X67349999Y-58209742D01*
X67349999Y-58409742D02*
X67349999Y-58959742D01*
X67349999Y-59159742D02*
X67349999Y-59709742D01*
X67349999Y-59909742D02*
X67349999Y-60459742D01*
X67349999Y-60659742D02*
X67349999Y-61209742D01*
X67349999Y-61409742D02*
X67349999Y-61959742D01*
X67349999Y-62159742D02*
X67349999Y-62709742D01*
X67349999Y-62909742D02*
X67349999Y-63459742D01*
X67349999Y-63659742D02*
X67349999Y-64209742D01*
X67349999Y-64409742D02*
X67349999Y-64959742D01*
X67349999Y-65159742D02*
X67349999Y-65709742D01*
X67349999Y-65909742D02*
X67349999Y-66459742D01*
X67349999Y-66659742D02*
X67349999Y-67209742D01*
X67349999Y-67409742D02*
X67349999Y-67959742D01*
X67349999Y-68159742D02*
X67349999Y-68709742D01*
X67349999Y-68909742D02*
X67349999Y-69459742D01*
X67349999Y-69659742D02*
X67349999Y-70209742D01*
X67349999Y-70409742D02*
X67349999Y-70959742D01*
X67349999Y-71159742D02*
X67349999Y-71709742D01*
X67349999Y-71909742D02*
X67349999Y-72459742D01*
X67349999Y-72659742D02*
X67349999Y-73209742D01*
X67349999Y-73409742D02*
X67349999Y-73959742D01*
X67349999Y-74159742D02*
X67349999Y-74709742D01*
X67349999Y-74909742D02*
X67349999Y-75459742D01*
X67349999Y-75659742D02*
X67349999Y-76209742D01*
X67349999Y-76409742D02*
X67349999Y-76959742D01*
X67349999Y-77159742D02*
X67349999Y-77709742D01*
X67349999Y-77909742D02*
X67349999Y-78459742D01*
X67349999Y-78659742D02*
X67349999Y-79209742D01*
X67349999Y-79409742D02*
X67349999Y-79959742D01*
X67349999Y-80159742D02*
X67349999Y-80709742D01*
X67349999Y-80909742D02*
X67349999Y-81459742D01*
X67349999Y-81659742D02*
X67349999Y-82209742D01*
X67349999Y-82409742D02*
X67349999Y-82959742D01*
X67349999Y-83159742D02*
X67349999Y-83709742D01*
X67349999Y-83909742D02*
X67349999Y-84459742D01*
X67349999Y-84659742D02*
X67349999Y-85209742D01*
X67349999Y-85409742D02*
X67349999Y-85959742D01*
X67349999Y-86159742D02*
X67349999Y-86709742D01*
X67349999Y-86909742D02*
X67349999Y-87459742D01*
X67349999Y-87659742D02*
X67349999Y-88209742D01*
X67349999Y-88409742D02*
X67349999Y-88959742D01*
X67349999Y-89159742D02*
X67349999Y-89709742D01*
X67349999Y-89909742D02*
X67349999Y-90459742D01*
X67349999Y-90659742D02*
X67349999Y-91209742D01*
X67349999Y-91409742D02*
X67349999Y-91959742D01*
X67349999Y-92159742D02*
X67349999Y-92709742D01*
X67349999Y-92909742D02*
X67349999Y-93459742D01*
X67349999Y-93659742D02*
X67349999Y-94209742D01*
X67349999Y-94409742D02*
X67349999Y-94959742D01*
X67349999Y-95159742D02*
X67349999Y-95709742D01*
X67349999Y-95909742D02*
X67349999Y-96459742D01*
X67349999Y-96659742D02*
X67349999Y-97209742D01*
X67349999Y-97409742D02*
X67349999Y-97959742D01*
X67349999Y-98159742D02*
X67349999Y-98709742D01*
X67349999Y-98909742D02*
X67349999Y-99459742D01*
X67349999Y-99659742D02*
X67349999Y-100209742D01*
X67349999Y-100409742D02*
X67349999Y-100959742D01*
X67349999Y-101159742D02*
X67349999Y-101709742D01*
X67349999Y-101909742D02*
X67349999Y-102459742D01*
X67349999Y-102659742D02*
X67349999Y-103209742D01*
X67349999Y-103409742D02*
X67349999Y-103959742D01*
X67349999Y-104159742D02*
X67349999Y-104709742D01*
X67349999Y-104909742D02*
X67349999Y-105459742D01*
X67349999Y-105659742D02*
X67349999Y-106209742D01*
X67349999Y-106409742D02*
X67349999Y-106959742D01*
X67349999Y-107159742D02*
X67349999Y-107709742D01*
X67349999Y-107909742D02*
X67349999Y-108459742D01*
X67349999Y-108659742D02*
X67349999Y-109209742D01*
X67349999Y-109409742D02*
X67349999Y-109959742D01*
X67349999Y-110159742D02*
X67349999Y-110709742D01*
X67349999Y-110909742D02*
X67349999Y-111459742D01*
X67349999Y-111659742D02*
X67349999Y-112209742D01*
X67349999Y-112409742D02*
X67349999Y-112959742D01*
X67349999Y-113159742D02*
X67349999Y-113709742D01*
X67349999Y-113909742D02*
X67349999Y-114459742D01*
X67349999Y-114659742D02*
X67349999Y-115209742D01*
X67349999Y-115409742D02*
X67349999Y-115959742D01*
X67349999Y-116159742D02*
X67349999Y-116709742D01*
X67349999Y-116909742D02*
X67349999Y-117459742D01*
X67349999Y-117659742D02*
X67349999Y-118209742D01*
X67349999Y-118409742D02*
X67349999Y-118959742D01*
X67349999Y-119159742D02*
X67349999Y-119709742D01*
X67349999Y-119909742D02*
X67349999Y-120459742D01*
X67349999Y-120659742D02*
X67349999Y-121209742D01*
X67349999Y-121409742D02*
X67349999Y-121959742D01*
X67349999Y-122159742D02*
X67349999Y-122709742D01*
X67349999Y-122909742D02*
X67349999Y-123459742D01*
X67349999Y-123659742D02*
X67349999Y-124209742D01*
X67349999Y-124409742D02*
X67349999Y-124959742D01*
X67349999Y-125159742D02*
X67349999Y-125709742D01*
X67349999Y-125909742D02*
X67349999Y-126459742D01*
X67349999Y-126659742D02*
X67349999Y-127209742D01*
X67349999Y-127409742D02*
X67349999Y-127959742D01*
X67349999Y-128159742D02*
X67349999Y-128709742D01*
X67349999Y-128909742D02*
X67349999Y-129459742D01*
X67349999Y-129659742D02*
X67349999Y-130209742D01*
X67349999Y-130409742D02*
X67349999Y-130959742D01*
X67349999Y-131159742D02*
X67349999Y-131709742D01*
X67349999Y-131909742D02*
X67349999Y-132459742D01*
X67349999Y-132659742D02*
X67349999Y-133209742D01*
X67349999Y-133409742D02*
X67349999Y-133959742D01*
X67349999Y-134159742D02*
X67349999Y-134709742D01*
X67349999Y-134909742D02*
X67349999Y-135459742D01*
X67349999Y-135659742D02*
X67349999Y-136209742D01*
X67349999Y-136409742D02*
X67349999Y-136959742D01*
X67349999Y-137159742D02*
X67349999Y-137709742D01*
X67349999Y-137909742D02*
X67349999Y-138459742D01*
X67349999Y-138659742D02*
X67349999Y-139209742D01*
X67349999Y-139409742D02*
X67349999Y-139959742D01*
X67349999Y-140159742D02*
X67349999Y-140709742D01*
X67349999Y-140909742D02*
X67349999Y-141459742D01*
X67349999Y-141659742D02*
X67349999Y-142209742D01*
X67349999Y-142409742D02*
X67349999Y-142959742D01*
X67349999Y-143159742D02*
X67349999Y-143709742D01*
X67349999Y-143909742D02*
X67349999Y-144459742D01*
X67349999Y-144659742D02*
X67349999Y-145209742D01*
X67349999Y-145409742D02*
X67349999Y-145959742D01*
X67349999Y-146159742D02*
X67349999Y-146709742D01*
X67349999Y-146909742D02*
X67349999Y-147459742D01*
X67349999Y-147659742D02*
X67349999Y-148209742D01*
X67349999Y-148409742D02*
X67349999Y-148500000D01*
X67349999Y-148500000D02*
X66799999Y-148500000D01*
X66599999Y-148500000D02*
X66049999Y-148500000D01*
X65849999Y-148500000D02*
X65299999Y-148500000D01*
X65099999Y-148500000D02*
X64549999Y-148500000D01*
X64349999Y-148500000D02*
X63799999Y-148500000D01*
X63599999Y-148500000D02*
X63049999Y-148500000D01*
X62849999Y-148500000D02*
X62299999Y-148500000D01*
X62099999Y-148500000D02*
X61549999Y-148500000D01*
X61349999Y-148500000D02*
X60799999Y-148500000D01*
X60599999Y-148500000D02*
X60049999Y-148500000D01*
X59849999Y-148500000D02*
X59299999Y-148500000D01*
X59099999Y-148500000D02*
X58549999Y-148500000D01*
X58349999Y-148500000D02*
X57799999Y-148500000D01*
X57599999Y-148500000D02*
X57049999Y-148500000D01*
X56849999Y-148500000D02*
X56299999Y-148500000D01*
X56099999Y-148500000D02*
X55549999Y-148500000D01*
X55349999Y-148500000D02*
X54799999Y-148500000D01*
X54599999Y-148500000D02*
X54049999Y-148500000D01*
X53849999Y-148500000D02*
X53299999Y-148500000D01*
X53099999Y-148500000D02*
X52549999Y-148500000D01*
X52349999Y-148500000D02*
X51799999Y-148500000D01*
X51599999Y-148500000D02*
X51049999Y-148500000D01*
X50849999Y-148500000D02*
X50299999Y-148500000D01*
X50099999Y-148500000D02*
X49549999Y-148500000D01*
X49349999Y-148500000D02*
X48799999Y-148500000D01*
X48599999Y-148500000D02*
X48049999Y-148500000D01*
X47849999Y-148500000D02*
X47299999Y-148500000D01*
X47099999Y-148500000D02*
X46549999Y-148500000D01*
X46349999Y-148500000D02*
X45799999Y-148500000D01*
X45599999Y-148500000D02*
X45049999Y-148500000D01*
X44849999Y-148500000D02*
X44299999Y-148500000D01*
X44099999Y-148500000D02*
X43549999Y-148500000D01*
X43349999Y-148500000D02*
X42799999Y-148500000D01*
X42599999Y-148500000D02*
X42049999Y-148500000D01*
X41849999Y-148500000D02*
X41299999Y-148500000D01*
X41099999Y-148500000D02*
X40549999Y-148500000D01*
X40349999Y-148500000D02*
X39799999Y-148500000D01*
X39599999Y-148500000D02*
X39049999Y-148500000D01*
X38849999Y-148500000D02*
X38299999Y-148500000D01*
X38099999Y-148500000D02*
X37549999Y-148500000D01*
X37349999Y-148500000D02*
X36799999Y-148500000D01*
X36599999Y-148500000D02*
X36049999Y-148500000D01*
X35849999Y-148500000D02*
X35299999Y-148500000D01*
X35099999Y-148500000D02*
X34549999Y-148500000D01*
X34349999Y-148500000D02*
X33799999Y-148500000D01*
X33599999Y-148500000D02*
X33049999Y-148500000D01*
X32849999Y-148500000D02*
X32299999Y-148500000D01*
X32099999Y-148500000D02*
X31549999Y-148500000D01*
X31349999Y-148500000D02*
X30799999Y-148500000D01*
X30599999Y-148500000D02*
X30049999Y-148500000D01*
X29849999Y-148500000D02*
X29299999Y-148500000D01*
X29099999Y-148500000D02*
X28549999Y-148500000D01*
X28349999Y-148500000D02*
X27799999Y-148500000D01*
X27599999Y-148500000D02*
X27049999Y-148500000D01*
X26849999Y-148500000D02*
X26299999Y-148500000D01*
X26099999Y-148500000D02*
X25549999Y-148500000D01*
X25349999Y-148500000D02*
X24799999Y-148500000D01*
X24599999Y-148500000D02*
X24049999Y-148500000D01*
X23849999Y-148500000D02*
X23299999Y-148500000D01*
X23099999Y-148500000D02*
X22779362Y-148500000D01*
X22779362Y-148500000D02*
X22779362Y-147950000D01*
X22779362Y-147750000D02*
X22779362Y-147200000D01*
X22779362Y-147000000D02*
X22779362Y-146450000D01*
X22779362Y-146250000D02*
X22779362Y-145700000D01*
X22779362Y-145500000D02*
X22779362Y-144950000D01*
X22779362Y-144750000D02*
X22779362Y-144200000D01*
X22779362Y-144000000D02*
X22779362Y-143450000D01*
X22779362Y-143250000D02*
X22779362Y-142700000D01*
X22779362Y-142500000D02*
X22779362Y-141950000D01*
X22779362Y-141750000D02*
X22779362Y-141200000D01*
X22779362Y-141000000D02*
X22779362Y-140450000D01*
X22779362Y-140250000D02*
X22779362Y-139700000D01*
X22779362Y-139500000D02*
X22779362Y-138950000D01*
X22779362Y-138750000D02*
X22779362Y-138200000D01*
X22779362Y-138000000D02*
X22779362Y-137450000D01*
X22779362Y-137250000D02*
X22779362Y-136700000D01*
X22779362Y-136500000D02*
X22779362Y-135950000D01*
X22779362Y-135750000D02*
X22779362Y-135200000D01*
X22779362Y-135000000D02*
X22779362Y-134450000D01*
X22779362Y-134250000D02*
X22779362Y-133700000D01*
X22779362Y-133500000D02*
X22779362Y-132950000D01*
X22779362Y-132750000D02*
X22779362Y-132200000D01*
X22779362Y-132000000D02*
X22779362Y-131450000D01*
X22779362Y-131250000D02*
X22779362Y-130700000D01*
X22779362Y-130500000D02*
X22779362Y-129950000D01*
X22779362Y-129750000D02*
X22779362Y-129200000D01*
X22779362Y-129000000D02*
X22779362Y-128450000D01*
X22779362Y-128250000D02*
X22779362Y-127700000D01*
X22779362Y-127500000D02*
X22779362Y-126950000D01*
X22779362Y-126750000D02*
X22779362Y-126200000D01*
X22779362Y-126000000D02*
X22779362Y-125450000D01*
X22779362Y-125250000D02*
X22779362Y-124700000D01*
X22779362Y-124500000D02*
X22779362Y-123950000D01*
X22779362Y-123750000D02*
X22779362Y-123200000D01*
X22779362Y-123000000D02*
X22779362Y-122450000D01*
X22779362Y-122250000D02*
X22779362Y-121700000D01*
X22779362Y-121500000D02*
X22779362Y-120950000D01*
X22779362Y-120750000D02*
X22779362Y-120200000D01*
X22779362Y-120000000D02*
X22779362Y-119450000D01*
X22779362Y-119250000D02*
X22779362Y-118700000D01*
X22779362Y-118500000D02*
X22779362Y-117950000D01*
X22779362Y-117750000D02*
X22779362Y-117200000D01*
X22779362Y-117000000D02*
X22779362Y-116450000D01*
X22779362Y-116250000D02*
X22779362Y-115700000D01*
X22779362Y-115500000D02*
X22779362Y-114950000D01*
X22779362Y-114750000D02*
X22779362Y-114200000D01*
X22779362Y-114000000D02*
X22779362Y-113450000D01*
X22779362Y-113250000D02*
X22779362Y-112700000D01*
X22779362Y-112500000D02*
X22779362Y-111950000D01*
X22779362Y-111750000D02*
X22779362Y-111200000D01*
X22779362Y-111000000D02*
X22779362Y-110450000D01*
X22779362Y-110250000D02*
X22779362Y-109700000D01*
X22779362Y-109500000D02*
X22779362Y-108950000D01*
X22779362Y-108750000D02*
X22779362Y-108200000D01*
X22779362Y-108000000D02*
X22779362Y-107450000D01*
X22779362Y-107250000D02*
X22779362Y-106700000D01*
X22779362Y-106500000D02*
X22779362Y-105950000D01*
X22779362Y-105750000D02*
X22779362Y-105200000D01*
X22779362Y-105000000D02*
X22779362Y-104450000D01*
X22779362Y-104250000D02*
X22779362Y-103700000D01*
X22779362Y-103500000D02*
X22779362Y-102950000D01*
X22779362Y-102750000D02*
X22779362Y-102200000D01*
X22779362Y-102000000D02*
X22779362Y-101450000D01*
X22779362Y-101250000D02*
X22779362Y-100700000D01*
X22779362Y-100500000D02*
X22779362Y-99950000D01*
X22779362Y-99750000D02*
X22779362Y-99200000D01*
X22779362Y-99000000D02*
X22779362Y-98450000D01*
X22779362Y-98250000D02*
X22779362Y-97700000D01*
X22779362Y-97500000D02*
X22779362Y-96950000D01*
X22779362Y-96750000D02*
X22779362Y-96200000D01*
X22779362Y-96000000D02*
X22779362Y-95450000D01*
X22779362Y-95250000D02*
X22779362Y-94700000D01*
X22779362Y-94500000D02*
X22779362Y-93950000D01*
X22779362Y-93750000D02*
X22779362Y-93200000D01*
X22779362Y-93000000D02*
X22779362Y-92450000D01*
X22779362Y-92250000D02*
X22779362Y-91700000D01*
X22779362Y-91500000D02*
X22779362Y-90950000D01*
X22779362Y-90750000D02*
X22779362Y-90200000D01*
X22779362Y-90000000D02*
X22779362Y-89450000D01*
X22779362Y-89250000D02*
X22779362Y-88700000D01*
X22779362Y-88500000D02*
X22779362Y-87950000D01*
X22779362Y-87750000D02*
X22779362Y-87200000D01*
X22779362Y-87000000D02*
X22779362Y-86450000D01*
X22779362Y-86250000D02*
X22779362Y-85700000D01*
X22779362Y-85500000D02*
X22779362Y-84950000D01*
X22779362Y-84750000D02*
X22779362Y-84200000D01*
X22779362Y-84000000D02*
X22779362Y-83450000D01*
X22779362Y-83250000D02*
X22779362Y-82700000D01*
X22779362Y-82500000D02*
X22779362Y-81950000D01*
X22779362Y-81750000D02*
X22779362Y-81200000D01*
X22779362Y-81000000D02*
X22779362Y-80450000D01*
X22779362Y-80250000D02*
X22779362Y-79700000D01*
X22779362Y-79500000D02*
X22779362Y-78950000D01*
X22779362Y-78750000D02*
X22779362Y-78200000D01*
X22779362Y-78000000D02*
X22779362Y-77450000D01*
X22779362Y-77250000D02*
X22779362Y-76700000D01*
X22779362Y-76500000D02*
X22779362Y-75950000D01*
X22779362Y-75750000D02*
X22779362Y-75200000D01*
X22779362Y-75000000D02*
X22779362Y-74450000D01*
X22779362Y-74250000D02*
X22779362Y-73700000D01*
X22779362Y-73500000D02*
X22779362Y-72950000D01*
X22779362Y-72750000D02*
X22779362Y-72200000D01*
X22779362Y-72000000D02*
X22779362Y-71450000D01*
X22779362Y-71250000D02*
X22779362Y-70700000D01*
X22779362Y-70500000D02*
X22779362Y-69950000D01*
X22779362Y-69750000D02*
X22779362Y-69200000D01*
X22779362Y-69000000D02*
X22779362Y-68450000D01*
X22779362Y-68250000D02*
X22779362Y-67700000D01*
X22779362Y-67500000D02*
X22779362Y-66950000D01*
X22779362Y-66750000D02*
X22779362Y-66200000D01*
X22779362Y-66000000D02*
X22779362Y-65450000D01*
X22779362Y-65250000D02*
X22779362Y-64700000D01*
X22779362Y-64500000D02*
X22779362Y-63950000D01*
X22779362Y-63750000D02*
X22779362Y-63200000D01*
X22779362Y-63000000D02*
X22779362Y-62450000D01*
X22779362Y-62250000D02*
X22779362Y-61700000D01*
X22779362Y-61500000D02*
X22779362Y-60950000D01*
X22779362Y-60750000D02*
X22779362Y-60200000D01*
X22779362Y-60000000D02*
X22779362Y-59450000D01*
X22779362Y-59250000D02*
X22779362Y-58700000D01*
X22779362Y-58500000D02*
X22779362Y-57950000D01*
X22779362Y-57750000D02*
X22779362Y-57200000D01*
X22779362Y-57000000D02*
X22779362Y-56450000D01*
X22779362Y-56250000D02*
X22779362Y-55700000D01*
X22779362Y-55500000D02*
X22779362Y-54950000D01*
X22779362Y-54750000D02*
X22779362Y-54200000D01*
X22779362Y-54000000D02*
X22779362Y-53450000D01*
X22779362Y-53250000D02*
X22779362Y-52700000D01*
X22779362Y-52500000D02*
X22779362Y-51950000D01*
X22779362Y-51750000D02*
X22779362Y-51200000D01*
X22779362Y-51000000D02*
X22779362Y-50450000D01*
X22779362Y-50250000D02*
X22779362Y-49700000D01*
X22779362Y-49500000D02*
X22779362Y-48950000D01*
X22779362Y-48750000D02*
X22779362Y-48200000D01*
X22779362Y-48000000D02*
X22779362Y-47450000D01*
X22779362Y-47250000D02*
X22779362Y-46700000D01*
X22779362Y-46500000D02*
X22779362Y-45950000D01*
X22779362Y-45750000D02*
X22779362Y-45200000D01*
X22779362Y-45000000D02*
X22779362Y-44450000D01*
X22779362Y-44250000D02*
X22779362Y-43700000D01*
X22779362Y-43500000D02*
X22779362Y-42950000D01*
X22779362Y-42750000D02*
X22779362Y-42200000D01*
X22779362Y-42000000D02*
X22779362Y-41450000D01*
X22779362Y-41250000D02*
X22779362Y-40700000D01*
X22779362Y-40500000D02*
X22779362Y-39950000D01*
X22779362Y-39750000D02*
X22779362Y-39200000D01*
X22779362Y-39000000D02*
X22779362Y-38450000D01*
X22779362Y-38250000D02*
X22779362Y-37700000D01*
X22779362Y-37500000D02*
X22779362Y-36950000D01*
X22779362Y-36750000D02*
X22779362Y-36200000D01*
X22779362Y-36000000D02*
X22779362Y-35450000D01*
X22779362Y-35250000D02*
X22779362Y-34700000D01*
X22779362Y-34500000D02*
X22779362Y-33950000D01*
X22779362Y-33750000D02*
X22779362Y-33200000D01*
X22779362Y-33000000D02*
X22779362Y-32450000D01*
X22779362Y-32250000D02*
X22779362Y-31700000D01*
X22779362Y-31500000D02*
X22779362Y-30950000D01*
X22779362Y-30750000D02*
X22779362Y-30200000D01*
X22779362Y-30000000D02*
X22779362Y-29450000D01*
X22779362Y-29250000D02*
X22779362Y-28700000D01*
X22779362Y-28500000D02*
X22779362Y-27950000D01*
X22779362Y-27750000D02*
X22779362Y-27200000D01*
X22779362Y-27000000D02*
X22779362Y-26450000D01*
X22779362Y-26250000D02*
X22779362Y-25700000D01*
X22779362Y-25500000D02*
X22779362Y-24950000D01*
X22779362Y-24750000D02*
X22779362Y-24200000D01*
X22779362Y-24000000D02*
X22779362Y-23450000D01*
X22779362Y-23250000D02*
X22779362Y-22700000D01*
X22779362Y-22500000D02*
X22779362Y-21950000D01*
X22779362Y-21750000D02*
X22779362Y-21200000D01*
X22779362Y-21000000D02*
X22779362Y-20450000D01*
X22779362Y-20250000D02*
X22779362Y-19700000D01*
X22779362Y-19500000D02*
X22779362Y-18950000D01*
X22779362Y-18750000D02*
X22779362Y-18200000D01*
X22779362Y-18000000D02*
X22779362Y-17450000D01*
X22779362Y-17250000D02*
X22779362Y-16700000D01*
X22779362Y-16500000D02*
X22779362Y-15950000D01*
X22779362Y-15750000D02*
X22779362Y-15659742D01*
M02*
